<svg version="1.1" xmlns="http://www.w3.org/2000/svg" xmlns:xlink="http://www.w3.org/1999/xlink" width="1578" height="913"><defs><clipPath id="dHrCCgLPZHmn"><path fill="none" stroke="none" d=" M 0 0 L 1578 0 L 1578 913 L 0 913 L 0 0 Z"/></clipPath></defs><g transform="scale(1,1)" clip-path="url(#dHrCCgLPZHmn)"><g><rect fill="rgb(255,255,255)" stroke="none" x="0" y="0" width="1578" height="913" fill-opacity="1"/><path fill="none" stroke="rgb(37,37,37)" paint-order="fill stroke markers" d=" M 651.5 2.5 L 651.5 913.5" stroke-opacity="1" stroke-miterlimit="10"/><path fill="rgb(37,37,37)" stroke="none" paint-order="stroke fill markers" fill-rule="evenodd" d=" M 651.1977134755714 1 L 647.1977134755714 17 L 655.1977134755714 17" fill-opacity="1"/><path fill="none" stroke="rgb(37,37,37)" paint-order="fill stroke markers" d=" M 0.5 796.5 L 1576.5 796.5" stroke-opacity="1" stroke-miterlimit="10"/><path fill="rgb(37,37,37)" stroke="none" paint-order="stroke fill markers" fill-rule="evenodd" d=" M 1577 796.6055143268683 L 1561 792.6055143268683 L 1561 800.6055143268683" fill-opacity="1"/><text fill="rgb(37,37,37)" stroke="none" font-family="geogebra-serif, serif" font-size="12px" font-style="normal" font-weight="bold" text-decoration="normal" x="3" y="812" text-anchor="start" dominant-baseline="alphabetic" fill-opacity="1">–2.8</text><text fill="none" stroke="rgb(255,255,255)" font-family="geogebra-serif, serif" font-size="12px" font-style="normal" font-weight="bold" text-decoration="normal" x="3" y="812" text-anchor="start" dominant-baseline="alphabetic" stroke-opacity="1" stroke-linejoin="bevel" stroke-miterlimit="10" stroke-width="3">–2.8</text><text fill="rgb(37,37,37)" stroke="none" font-family="geogebra-serif, serif" font-size="12px" font-style="normal" font-weight="bold" text-decoration="normal" x="3" y="812" text-anchor="start" dominant-baseline="alphabetic" fill-opacity="1">–2.8</text><path fill="none" stroke="rgb(37,37,37)" paint-order="fill stroke markers" d=" M 16.5 796.5 L 16.5 799.5" stroke-opacity="1" stroke-miterlimit="10"/><text fill="rgb(37,37,37)" stroke="none" font-family="geogebra-serif, serif" font-size="12px" font-style="normal" font-weight="bold" text-decoration="normal" x="48" y="812" text-anchor="start" dominant-baseline="alphabetic" fill-opacity="1">–2.6</text><text fill="none" stroke="rgb(255,255,255)" font-family="geogebra-serif, serif" font-size="12px" font-style="normal" font-weight="bold" text-decoration="normal" x="48" y="812" text-anchor="start" dominant-baseline="alphabetic" stroke-opacity="1" stroke-linejoin="bevel" stroke-miterlimit="10" stroke-width="3">–2.6</text><text fill="rgb(37,37,37)" stroke="none" font-family="geogebra-serif, serif" font-size="12px" font-style="normal" font-weight="bold" text-decoration="normal" x="48" y="812" text-anchor="start" dominant-baseline="alphabetic" fill-opacity="1">–2.6</text><path fill="none" stroke="rgb(37,37,37)" paint-order="fill stroke markers" d=" M 62.5 796.5 L 62.5 799.5" stroke-opacity="1" stroke-miterlimit="10"/><text fill="rgb(37,37,37)" stroke="none" font-family="geogebra-serif, serif" font-size="12px" font-style="normal" font-weight="bold" text-decoration="normal" x="94" y="812" text-anchor="start" dominant-baseline="alphabetic" fill-opacity="1">–2.4</text><text fill="none" stroke="rgb(255,255,255)" font-family="geogebra-serif, serif" font-size="12px" font-style="normal" font-weight="bold" text-decoration="normal" x="94" y="812" text-anchor="start" dominant-baseline="alphabetic" stroke-opacity="1" stroke-linejoin="bevel" stroke-miterlimit="10" stroke-width="3">–2.4</text><text fill="rgb(37,37,37)" stroke="none" font-family="geogebra-serif, serif" font-size="12px" font-style="normal" font-weight="bold" text-decoration="normal" x="94" y="812" text-anchor="start" dominant-baseline="alphabetic" fill-opacity="1">–2.4</text><path fill="none" stroke="rgb(37,37,37)" paint-order="fill stroke markers" d=" M 107.5 796.5 L 107.5 799.5" stroke-opacity="1" stroke-miterlimit="10"/><text fill="rgb(37,37,37)" stroke="none" font-family="geogebra-serif, serif" font-size="12px" font-style="normal" font-weight="bold" text-decoration="normal" x="139" y="812" text-anchor="start" dominant-baseline="alphabetic" fill-opacity="1">–2.2</text><text fill="none" stroke="rgb(255,255,255)" font-family="geogebra-serif, serif" font-size="12px" font-style="normal" font-weight="bold" text-decoration="normal" x="139" y="812" text-anchor="start" dominant-baseline="alphabetic" stroke-opacity="1" stroke-linejoin="bevel" stroke-miterlimit="10" stroke-width="3">–2.2</text><text fill="rgb(37,37,37)" stroke="none" font-family="geogebra-serif, serif" font-size="12px" font-style="normal" font-weight="bold" text-decoration="normal" x="139" y="812" text-anchor="start" dominant-baseline="alphabetic" fill-opacity="1">–2.2</text><path fill="none" stroke="rgb(37,37,37)" paint-order="fill stroke markers" d=" M 152.5 796.5 L 152.5 799.5" stroke-opacity="1" stroke-miterlimit="10"/><text fill="rgb(37,37,37)" stroke="none" font-family="geogebra-serif, serif" font-size="12px" font-style="normal" font-weight="bold" text-decoration="normal" x="191" y="812" text-anchor="start" dominant-baseline="alphabetic" fill-opacity="1">–2</text><text fill="none" stroke="rgb(255,255,255)" font-family="geogebra-serif, serif" font-size="12px" font-style="normal" font-weight="bold" text-decoration="normal" x="191" y="812" text-anchor="start" dominant-baseline="alphabetic" stroke-opacity="1" stroke-linejoin="bevel" stroke-miterlimit="10" stroke-width="3">–2</text><text fill="rgb(37,37,37)" stroke="none" font-family="geogebra-serif, serif" font-size="12px" font-style="normal" font-weight="bold" text-decoration="normal" x="191" y="812" text-anchor="start" dominant-baseline="alphabetic" fill-opacity="1">–2</text><path fill="none" stroke="rgb(37,37,37)" paint-order="fill stroke markers" d=" M 198.5 796.5 L 198.5 799.5" stroke-opacity="1" stroke-miterlimit="10"/><text fill="rgb(37,37,37)" stroke="none" font-family="geogebra-serif, serif" font-size="12px" font-style="normal" font-weight="bold" text-decoration="normal" x="230" y="812" text-anchor="start" dominant-baseline="alphabetic" fill-opacity="1">–1.8</text><text fill="none" stroke="rgb(255,255,255)" font-family="geogebra-serif, serif" font-size="12px" font-style="normal" font-weight="bold" text-decoration="normal" x="230" y="812" text-anchor="start" dominant-baseline="alphabetic" stroke-opacity="1" stroke-linejoin="bevel" stroke-miterlimit="10" stroke-width="3">–1.8</text><text fill="rgb(37,37,37)" stroke="none" font-family="geogebra-serif, serif" font-size="12px" font-style="normal" font-weight="bold" text-decoration="normal" x="230" y="812" text-anchor="start" dominant-baseline="alphabetic" fill-opacity="1">–1.8</text><path fill="none" stroke="rgb(37,37,37)" paint-order="fill stroke markers" d=" M 243.5 796.5 L 243.5 799.5" stroke-opacity="1" stroke-miterlimit="10"/><text fill="rgb(37,37,37)" stroke="none" font-family="geogebra-serif, serif" font-size="12px" font-style="normal" font-weight="bold" text-decoration="normal" x="275" y="812" text-anchor="start" dominant-baseline="alphabetic" fill-opacity="1">–1.6</text><text fill="none" stroke="rgb(255,255,255)" font-family="geogebra-serif, serif" font-size="12px" font-style="normal" font-weight="bold" text-decoration="normal" x="275" y="812" text-anchor="start" dominant-baseline="alphabetic" stroke-opacity="1" stroke-linejoin="bevel" stroke-miterlimit="10" stroke-width="3">–1.6</text><text fill="rgb(37,37,37)" stroke="none" font-family="geogebra-serif, serif" font-size="12px" font-style="normal" font-weight="bold" text-decoration="normal" x="275" y="812" text-anchor="start" dominant-baseline="alphabetic" fill-opacity="1">–1.6</text><path fill="none" stroke="rgb(37,37,37)" paint-order="fill stroke markers" d=" M 288.5 796.5 L 288.5 799.5" stroke-opacity="1" stroke-miterlimit="10"/><text fill="rgb(37,37,37)" stroke="none" font-family="geogebra-serif, serif" font-size="12px" font-style="normal" font-weight="bold" text-decoration="normal" x="320" y="812" text-anchor="start" dominant-baseline="alphabetic" fill-opacity="1">–1.4</text><text fill="none" stroke="rgb(255,255,255)" font-family="geogebra-serif, serif" font-size="12px" font-style="normal" font-weight="bold" text-decoration="normal" x="320" y="812" text-anchor="start" dominant-baseline="alphabetic" stroke-opacity="1" stroke-linejoin="bevel" stroke-miterlimit="10" stroke-width="3">–1.4</text><text fill="rgb(37,37,37)" stroke="none" font-family="geogebra-serif, serif" font-size="12px" font-style="normal" font-weight="bold" text-decoration="normal" x="320" y="812" text-anchor="start" dominant-baseline="alphabetic" fill-opacity="1">–1.4</text><path fill="none" stroke="rgb(37,37,37)" paint-order="fill stroke markers" d=" M 334.5 796.5 L 334.5 799.5" stroke-opacity="1" stroke-miterlimit="10"/><text fill="rgb(37,37,37)" stroke="none" font-family="geogebra-serif, serif" font-size="12px" font-style="normal" font-weight="bold" text-decoration="normal" x="365" y="812" text-anchor="start" dominant-baseline="alphabetic" fill-opacity="1">–1.2</text><text fill="none" stroke="rgb(255,255,255)" font-family="geogebra-serif, serif" font-size="12px" font-style="normal" font-weight="bold" text-decoration="normal" x="365" y="812" text-anchor="start" dominant-baseline="alphabetic" stroke-opacity="1" stroke-linejoin="bevel" stroke-miterlimit="10" stroke-width="3">–1.2</text><text fill="rgb(37,37,37)" stroke="none" font-family="geogebra-serif, serif" font-size="12px" font-style="normal" font-weight="bold" text-decoration="normal" x="365" y="812" text-anchor="start" dominant-baseline="alphabetic" fill-opacity="1">–1.2</text><path fill="none" stroke="rgb(37,37,37)" paint-order="fill stroke markers" d=" M 379.5 796.5 L 379.5 799.5" stroke-opacity="1" stroke-miterlimit="10"/><text fill="rgb(37,37,37)" stroke="none" font-family="geogebra-serif, serif" font-size="12px" font-style="normal" font-weight="bold" text-decoration="normal" x="418" y="812" text-anchor="start" dominant-baseline="alphabetic" fill-opacity="1">–1</text><text fill="none" stroke="rgb(255,255,255)" font-family="geogebra-serif, serif" font-size="12px" font-style="normal" font-weight="bold" text-decoration="normal" x="418" y="812" text-anchor="start" dominant-baseline="alphabetic" stroke-opacity="1" stroke-linejoin="bevel" stroke-miterlimit="10" stroke-width="3">–1</text><text fill="rgb(37,37,37)" stroke="none" font-family="geogebra-serif, serif" font-size="12px" font-style="normal" font-weight="bold" text-decoration="normal" x="418" y="812" text-anchor="start" dominant-baseline="alphabetic" fill-opacity="1">–1</text><path fill="none" stroke="rgb(37,37,37)" paint-order="fill stroke markers" d=" M 424.5 796.5 L 424.5 799.5" stroke-opacity="1" stroke-miterlimit="10"/><text fill="rgb(37,37,37)" stroke="none" font-family="geogebra-serif, serif" font-size="12px" font-style="normal" font-weight="bold" text-decoration="normal" x="456" y="812" text-anchor="start" dominant-baseline="alphabetic" fill-opacity="1">–0.8</text><text fill="none" stroke="rgb(255,255,255)" font-family="geogebra-serif, serif" font-size="12px" font-style="normal" font-weight="bold" text-decoration="normal" x="456" y="812" text-anchor="start" dominant-baseline="alphabetic" stroke-opacity="1" stroke-linejoin="bevel" stroke-miterlimit="10" stroke-width="3">–0.8</text><text fill="rgb(37,37,37)" stroke="none" font-family="geogebra-serif, serif" font-size="12px" font-style="normal" font-weight="bold" text-decoration="normal" x="456" y="812" text-anchor="start" dominant-baseline="alphabetic" fill-opacity="1">–0.8</text><path fill="none" stroke="rgb(37,37,37)" paint-order="fill stroke markers" d=" M 469.5 796.5 L 469.5 799.5" stroke-opacity="1" stroke-miterlimit="10"/><text fill="rgb(37,37,37)" stroke="none" font-family="geogebra-serif, serif" font-size="12px" font-style="normal" font-weight="bold" text-decoration="normal" x="501" y="812" text-anchor="start" dominant-baseline="alphabetic" fill-opacity="1">–0.6</text><text fill="none" stroke="rgb(255,255,255)" font-family="geogebra-serif, serif" font-size="12px" font-style="normal" font-weight="bold" text-decoration="normal" x="501" y="812" text-anchor="start" dominant-baseline="alphabetic" stroke-opacity="1" stroke-linejoin="bevel" stroke-miterlimit="10" stroke-width="3">–0.6</text><text fill="rgb(37,37,37)" stroke="none" font-family="geogebra-serif, serif" font-size="12px" font-style="normal" font-weight="bold" text-decoration="normal" x="501" y="812" text-anchor="start" dominant-baseline="alphabetic" fill-opacity="1">–0.6</text><path fill="none" stroke="rgb(37,37,37)" paint-order="fill stroke markers" d=" M 515.5 796.5 L 515.5 799.5" stroke-opacity="1" stroke-miterlimit="10"/><text fill="rgb(37,37,37)" stroke="none" font-family="geogebra-serif, serif" font-size="12px" font-style="normal" font-weight="bold" text-decoration="normal" x="547" y="812" text-anchor="start" dominant-baseline="alphabetic" fill-opacity="1">–0.4</text><text fill="none" stroke="rgb(255,255,255)" font-family="geogebra-serif, serif" font-size="12px" font-style="normal" font-weight="bold" text-decoration="normal" x="547" y="812" text-anchor="start" dominant-baseline="alphabetic" stroke-opacity="1" stroke-linejoin="bevel" stroke-miterlimit="10" stroke-width="3">–0.4</text><text fill="rgb(37,37,37)" stroke="none" font-family="geogebra-serif, serif" font-size="12px" font-style="normal" font-weight="bold" text-decoration="normal" x="547" y="812" text-anchor="start" dominant-baseline="alphabetic" fill-opacity="1">–0.4</text><path fill="none" stroke="rgb(37,37,37)" paint-order="fill stroke markers" d=" M 560.5 796.5 L 560.5 799.5" stroke-opacity="1" stroke-miterlimit="10"/><text fill="rgb(37,37,37)" stroke="none" font-family="geogebra-serif, serif" font-size="12px" font-style="normal" font-weight="bold" text-decoration="normal" x="592" y="812" text-anchor="start" dominant-baseline="alphabetic" fill-opacity="1">–0.2</text><text fill="none" stroke="rgb(255,255,255)" font-family="geogebra-serif, serif" font-size="12px" font-style="normal" font-weight="bold" text-decoration="normal" x="592" y="812" text-anchor="start" dominant-baseline="alphabetic" stroke-opacity="1" stroke-linejoin="bevel" stroke-miterlimit="10" stroke-width="3">–0.2</text><text fill="rgb(37,37,37)" stroke="none" font-family="geogebra-serif, serif" font-size="12px" font-style="normal" font-weight="bold" text-decoration="normal" x="592" y="812" text-anchor="start" dominant-baseline="alphabetic" fill-opacity="1">–0.2</text><path fill="none" stroke="rgb(37,37,37)" paint-order="fill stroke markers" d=" M 605.5 796.5 L 605.5 799.5" stroke-opacity="1" stroke-miterlimit="10"/><path fill="none" stroke="rgb(37,37,37)" paint-order="fill stroke markers" d=" M 651.5 796.5 L 651.5 799.5" stroke-opacity="1" stroke-miterlimit="10"/><text fill="rgb(37,37,37)" stroke="none" font-family="geogebra-serif, serif" font-size="12px" font-style="normal" font-weight="bold" text-decoration="normal" x="686" y="812" text-anchor="start" dominant-baseline="alphabetic" fill-opacity="1">0.2</text><text fill="none" stroke="rgb(255,255,255)" font-family="geogebra-serif, serif" font-size="12px" font-style="normal" font-weight="bold" text-decoration="normal" x="686" y="812" text-anchor="start" dominant-baseline="alphabetic" stroke-opacity="1" stroke-linejoin="bevel" stroke-miterlimit="10" stroke-width="3">0.2</text><text fill="rgb(37,37,37)" stroke="none" font-family="geogebra-serif, serif" font-size="12px" font-style="normal" font-weight="bold" text-decoration="normal" x="686" y="812" text-anchor="start" dominant-baseline="alphabetic" fill-opacity="1">0.2</text><path fill="none" stroke="rgb(37,37,37)" paint-order="fill stroke markers" d=" M 696.5 796.5 L 696.5 799.5" stroke-opacity="1" stroke-miterlimit="10"/><text fill="rgb(37,37,37)" stroke="none" font-family="geogebra-serif, serif" font-size="12px" font-style="normal" font-weight="bold" text-decoration="normal" x="732" y="812" text-anchor="start" dominant-baseline="alphabetic" fill-opacity="1">0.4</text><text fill="none" stroke="rgb(255,255,255)" font-family="geogebra-serif, serif" font-size="12px" font-style="normal" font-weight="bold" text-decoration="normal" x="732" y="812" text-anchor="start" dominant-baseline="alphabetic" stroke-opacity="1" stroke-linejoin="bevel" stroke-miterlimit="10" stroke-width="3">0.4</text><text fill="rgb(37,37,37)" stroke="none" font-family="geogebra-serif, serif" font-size="12px" font-style="normal" font-weight="bold" text-decoration="normal" x="732" y="812" text-anchor="start" dominant-baseline="alphabetic" fill-opacity="1">0.4</text><path fill="none" stroke="rgb(37,37,37)" paint-order="fill stroke markers" d=" M 741.5 796.5 L 741.5 799.5" stroke-opacity="1" stroke-miterlimit="10"/><text fill="rgb(37,37,37)" stroke="none" font-family="geogebra-serif, serif" font-size="12px" font-style="normal" font-weight="bold" text-decoration="normal" x="777" y="812" text-anchor="start" dominant-baseline="alphabetic" fill-opacity="1">0.6</text><text fill="none" stroke="rgb(255,255,255)" font-family="geogebra-serif, serif" font-size="12px" font-style="normal" font-weight="bold" text-decoration="normal" x="777" y="812" text-anchor="start" dominant-baseline="alphabetic" stroke-opacity="1" stroke-linejoin="bevel" stroke-miterlimit="10" stroke-width="3">0.6</text><text fill="rgb(37,37,37)" stroke="none" font-family="geogebra-serif, serif" font-size="12px" font-style="normal" font-weight="bold" text-decoration="normal" x="777" y="812" text-anchor="start" dominant-baseline="alphabetic" fill-opacity="1">0.6</text><path fill="none" stroke="rgb(37,37,37)" paint-order="fill stroke markers" d=" M 787.5 796.5 L 787.5 799.5" stroke-opacity="1" stroke-miterlimit="10"/><text fill="rgb(37,37,37)" stroke="none" font-family="geogebra-serif, serif" font-size="12px" font-style="normal" font-weight="bold" text-decoration="normal" x="822" y="812" text-anchor="start" dominant-baseline="alphabetic" fill-opacity="1">0.8</text><text fill="none" stroke="rgb(255,255,255)" font-family="geogebra-serif, serif" font-size="12px" font-style="normal" font-weight="bold" text-decoration="normal" x="822" y="812" text-anchor="start" dominant-baseline="alphabetic" stroke-opacity="1" stroke-linejoin="bevel" stroke-miterlimit="10" stroke-width="3">0.8</text><text fill="rgb(37,37,37)" stroke="none" font-family="geogebra-serif, serif" font-size="12px" font-style="normal" font-weight="bold" text-decoration="normal" x="822" y="812" text-anchor="start" dominant-baseline="alphabetic" fill-opacity="1">0.8</text><path fill="none" stroke="rgb(37,37,37)" paint-order="fill stroke markers" d=" M 832.5 796.5 L 832.5 799.5" stroke-opacity="1" stroke-miterlimit="10"/><text fill="rgb(37,37,37)" stroke="none" font-family="geogebra-serif, serif" font-size="12px" font-style="normal" font-weight="bold" text-decoration="normal" x="875" y="812" text-anchor="start" dominant-baseline="alphabetic" fill-opacity="1">1</text><text fill="none" stroke="rgb(255,255,255)" font-family="geogebra-serif, serif" font-size="12px" font-style="normal" font-weight="bold" text-decoration="normal" x="875" y="812" text-anchor="start" dominant-baseline="alphabetic" stroke-opacity="1" stroke-linejoin="bevel" stroke-miterlimit="10" stroke-width="3">1</text><text fill="rgb(37,37,37)" stroke="none" font-family="geogebra-serif, serif" font-size="12px" font-style="normal" font-weight="bold" text-decoration="normal" x="875" y="812" text-anchor="start" dominant-baseline="alphabetic" fill-opacity="1">1</text><path fill="none" stroke="rgb(37,37,37)" paint-order="fill stroke markers" d=" M 877.5 796.5 L 877.5 799.5" stroke-opacity="1" stroke-miterlimit="10"/><text fill="rgb(37,37,37)" stroke="none" font-family="geogebra-serif, serif" font-size="12px" font-style="normal" font-weight="bold" text-decoration="normal" x="913" y="812" text-anchor="start" dominant-baseline="alphabetic" fill-opacity="1">1.2</text><text fill="none" stroke="rgb(255,255,255)" font-family="geogebra-serif, serif" font-size="12px" font-style="normal" font-weight="bold" text-decoration="normal" x="913" y="812" text-anchor="start" dominant-baseline="alphabetic" stroke-opacity="1" stroke-linejoin="bevel" stroke-miterlimit="10" stroke-width="3">1.2</text><text fill="rgb(37,37,37)" stroke="none" font-family="geogebra-serif, serif" font-size="12px" font-style="normal" font-weight="bold" text-decoration="normal" x="913" y="812" text-anchor="start" dominant-baseline="alphabetic" fill-opacity="1">1.2</text><path fill="none" stroke="rgb(37,37,37)" paint-order="fill stroke markers" d=" M 923.5 796.5 L 923.5 799.5" stroke-opacity="1" stroke-miterlimit="10"/><text fill="rgb(37,37,37)" stroke="none" font-family="geogebra-serif, serif" font-size="12px" font-style="normal" font-weight="bold" text-decoration="normal" x="958" y="812" text-anchor="start" dominant-baseline="alphabetic" fill-opacity="1">1.4</text><text fill="none" stroke="rgb(255,255,255)" font-family="geogebra-serif, serif" font-size="12px" font-style="normal" font-weight="bold" text-decoration="normal" x="958" y="812" text-anchor="start" dominant-baseline="alphabetic" stroke-opacity="1" stroke-linejoin="bevel" stroke-miterlimit="10" stroke-width="3">1.4</text><text fill="rgb(37,37,37)" stroke="none" font-family="geogebra-serif, serif" font-size="12px" font-style="normal" font-weight="bold" text-decoration="normal" x="958" y="812" text-anchor="start" dominant-baseline="alphabetic" fill-opacity="1">1.4</text><path fill="none" stroke="rgb(37,37,37)" paint-order="fill stroke markers" d=" M 968.5 796.5 L 968.5 799.5" stroke-opacity="1" stroke-miterlimit="10"/><text fill="rgb(37,37,37)" stroke="none" font-family="geogebra-serif, serif" font-size="12px" font-style="normal" font-weight="bold" text-decoration="normal" x="1003" y="812" text-anchor="start" dominant-baseline="alphabetic" fill-opacity="1">1.6</text><text fill="none" stroke="rgb(255,255,255)" font-family="geogebra-serif, serif" font-size="12px" font-style="normal" font-weight="bold" text-decoration="normal" x="1003" y="812" text-anchor="start" dominant-baseline="alphabetic" stroke-opacity="1" stroke-linejoin="bevel" stroke-miterlimit="10" stroke-width="3">1.6</text><text fill="rgb(37,37,37)" stroke="none" font-family="geogebra-serif, serif" font-size="12px" font-style="normal" font-weight="bold" text-decoration="normal" x="1003" y="812" text-anchor="start" dominant-baseline="alphabetic" fill-opacity="1">1.6</text><path fill="none" stroke="rgb(37,37,37)" paint-order="fill stroke markers" d=" M 1013.5 796.5 L 1013.5 799.5" stroke-opacity="1" stroke-miterlimit="10"/><text fill="rgb(37,37,37)" stroke="none" font-family="geogebra-serif, serif" font-size="12px" font-style="normal" font-weight="bold" text-decoration="normal" x="1049" y="812" text-anchor="start" dominant-baseline="alphabetic" fill-opacity="1">1.8</text><text fill="none" stroke="rgb(255,255,255)" font-family="geogebra-serif, serif" font-size="12px" font-style="normal" font-weight="bold" text-decoration="normal" x="1049" y="812" text-anchor="start" dominant-baseline="alphabetic" stroke-opacity="1" stroke-linejoin="bevel" stroke-miterlimit="10" stroke-width="3">1.8</text><text fill="rgb(37,37,37)" stroke="none" font-family="geogebra-serif, serif" font-size="12px" font-style="normal" font-weight="bold" text-decoration="normal" x="1049" y="812" text-anchor="start" dominant-baseline="alphabetic" fill-opacity="1">1.8</text><path fill="none" stroke="rgb(37,37,37)" paint-order="fill stroke markers" d=" M 1058.5 796.5 L 1058.5 799.5" stroke-opacity="1" stroke-miterlimit="10"/><text fill="rgb(37,37,37)" stroke="none" font-family="geogebra-serif, serif" font-size="12px" font-style="normal" font-weight="bold" text-decoration="normal" x="1101" y="812" text-anchor="start" dominant-baseline="alphabetic" fill-opacity="1">2</text><text fill="none" stroke="rgb(255,255,255)" font-family="geogebra-serif, serif" font-size="12px" font-style="normal" font-weight="bold" text-decoration="normal" x="1101" y="812" text-anchor="start" dominant-baseline="alphabetic" stroke-opacity="1" stroke-linejoin="bevel" stroke-miterlimit="10" stroke-width="3">2</text><text fill="rgb(37,37,37)" stroke="none" font-family="geogebra-serif, serif" font-size="12px" font-style="normal" font-weight="bold" text-decoration="normal" x="1101" y="812" text-anchor="start" dominant-baseline="alphabetic" fill-opacity="1">2</text><path fill="none" stroke="rgb(37,37,37)" paint-order="fill stroke markers" d=" M 1104.5 796.5 L 1104.5 799.5" stroke-opacity="1" stroke-miterlimit="10"/><text fill="rgb(37,37,37)" stroke="none" font-family="geogebra-serif, serif" font-size="12px" font-style="normal" font-weight="bold" text-decoration="normal" x="1139" y="812" text-anchor="start" dominant-baseline="alphabetic" fill-opacity="1">2.2</text><text fill="none" stroke="rgb(255,255,255)" font-family="geogebra-serif, serif" font-size="12px" font-style="normal" font-weight="bold" text-decoration="normal" x="1139" y="812" text-anchor="start" dominant-baseline="alphabetic" stroke-opacity="1" stroke-linejoin="bevel" stroke-miterlimit="10" stroke-width="3">2.2</text><text fill="rgb(37,37,37)" stroke="none" font-family="geogebra-serif, serif" font-size="12px" font-style="normal" font-weight="bold" text-decoration="normal" x="1139" y="812" text-anchor="start" dominant-baseline="alphabetic" fill-opacity="1">2.2</text><path fill="none" stroke="rgb(37,37,37)" paint-order="fill stroke markers" d=" M 1149.5 796.5 L 1149.5 799.5" stroke-opacity="1" stroke-miterlimit="10"/><text fill="rgb(37,37,37)" stroke="none" font-family="geogebra-serif, serif" font-size="12px" font-style="normal" font-weight="bold" text-decoration="normal" x="1185" y="812" text-anchor="start" dominant-baseline="alphabetic" fill-opacity="1">2.4</text><text fill="none" stroke="rgb(255,255,255)" font-family="geogebra-serif, serif" font-size="12px" font-style="normal" font-weight="bold" text-decoration="normal" x="1185" y="812" text-anchor="start" dominant-baseline="alphabetic" stroke-opacity="1" stroke-linejoin="bevel" stroke-miterlimit="10" stroke-width="3">2.4</text><text fill="rgb(37,37,37)" stroke="none" font-family="geogebra-serif, serif" font-size="12px" font-style="normal" font-weight="bold" text-decoration="normal" x="1185" y="812" text-anchor="start" dominant-baseline="alphabetic" fill-opacity="1">2.4</text><path fill="none" stroke="rgb(37,37,37)" paint-order="fill stroke markers" d=" M 1194.5 796.5 L 1194.5 799.5" stroke-opacity="1" stroke-miterlimit="10"/><text fill="rgb(37,37,37)" stroke="none" font-family="geogebra-serif, serif" font-size="12px" font-style="normal" font-weight="bold" text-decoration="normal" x="1230" y="812" text-anchor="start" dominant-baseline="alphabetic" fill-opacity="1">2.6</text><text fill="none" stroke="rgb(255,255,255)" font-family="geogebra-serif, serif" font-size="12px" font-style="normal" font-weight="bold" text-decoration="normal" x="1230" y="812" text-anchor="start" dominant-baseline="alphabetic" stroke-opacity="1" stroke-linejoin="bevel" stroke-miterlimit="10" stroke-width="3">2.6</text><text fill="rgb(37,37,37)" stroke="none" font-family="geogebra-serif, serif" font-size="12px" font-style="normal" font-weight="bold" text-decoration="normal" x="1230" y="812" text-anchor="start" dominant-baseline="alphabetic" fill-opacity="1">2.6</text><path fill="none" stroke="rgb(37,37,37)" paint-order="fill stroke markers" d=" M 1240.5 796.5 L 1240.5 799.5" stroke-opacity="1" stroke-miterlimit="10"/><text fill="rgb(37,37,37)" stroke="none" font-family="geogebra-serif, serif" font-size="12px" font-style="normal" font-weight="bold" text-decoration="normal" x="1275" y="812" text-anchor="start" dominant-baseline="alphabetic" fill-opacity="1">2.8</text><text fill="none" stroke="rgb(255,255,255)" font-family="geogebra-serif, serif" font-size="12px" font-style="normal" font-weight="bold" text-decoration="normal" x="1275" y="812" text-anchor="start" dominant-baseline="alphabetic" stroke-opacity="1" stroke-linejoin="bevel" stroke-miterlimit="10" stroke-width="3">2.8</text><text fill="rgb(37,37,37)" stroke="none" font-family="geogebra-serif, serif" font-size="12px" font-style="normal" font-weight="bold" text-decoration="normal" x="1275" y="812" text-anchor="start" dominant-baseline="alphabetic" fill-opacity="1">2.8</text><path fill="none" stroke="rgb(37,37,37)" paint-order="fill stroke markers" d=" M 1285.5 796.5 L 1285.5 799.5" stroke-opacity="1" stroke-miterlimit="10"/><text fill="rgb(37,37,37)" stroke="none" font-family="geogebra-serif, serif" font-size="12px" font-style="normal" font-weight="bold" text-decoration="normal" x="1328" y="812" text-anchor="start" dominant-baseline="alphabetic" fill-opacity="1">3</text><text fill="none" stroke="rgb(255,255,255)" font-family="geogebra-serif, serif" font-size="12px" font-style="normal" font-weight="bold" text-decoration="normal" x="1328" y="812" text-anchor="start" dominant-baseline="alphabetic" stroke-opacity="1" stroke-linejoin="bevel" stroke-miterlimit="10" stroke-width="3">3</text><text fill="rgb(37,37,37)" stroke="none" font-family="geogebra-serif, serif" font-size="12px" font-style="normal" font-weight="bold" text-decoration="normal" x="1328" y="812" text-anchor="start" dominant-baseline="alphabetic" fill-opacity="1">3</text><path fill="none" stroke="rgb(37,37,37)" paint-order="fill stroke markers" d=" M 1330.5 796.5 L 1330.5 799.5" stroke-opacity="1" stroke-miterlimit="10"/><text fill="rgb(37,37,37)" stroke="none" font-family="geogebra-serif, serif" font-size="12px" font-style="normal" font-weight="bold" text-decoration="normal" x="1366" y="812" text-anchor="start" dominant-baseline="alphabetic" fill-opacity="1">3.2</text><text fill="none" stroke="rgb(255,255,255)" font-family="geogebra-serif, serif" font-size="12px" font-style="normal" font-weight="bold" text-decoration="normal" x="1366" y="812" text-anchor="start" dominant-baseline="alphabetic" stroke-opacity="1" stroke-linejoin="bevel" stroke-miterlimit="10" stroke-width="3">3.2</text><text fill="rgb(37,37,37)" stroke="none" font-family="geogebra-serif, serif" font-size="12px" font-style="normal" font-weight="bold" text-decoration="normal" x="1366" y="812" text-anchor="start" dominant-baseline="alphabetic" fill-opacity="1">3.2</text><path fill="none" stroke="rgb(37,37,37)" paint-order="fill stroke markers" d=" M 1376.5 796.5 L 1376.5 799.5" stroke-opacity="1" stroke-miterlimit="10"/><text fill="rgb(37,37,37)" stroke="none" font-family="geogebra-serif, serif" font-size="12px" font-style="normal" font-weight="bold" text-decoration="normal" x="1411" y="812" text-anchor="start" dominant-baseline="alphabetic" fill-opacity="1">3.4</text><text fill="none" stroke="rgb(255,255,255)" font-family="geogebra-serif, serif" font-size="12px" font-style="normal" font-weight="bold" text-decoration="normal" x="1411" y="812" text-anchor="start" dominant-baseline="alphabetic" stroke-opacity="1" stroke-linejoin="bevel" stroke-miterlimit="10" stroke-width="3">3.4</text><text fill="rgb(37,37,37)" stroke="none" font-family="geogebra-serif, serif" font-size="12px" font-style="normal" font-weight="bold" text-decoration="normal" x="1411" y="812" text-anchor="start" dominant-baseline="alphabetic" fill-opacity="1">3.4</text><path fill="none" stroke="rgb(37,37,37)" paint-order="fill stroke markers" d=" M 1421.5 796.5 L 1421.5 799.5" stroke-opacity="1" stroke-miterlimit="10"/><text fill="rgb(37,37,37)" stroke="none" font-family="geogebra-serif, serif" font-size="12px" font-style="normal" font-weight="bold" text-decoration="normal" x="1456" y="812" text-anchor="start" dominant-baseline="alphabetic" fill-opacity="1">3.6</text><text fill="none" stroke="rgb(255,255,255)" font-family="geogebra-serif, serif" font-size="12px" font-style="normal" font-weight="bold" text-decoration="normal" x="1456" y="812" text-anchor="start" dominant-baseline="alphabetic" stroke-opacity="1" stroke-linejoin="bevel" stroke-miterlimit="10" stroke-width="3">3.6</text><text fill="rgb(37,37,37)" stroke="none" font-family="geogebra-serif, serif" font-size="12px" font-style="normal" font-weight="bold" text-decoration="normal" x="1456" y="812" text-anchor="start" dominant-baseline="alphabetic" fill-opacity="1">3.6</text><path fill="none" stroke="rgb(37,37,37)" paint-order="fill stroke markers" d=" M 1466.5 796.5 L 1466.5 799.5" stroke-opacity="1" stroke-miterlimit="10"/><text fill="rgb(37,37,37)" stroke="none" font-family="geogebra-serif, serif" font-size="12px" font-style="normal" font-weight="bold" text-decoration="normal" x="1502" y="812" text-anchor="start" dominant-baseline="alphabetic" fill-opacity="1">3.8</text><text fill="none" stroke="rgb(255,255,255)" font-family="geogebra-serif, serif" font-size="12px" font-style="normal" font-weight="bold" text-decoration="normal" x="1502" y="812" text-anchor="start" dominant-baseline="alphabetic" stroke-opacity="1" stroke-linejoin="bevel" stroke-miterlimit="10" stroke-width="3">3.8</text><text fill="rgb(37,37,37)" stroke="none" font-family="geogebra-serif, serif" font-size="12px" font-style="normal" font-weight="bold" text-decoration="normal" x="1502" y="812" text-anchor="start" dominant-baseline="alphabetic" fill-opacity="1">3.8</text><path fill="none" stroke="rgb(37,37,37)" paint-order="fill stroke markers" d=" M 1511.5 796.5 L 1511.5 799.5" stroke-opacity="1" stroke-miterlimit="10"/><text fill="rgb(37,37,37)" stroke="none" font-family="geogebra-serif, serif" font-size="12px" font-style="normal" font-weight="bold" text-decoration="normal" x="1554" y="812" text-anchor="start" dominant-baseline="alphabetic" fill-opacity="1">4</text><text fill="none" stroke="rgb(255,255,255)" font-family="geogebra-serif, serif" font-size="12px" font-style="normal" font-weight="bold" text-decoration="normal" x="1554" y="812" text-anchor="start" dominant-baseline="alphabetic" stroke-opacity="1" stroke-linejoin="bevel" stroke-miterlimit="10" stroke-width="3">4</text><text fill="rgb(37,37,37)" stroke="none" font-family="geogebra-serif, serif" font-size="12px" font-style="normal" font-weight="bold" text-decoration="normal" x="1554" y="812" text-anchor="start" dominant-baseline="alphabetic" fill-opacity="1">4</text><path fill="none" stroke="rgb(37,37,37)" paint-order="fill stroke markers" d=" M 1557.5 796.5 L 1557.5 799.5" stroke-opacity="1" stroke-miterlimit="10"/><path fill="none" stroke="rgb(37,37,37)" paint-order="fill stroke markers" d=" M 648.5 887.5 L 651.5 887.5" stroke-opacity="1" stroke-miterlimit="10"/><path fill="none" stroke="rgb(37,37,37)" paint-order="fill stroke markers" d=" M 648.5 841.5 L 651.5 841.5" stroke-opacity="1" stroke-miterlimit="10"/><path fill="none" stroke="rgb(37,37,37)" paint-order="fill stroke markers" d=" M 648.5 751.5 L 651.5 751.5" stroke-opacity="1" stroke-miterlimit="10"/><path fill="none" stroke="rgb(37,37,37)" paint-order="fill stroke markers" d=" M 648.5 705.5 L 651.5 705.5" stroke-opacity="1" stroke-miterlimit="10"/><path fill="none" stroke="rgb(37,37,37)" paint-order="fill stroke markers" d=" M 648.5 660.5 L 651.5 660.5" stroke-opacity="1" stroke-miterlimit="10"/><path fill="none" stroke="rgb(37,37,37)" paint-order="fill stroke markers" d=" M 648.5 615.5 L 651.5 615.5" stroke-opacity="1" stroke-miterlimit="10"/><path fill="none" stroke="rgb(37,37,37)" paint-order="fill stroke markers" d=" M 648.5 570.5 L 651.5 570.5" stroke-opacity="1" stroke-miterlimit="10"/><path fill="none" stroke="rgb(37,37,37)" paint-order="fill stroke markers" d=" M 648.5 524.5 L 651.5 524.5" stroke-opacity="1" stroke-miterlimit="10"/><path fill="none" stroke="rgb(37,37,37)" paint-order="fill stroke markers" d=" M 648.5 479.5 L 651.5 479.5" stroke-opacity="1" stroke-miterlimit="10"/><path fill="none" stroke="rgb(37,37,37)" paint-order="fill stroke markers" d=" M 648.5 434.5 L 651.5 434.5" stroke-opacity="1" stroke-miterlimit="10"/><path fill="none" stroke="rgb(37,37,37)" paint-order="fill stroke markers" d=" M 648.5 388.5 L 651.5 388.5" stroke-opacity="1" stroke-miterlimit="10"/><path fill="none" stroke="rgb(37,37,37)" paint-order="fill stroke markers" d=" M 648.5 343.5 L 651.5 343.5" stroke-opacity="1" stroke-miterlimit="10"/><path fill="none" stroke="rgb(37,37,37)" paint-order="fill stroke markers" d=" M 648.5 298.5 L 651.5 298.5" stroke-opacity="1" stroke-miterlimit="10"/><path fill="none" stroke="rgb(37,37,37)" paint-order="fill stroke markers" d=" M 648.5 252.5 L 651.5 252.5" stroke-opacity="1" stroke-miterlimit="10"/><path fill="none" stroke="rgb(37,37,37)" paint-order="fill stroke markers" d=" M 648.5 207.5 L 651.5 207.5" stroke-opacity="1" stroke-miterlimit="10"/><path fill="none" stroke="rgb(37,37,37)" paint-order="fill stroke markers" d=" M 648.5 162.5 L 651.5 162.5" stroke-opacity="1" stroke-miterlimit="10"/><path fill="none" stroke="rgb(37,37,37)" paint-order="fill stroke markers" d=" M 648.5 117.5 L 651.5 117.5" stroke-opacity="1" stroke-miterlimit="10"/><path fill="none" stroke="rgb(37,37,37)" paint-order="fill stroke markers" d=" M 648.5 71.5 L 651.5 71.5" stroke-opacity="1" stroke-miterlimit="10"/><path fill="none" stroke="rgb(37,37,37)" paint-order="fill stroke markers" d=" M 648.5 26.5 L 651.5 26.5" stroke-opacity="1" stroke-miterlimit="10"/><text fill="rgb(37,37,37)" stroke="none" font-family="geogebra-serif, serif" font-size="12px" font-style="normal" font-weight="bold" text-decoration="normal" x="623" y="892" text-anchor="start" dominant-baseline="alphabetic" fill-opacity="1">–0.4</text><text fill="none" stroke="rgb(255,255,255)" font-family="geogebra-serif, serif" font-size="12px" font-style="normal" font-weight="bold" text-decoration="normal" x="623" y="892" text-anchor="start" dominant-baseline="alphabetic" stroke-opacity="1" stroke-linejoin="bevel" stroke-miterlimit="10" stroke-width="3">–0.4</text><text fill="rgb(37,37,37)" stroke="none" font-family="geogebra-serif, serif" font-size="12px" font-style="normal" font-weight="bold" text-decoration="normal" x="623" y="892" text-anchor="start" dominant-baseline="alphabetic" fill-opacity="1">–0.4</text><text fill="rgb(37,37,37)" stroke="none" font-family="geogebra-serif, serif" font-size="12px" font-style="normal" font-weight="bold" text-decoration="normal" x="623" y="846" text-anchor="start" dominant-baseline="alphabetic" fill-opacity="1">–0.2</text><text fill="none" stroke="rgb(255,255,255)" font-family="geogebra-serif, serif" font-size="12px" font-style="normal" font-weight="bold" text-decoration="normal" x="623" y="846" text-anchor="start" dominant-baseline="alphabetic" stroke-opacity="1" stroke-linejoin="bevel" stroke-miterlimit="10" stroke-width="3">–0.2</text><text fill="rgb(37,37,37)" stroke="none" font-family="geogebra-serif, serif" font-size="12px" font-style="normal" font-weight="bold" text-decoration="normal" x="623" y="846" text-anchor="start" dominant-baseline="alphabetic" fill-opacity="1">–0.2</text><text fill="rgb(37,37,37)" stroke="none" font-family="geogebra-serif, serif" font-size="12px" font-style="normal" font-weight="bold" text-decoration="normal" x="629" y="756" text-anchor="start" dominant-baseline="alphabetic" fill-opacity="1">0.2</text><text fill="none" stroke="rgb(255,255,255)" font-family="geogebra-serif, serif" font-size="12px" font-style="normal" font-weight="bold" text-decoration="normal" x="629" y="756" text-anchor="start" dominant-baseline="alphabetic" stroke-opacity="1" stroke-linejoin="bevel" stroke-miterlimit="10" stroke-width="3">0.2</text><text fill="rgb(37,37,37)" stroke="none" font-family="geogebra-serif, serif" font-size="12px" font-style="normal" font-weight="bold" text-decoration="normal" x="629" y="756" text-anchor="start" dominant-baseline="alphabetic" fill-opacity="1">0.2</text><text fill="rgb(37,37,37)" stroke="none" font-family="geogebra-serif, serif" font-size="12px" font-style="normal" font-weight="bold" text-decoration="normal" x="629" y="710" text-anchor="start" dominant-baseline="alphabetic" fill-opacity="1">0.4</text><text fill="none" stroke="rgb(255,255,255)" font-family="geogebra-serif, serif" font-size="12px" font-style="normal" font-weight="bold" text-decoration="normal" x="629" y="710" text-anchor="start" dominant-baseline="alphabetic" stroke-opacity="1" stroke-linejoin="bevel" stroke-miterlimit="10" stroke-width="3">0.4</text><text fill="rgb(37,37,37)" stroke="none" font-family="geogebra-serif, serif" font-size="12px" font-style="normal" font-weight="bold" text-decoration="normal" x="629" y="710" text-anchor="start" dominant-baseline="alphabetic" fill-opacity="1">0.4</text><text fill="rgb(37,37,37)" stroke="none" font-family="geogebra-serif, serif" font-size="12px" font-style="normal" font-weight="bold" text-decoration="normal" x="629" y="665" text-anchor="start" dominant-baseline="alphabetic" fill-opacity="1">0.6</text><text fill="none" stroke="rgb(255,255,255)" font-family="geogebra-serif, serif" font-size="12px" font-style="normal" font-weight="bold" text-decoration="normal" x="629" y="665" text-anchor="start" dominant-baseline="alphabetic" stroke-opacity="1" stroke-linejoin="bevel" stroke-miterlimit="10" stroke-width="3">0.6</text><text fill="rgb(37,37,37)" stroke="none" font-family="geogebra-serif, serif" font-size="12px" font-style="normal" font-weight="bold" text-decoration="normal" x="629" y="665" text-anchor="start" dominant-baseline="alphabetic" fill-opacity="1">0.6</text><text fill="rgb(37,37,37)" stroke="none" font-family="geogebra-serif, serif" font-size="12px" font-style="normal" font-weight="bold" text-decoration="normal" x="629" y="620" text-anchor="start" dominant-baseline="alphabetic" fill-opacity="1">0.8</text><text fill="none" stroke="rgb(255,255,255)" font-family="geogebra-serif, serif" font-size="12px" font-style="normal" font-weight="bold" text-decoration="normal" x="629" y="620" text-anchor="start" dominant-baseline="alphabetic" stroke-opacity="1" stroke-linejoin="bevel" stroke-miterlimit="10" stroke-width="3">0.8</text><text fill="rgb(37,37,37)" stroke="none" font-family="geogebra-serif, serif" font-size="12px" font-style="normal" font-weight="bold" text-decoration="normal" x="629" y="620" text-anchor="start" dominant-baseline="alphabetic" fill-opacity="1">0.8</text><text fill="rgb(37,37,37)" stroke="none" font-family="geogebra-serif, serif" font-size="12px" font-style="normal" font-weight="bold" text-decoration="normal" x="638" y="575" text-anchor="start" dominant-baseline="alphabetic" fill-opacity="1">1</text><text fill="none" stroke="rgb(255,255,255)" font-family="geogebra-serif, serif" font-size="12px" font-style="normal" font-weight="bold" text-decoration="normal" x="638" y="575" text-anchor="start" dominant-baseline="alphabetic" stroke-opacity="1" stroke-linejoin="bevel" stroke-miterlimit="10" stroke-width="3">1</text><text fill="rgb(37,37,37)" stroke="none" font-family="geogebra-serif, serif" font-size="12px" font-style="normal" font-weight="bold" text-decoration="normal" x="638" y="575" text-anchor="start" dominant-baseline="alphabetic" fill-opacity="1">1</text><text fill="rgb(37,37,37)" stroke="none" font-family="geogebra-serif, serif" font-size="12px" font-style="normal" font-weight="bold" text-decoration="normal" x="629" y="529" text-anchor="start" dominant-baseline="alphabetic" fill-opacity="1">1.2</text><text fill="none" stroke="rgb(255,255,255)" font-family="geogebra-serif, serif" font-size="12px" font-style="normal" font-weight="bold" text-decoration="normal" x="629" y="529" text-anchor="start" dominant-baseline="alphabetic" stroke-opacity="1" stroke-linejoin="bevel" stroke-miterlimit="10" stroke-width="3">1.2</text><text fill="rgb(37,37,37)" stroke="none" font-family="geogebra-serif, serif" font-size="12px" font-style="normal" font-weight="bold" text-decoration="normal" x="629" y="529" text-anchor="start" dominant-baseline="alphabetic" fill-opacity="1">1.2</text><text fill="rgb(37,37,37)" stroke="none" font-family="geogebra-serif, serif" font-size="12px" font-style="normal" font-weight="bold" text-decoration="normal" x="629" y="484" text-anchor="start" dominant-baseline="alphabetic" fill-opacity="1">1.4</text><text fill="none" stroke="rgb(255,255,255)" font-family="geogebra-serif, serif" font-size="12px" font-style="normal" font-weight="bold" text-decoration="normal" x="629" y="484" text-anchor="start" dominant-baseline="alphabetic" stroke-opacity="1" stroke-linejoin="bevel" stroke-miterlimit="10" stroke-width="3">1.4</text><text fill="rgb(37,37,37)" stroke="none" font-family="geogebra-serif, serif" font-size="12px" font-style="normal" font-weight="bold" text-decoration="normal" x="629" y="484" text-anchor="start" dominant-baseline="alphabetic" fill-opacity="1">1.4</text><text fill="rgb(37,37,37)" stroke="none" font-family="geogebra-serif, serif" font-size="12px" font-style="normal" font-weight="bold" text-decoration="normal" x="629" y="439" text-anchor="start" dominant-baseline="alphabetic" fill-opacity="1">1.6</text><text fill="none" stroke="rgb(255,255,255)" font-family="geogebra-serif, serif" font-size="12px" font-style="normal" font-weight="bold" text-decoration="normal" x="629" y="439" text-anchor="start" dominant-baseline="alphabetic" stroke-opacity="1" stroke-linejoin="bevel" stroke-miterlimit="10" stroke-width="3">1.6</text><text fill="rgb(37,37,37)" stroke="none" font-family="geogebra-serif, serif" font-size="12px" font-style="normal" font-weight="bold" text-decoration="normal" x="629" y="439" text-anchor="start" dominant-baseline="alphabetic" fill-opacity="1">1.6</text><text fill="rgb(37,37,37)" stroke="none" font-family="geogebra-serif, serif" font-size="12px" font-style="normal" font-weight="bold" text-decoration="normal" x="629" y="393" text-anchor="start" dominant-baseline="alphabetic" fill-opacity="1">1.8</text><text fill="none" stroke="rgb(255,255,255)" font-family="geogebra-serif, serif" font-size="12px" font-style="normal" font-weight="bold" text-decoration="normal" x="629" y="393" text-anchor="start" dominant-baseline="alphabetic" stroke-opacity="1" stroke-linejoin="bevel" stroke-miterlimit="10" stroke-width="3">1.8</text><text fill="rgb(37,37,37)" stroke="none" font-family="geogebra-serif, serif" font-size="12px" font-style="normal" font-weight="bold" text-decoration="normal" x="629" y="393" text-anchor="start" dominant-baseline="alphabetic" fill-opacity="1">1.8</text><text fill="rgb(37,37,37)" stroke="none" font-family="geogebra-serif, serif" font-size="12px" font-style="normal" font-weight="bold" text-decoration="normal" x="638" y="348" text-anchor="start" dominant-baseline="alphabetic" fill-opacity="1">2</text><text fill="none" stroke="rgb(255,255,255)" font-family="geogebra-serif, serif" font-size="12px" font-style="normal" font-weight="bold" text-decoration="normal" x="638" y="348" text-anchor="start" dominant-baseline="alphabetic" stroke-opacity="1" stroke-linejoin="bevel" stroke-miterlimit="10" stroke-width="3">2</text><text fill="rgb(37,37,37)" stroke="none" font-family="geogebra-serif, serif" font-size="12px" font-style="normal" font-weight="bold" text-decoration="normal" x="638" y="348" text-anchor="start" dominant-baseline="alphabetic" fill-opacity="1">2</text><text fill="rgb(37,37,37)" stroke="none" font-family="geogebra-serif, serif" font-size="12px" font-style="normal" font-weight="bold" text-decoration="normal" x="629" y="303" text-anchor="start" dominant-baseline="alphabetic" fill-opacity="1">2.2</text><text fill="none" stroke="rgb(255,255,255)" font-family="geogebra-serif, serif" font-size="12px" font-style="normal" font-weight="bold" text-decoration="normal" x="629" y="303" text-anchor="start" dominant-baseline="alphabetic" stroke-opacity="1" stroke-linejoin="bevel" stroke-miterlimit="10" stroke-width="3">2.2</text><text fill="rgb(37,37,37)" stroke="none" font-family="geogebra-serif, serif" font-size="12px" font-style="normal" font-weight="bold" text-decoration="normal" x="629" y="303" text-anchor="start" dominant-baseline="alphabetic" fill-opacity="1">2.2</text><text fill="rgb(37,37,37)" stroke="none" font-family="geogebra-serif, serif" font-size="12px" font-style="normal" font-weight="bold" text-decoration="normal" x="629" y="257" text-anchor="start" dominant-baseline="alphabetic" fill-opacity="1">2.4</text><text fill="none" stroke="rgb(255,255,255)" font-family="geogebra-serif, serif" font-size="12px" font-style="normal" font-weight="bold" text-decoration="normal" x="629" y="257" text-anchor="start" dominant-baseline="alphabetic" stroke-opacity="1" stroke-linejoin="bevel" stroke-miterlimit="10" stroke-width="3">2.4</text><text fill="rgb(37,37,37)" stroke="none" font-family="geogebra-serif, serif" font-size="12px" font-style="normal" font-weight="bold" text-decoration="normal" x="629" y="257" text-anchor="start" dominant-baseline="alphabetic" fill-opacity="1">2.4</text><text fill="rgb(37,37,37)" stroke="none" font-family="geogebra-serif, serif" font-size="12px" font-style="normal" font-weight="bold" text-decoration="normal" x="629" y="212" text-anchor="start" dominant-baseline="alphabetic" fill-opacity="1">2.6</text><text fill="none" stroke="rgb(255,255,255)" font-family="geogebra-serif, serif" font-size="12px" font-style="normal" font-weight="bold" text-decoration="normal" x="629" y="212" text-anchor="start" dominant-baseline="alphabetic" stroke-opacity="1" stroke-linejoin="bevel" stroke-miterlimit="10" stroke-width="3">2.6</text><text fill="rgb(37,37,37)" stroke="none" font-family="geogebra-serif, serif" font-size="12px" font-style="normal" font-weight="bold" text-decoration="normal" x="629" y="212" text-anchor="start" dominant-baseline="alphabetic" fill-opacity="1">2.6</text><text fill="rgb(37,37,37)" stroke="none" font-family="geogebra-serif, serif" font-size="12px" font-style="normal" font-weight="bold" text-decoration="normal" x="629" y="167" text-anchor="start" dominant-baseline="alphabetic" fill-opacity="1">2.8</text><text fill="none" stroke="rgb(255,255,255)" font-family="geogebra-serif, serif" font-size="12px" font-style="normal" font-weight="bold" text-decoration="normal" x="629" y="167" text-anchor="start" dominant-baseline="alphabetic" stroke-opacity="1" stroke-linejoin="bevel" stroke-miterlimit="10" stroke-width="3">2.8</text><text fill="rgb(37,37,37)" stroke="none" font-family="geogebra-serif, serif" font-size="12px" font-style="normal" font-weight="bold" text-decoration="normal" x="629" y="167" text-anchor="start" dominant-baseline="alphabetic" fill-opacity="1">2.8</text><text fill="rgb(37,37,37)" stroke="none" font-family="geogebra-serif, serif" font-size="12px" font-style="normal" font-weight="bold" text-decoration="normal" x="638" y="122" text-anchor="start" dominant-baseline="alphabetic" fill-opacity="1">3</text><text fill="none" stroke="rgb(255,255,255)" font-family="geogebra-serif, serif" font-size="12px" font-style="normal" font-weight="bold" text-decoration="normal" x="638" y="122" text-anchor="start" dominant-baseline="alphabetic" stroke-opacity="1" stroke-linejoin="bevel" stroke-miterlimit="10" stroke-width="3">3</text><text fill="rgb(37,37,37)" stroke="none" font-family="geogebra-serif, serif" font-size="12px" font-style="normal" font-weight="bold" text-decoration="normal" x="638" y="122" text-anchor="start" dominant-baseline="alphabetic" fill-opacity="1">3</text><text fill="rgb(37,37,37)" stroke="none" font-family="geogebra-serif, serif" font-size="12px" font-style="normal" font-weight="bold" text-decoration="normal" x="629" y="76" text-anchor="start" dominant-baseline="alphabetic" fill-opacity="1">3.2</text><text fill="none" stroke="rgb(255,255,255)" font-family="geogebra-serif, serif" font-size="12px" font-style="normal" font-weight="bold" text-decoration="normal" x="629" y="76" text-anchor="start" dominant-baseline="alphabetic" stroke-opacity="1" stroke-linejoin="bevel" stroke-miterlimit="10" stroke-width="3">3.2</text><text fill="rgb(37,37,37)" stroke="none" font-family="geogebra-serif, serif" font-size="12px" font-style="normal" font-weight="bold" text-decoration="normal" x="629" y="76" text-anchor="start" dominant-baseline="alphabetic" fill-opacity="1">3.2</text><text fill="rgb(37,37,37)" stroke="none" font-family="geogebra-serif, serif" font-size="12px" font-style="normal" font-weight="bold" text-decoration="normal" x="629" y="31" text-anchor="start" dominant-baseline="alphabetic" fill-opacity="1">3.4</text><text fill="none" stroke="rgb(255,255,255)" font-family="geogebra-serif, serif" font-size="12px" font-style="normal" font-weight="bold" text-decoration="normal" x="629" y="31" text-anchor="start" dominant-baseline="alphabetic" stroke-opacity="1" stroke-linejoin="bevel" stroke-miterlimit="10" stroke-width="3">3.4</text><text fill="rgb(37,37,37)" stroke="none" font-family="geogebra-serif, serif" font-size="12px" font-style="normal" font-weight="bold" text-decoration="normal" x="629" y="31" text-anchor="start" dominant-baseline="alphabetic" fill-opacity="1">3.4</text><text fill="rgb(37,37,37)" stroke="none" font-family="geogebra-serif, serif" font-size="12px" font-style="normal" font-weight="bold" text-decoration="normal" x="638" y="812" text-anchor="start" dominant-baseline="alphabetic" fill-opacity="1">0</text><text fill="none" stroke="rgb(255,255,255)" font-family="geogebra-serif, serif" font-size="12px" font-style="normal" font-weight="bold" text-decoration="normal" x="638" y="812" text-anchor="start" dominant-baseline="alphabetic" stroke-opacity="1" stroke-linejoin="bevel" stroke-miterlimit="10" stroke-width="3">0</text><text fill="rgb(37,37,37)" stroke="none" font-family="geogebra-serif, serif" font-size="12px" font-style="normal" font-weight="bold" text-decoration="normal" x="638" y="812" text-anchor="start" dominant-baseline="alphabetic" fill-opacity="1">0</text><path fill="none" stroke="rgb(0,153,255)" paint-order="fill stroke markers" d=" M 424.9999999999999 84.9830915022261 L 424.9999999999999 97.00112400457283 L 424.9999999999999 97.0011240045726 L 425.99999999999983 109.43739020315184 L 425.99999999999983 109.43739020315161 L 426.99999999999983 117.42168162427754 L 426.99999999999983 117.42168162427743 L 427.9999999999999 123.80555531739333 L 427.9999999999999 123.8055553173931 L 428.9999999999998 129.2863624907268 L 428.9999999999998 129.28636249072656 L 429.99999999999983 134.16695985590945 L 429.99999999999983 134.16695985590923 L 430.99999999999983 138.61149232387447 L 430.99999999999983 138.61149232387436 L 431.9999999999998 142.72077122469545 L 431.9999999999998 142.72077122469523 L 432.99999999999983 146.56196945166232 L 432.99999999999983 146.5619694516621 L 433.99999999999983 150.18250473821854 L 433.99999999999983 150.1825047382183 L 434.9999999999999 153.61732470058314 L 434.9999999999999 153.6173247005829 L 435.99999999999983 156.8930639796282 L 435.99999999999983 156.89306397962798 L 436.99999999999983 160.03057325017494 L 436.99999999999983 160.03057325017483 L 437.9999999999999 163.04653756913228 L 437.9999999999999 163.04653756913206 L 438.99999999999983 165.95455537640714 L 438.99999999999983 165.95455537640692 L 439.99999999999983 168.76588279411885 L 439.99999999999983 168.76588279411862 L 440.9999999999999 171.48996198493228 L 440.9999999999999 171.48996198493205 L 441.9999999999998 174.13480552868145 L 441.9999999999998 174.13480552868134 L 442.99999999999983 176.70728204698435 L 442.99999999999983 176.70728204698423 L 443.99999999999983 179.213332416551 L 443.99999999999983 179.21333241655088 L 444.9999999999998 181.6581361348742 L 444.9999999999998 181.6581361348741 L 445.99999999999983 184.04624120170354 L 445.99999999999983 184.0462412017033 L 446.99999999999983 186.3816668418492 L 446.99999999999983 186.38166684184898 L 447.9999999999999 188.66798570250467 L 447.9999999999999 188.66798570250444 L 448.99999999999983 190.90839032480937 L 448.99999999999983 190.90839032480915 L 449.99999999999983 193.10574741689834 L 449.99999999999983 193.1057474168981 L 450.9999999999999 195.26264255724095 L 450.9999999999999 195.26264255724072 L 451.9999999999998 197.381417312773 L 451.9999999999998 197.38141731277278 L 452.99999999999983 199.46420028761133 L 452.99999999999983 199.4642002876111 L 453.9999999999999 201.5129332727032 L 453.9999999999999 201.51293327270298 L 454.9999999999998 203.52939340908983 L 454.9999999999998 203.52939340908972 L 455.99999999999983 205.51521208309794 L 455.99999999999983 205.5152120830977 L 456.99999999999983 207.47189112366596 L 456.99999999999983 207.47189112366584 L 457.9999999999998 209.40081675805334 L 457.9999999999998 209.4008167580531 L 458.99999999999983 211.30327169371537 L 458.99999999999983 211.30327169371515 L 459.99999999999983 213.18044562488592 L 459.99999999999983 213.1804456248857 L 460.9999999999999 215.0334444077838 L 460.9999999999999 215.03344440778358 L 461.99999999999983 216.86329810494817 L 461.99999999999983 216.86329810494794 L 462.99999999999983 218.67096806447967 L 462.99999999999983 218.67096806447944 L 463.9999999999999 220.4573531719883 L 463.9999999999999 220.45735317198807 L 464.9999999999998 222.2232953903915 L 464.9999999999998 222.22329539039129 L 465.99999999999983 223.96958468423293 L 465.99999999999983 223.9695846842327 L 466.9999999999999 225.69696341005965 L 466.9999999999999 225.69696341005942 L 467.9999999999998 227.40613024193317 L 467.9999999999998 227.40613024193294 L 468.99999999999983 229.0977436908331 L 468.99999999999983 229.09774369083289 L 469.99999999999983 230.77242526813052 L 469.99999999999983 230.7724252681304 L 470.9999999999998 232.43076233614727 L 470.9999999999998 232.43076233614704 L 471.99999999999983 234.0733106828045 L 471.99999999999983 234.07331068280428 L 472.99999999999983 235.7005968523016 L 472.99999999999983 235.70059685230137 L 473.9999999999999 237.3131202594899 L 473.9999999999999 237.31312025948966 L 474.99999999999983 238.91135511197183 L 474.99999999999983 238.91135511197172 L 475.99999999999983 240.4957521608652 L 475.99999999999983 240.49575216086498 L 476.9999999999999 242.06674029852866 L 476.9999999999999 242.06674029852854 L 477.9999999999998 243.62472801928448 L 477.9999999999998 243.62472801928436 L 478.99999999999983 245.17010475721918 L 478.99999999999983 245.17010475721895 L 479.9999999999999 246.7032421134703 L 479.9999999999999 246.7032421134702 L 480.9999999999998 248.22449498395304 L 480.9999999999998 248.2244949839528 L 481.99999999999983 249.7342025972173 L 481.99999999999983 249.73420259721706 L 482.99999999999983 251.23268947103452 L 482.99999999999983 251.2326894710344 L 483.9999999999998 252.72026629535674 L 483.9999999999998 252.7202662953565 L 484.99999999999983 254.1972307484549 L 484.99999999999983 254.19723074845467 L 485.99999999999983 255.66386825231154 L 485.99999999999983 255.66386825231132 L 486.9999999999999 257.1204526727055 L 486.9999999999999 257.12045267270526 L 487.99999999999983 258.5672469688528 L 487.99999999999983 258.5672469688527 L 488.99999999999983 260.0045037969793 L 488.99999999999983 260.00450379697907 L 489.9999999999999 261.4324660717491 L 489.9999999999999 261.4324660717489 L 490.9999999999998 262.8513674890967 L 490.9999999999998 262.85136748909656 L 491.99999999999983 264.26143301364914 L 491.99999999999983 264.2614330136489 L 492.9999999999999 265.6628793336298 L 492.9999999999999 265.6628793336296 L 493.9999999999998 267.05591528585376 L 493.9999999999998 267.05591528585353 L 494.99999999999983 268.4407422531847 L 494.99999999999983 268.44074225318445 L 495.99999999999983 269.8175545366008 L 495.99999999999983 269.8175545366006 L 496.9999999999998 271.18653970382684 L 496.9999999999998 271.1865397038266 L 497.99999999999983 272.5478789163093 L 497.99999999999983 272.54787891630906 L 498.99999999999983 273.90174723615587 L 498.99999999999983 273.90174723615564 L 499.9999999999998 275.2483139145231 L 499.9999999999998 275.2483139145229 L 500.99999999999983 276.58774266280034 L 500.99999999999983 276.5877426628001 L 501.99999999999983 277.9201919078304 L 501.99999999999983 277.92019190783014 L 502.9999999999999 279.24581503230013 L 502.9999999999999 279.2458150322999 L 503.9999999999998 280.5647606013422 L 503.9999999999998 280.56476060134196 L 504.99999999999983 281.8771725762998 L 504.99999999999983 281.8771725762997 L 505.9999999999999 283.18319051653634 L 505.9999999999999 283.1831905165361 L 506.9999999999998 284.4829497700931 L 506.9999999999998 284.4829497700929 L 507.99999999999983 285.7765816539448 L 507.99999999999983 285.7765816539446 L 508.99999999999983 287.0642136245333 L 508.99999999999983 287.06421362453307 L 509.9999999999998 288.3459694392164 L 509.9999999999998 288.34596943921616 L 510.99999999999983 289.62196930921675 L 510.99999999999983 289.6219693092166 L 511.99999999999983 290.89233004461045 L 511.99999999999983 290.8923300446103 L 512.9999999999998 292.1571651918572 L 512.9999999999998 292.157165191857 L 513.9999999999998 293.4165851643371 L 513.9999999999998 293.4165851643369 L 514.9999999999998 294.67069736632254 L 514.9999999999998 294.6706973663223 L 515.9999999999999 295.91960631078643 L 515.9999999999999 295.9196063107862 L 516.9999999999998 297.1634137314173 L 516.9999999999998 297.16341373141705 L 517.9999999999998 298.40221868918604 L 517.9999999999998 298.4022186891858 L 518.9999999999999 299.63611767378524 L 518.9999999999999 299.63611767378507 L 519.9999999999998 300.8652047002408 L 519.9999999999998 300.86520470024055 L 520.9999999999998 302.0895714009741 L 520.9999999999998 302.0895714009739 L 521.9999999999998 303.3093071135735 L 521.9999999999998 303.3093071135733 L 522.9999999999998 304.52449896451947 L 522.9999999999998 304.5244989645193 L 523.9999999999998 305.73523194908864 L 523.9999999999998 305.7352319490885 L 524.9999999999998 306.9415890076481 L 524.9999999999998 306.9415890076479 L 525.9999999999998 308.143651098539 L 525.9999999999998 308.14365109853884 L 526.9999999999998 309.341497267735 L 526.9999999999998 309.3414972677348 L 527.9999999999998 310.5352047154464 L 527.9999999999998 310.5352047154462 L 528.9999999999999 311.72484885983613 L 528.9999999999999 311.7248488598359 L 529.9999999999998 312.91050339799824 L 529.9999999999998 312.91050339799807 L 530.9999999999998 314.092240364342 L 530.9999999999998 314.0922403643418 L 531.9999999999999 315.2701301865157 L 531.9999999999999 315.27013018651553 L 532.9999999999998 316.4442417389984 L 532.9999999999998 316.4442417389982 L 533.9999999999998 317.6146423944754 L 533.9999999999998 317.61464239447525 L 534.9999999999999 318.7813980731112 L 534.9999999999999 318.781398073111 L 535.9999999999998 319.9445732898241 L 535.9999999999998 319.9445732898239 L 536.9999999999998 321.10423119966225 L 536.9999999999998 321.104231199662 L 537.9999999999998 322.26043364137234 L 537.9999999999998 322.2604336413721 L 538.9999999999998 323.41324117925126 L 538.9999999999998 323.4132411792511 L 539.9999999999998 324.56271314336294 L 539.9999999999998 324.5627131433627 L 540.9999999999998 325.7089076681965 L 540.9999999999998 325.7089076681963 L 541.9999999999999 326.85188172984294 L 541.9999999999999 326.8518817298428 L 542.9999999999998 327.9916911817574 L 542.9999999999998 327.99169118175723 L 543.9999999999998 329.1283907891753 L 543.9999999999998 329.12839078917506 L 544.9999999999999 330.26203426224134 L 544.9999999999999 330.2620342622412 L 545.9999999999998 331.3926742879145 L 545.9999999999998 331.3926742879143 L 546.9999999999998 332.52036256070187 L 546.9999999999998 332.52036256070164 L 547.9999999999999 333.64514981227495 L 547.9999999999999 333.6451498122748 L 548.9999999999998 334.7670858400195 L 548.9999999999998 334.76708584001926 L 549.9999999999998 335.8862195345649 L 549.9999999999998 335.8862195345647 L 550.9999999999998 337.0025989063392 L 550.9999999999998 337.002598906339 L 551.9999999999998 338.1162711111919 L 551.9999999999998 338.1162711111917 L 552.9999999999998 339.22728247512583 L 552.9999999999998 339.2272824751256 L 553.9999999999998 340.33567851817537 L 553.9999999999998 340.3356785181752 L 554.9999999999999 341.4415039774686 L 554.9999999999999 341.4415039774684 L 555.9999999999998 342.5448028295079 L 555.9999999999998 342.54480282950766 L 556.9999999999998 343.64561831170204 L 556.9999999999998 343.6456183117019 L 557.9999999999999 344.74399294318056 L 557.9999999999999 344.7439929431805 L 558.9999999999998 345.83996854492125 L 558.9999999999998 345.83996854492113 L 559.9999999999998 346.93358625921877 L 559.9999999999998 346.9335862592187 L 560.9999999999999 348.0248865685213 L 560.9999999999999 348.02488656852125 L 561.9999999999998 349.11390931366145 L 561.9999999999998 349.1139093136614 L 562.9999999999998 350.2006937115058 L 562.9999999999998 350.20069371150566 L 563.9999999999998 351.28527837204575 L 563.9999999999998 351.28527837204564 L 564.9999999999998 352.3677013149545 L 564.9999999999998 352.36770131495445 L 565.9999999999998 353.4479999856277 L 565.9999999999998 353.4479999856276 L 566.9999999999998 354.5262112707316 L 566.9999999999998 354.5262112707315 L 567.9999999999998 355.60237151327635 L 567.9999999999998 355.60237151327624 L 568.9999999999998 356.67651652723293 L 568.9999999999998 356.6765165272329 L 569.9999999999998 357.74868161171275 L 569.9999999999998 357.74868161171264 L 570.9999999999998 358.81890156472474 L 570.9999999999998 358.8189015647246 L 571.9999999999998 359.8872106965285 L 571.9999999999998 359.88721069652837 L 572.9999999999998 360.95364284259733 L 572.9999999999998 360.9536428425972 L 573.9999999999998 362.0182313762062 L 573.9999999999998 362.0182313762061 L 574.9999999999998 363.08100922065967 L 574.9999999999998 363.08100922065955 L 575.9999999999998 364.14200886117226 L 575.9999999999998 364.14200886117214 L 576.9999999999998 365.20126235641493 L 576.9999999999998 365.2012623564148 L 577.9999999999998 366.2588013497402 L 577.9999999999998 366.2588013497401 L 578.9999999999998 367.31465708009705 L 578.9999999999998 367.314657080097 L 579.9999999999998 368.36886039264795 L 579.9999999999998 368.36886039264783 L 580.9999999999998 369.42144174909834 L 580.9999999999998 369.4214417490983 L 581.9999999999998 370.4724312377495 L 581.9999999999998 370.4724312377494 L 582.9999999999998 371.5218585832848 L 582.9999999999998 371.5218585832847 L 583.9999999999998 372.56975315629865 L 583.9999999999998 372.56975315629853 L 584.9999999999998 373.61614398257774 L 584.9999999999998 373.6161439825776 L 585.9999999999998 374.6610597521438 L 585.9999999999998 374.6610597521437 L 586.9999999999998 375.7045288280658 L 586.9999999999998 375.7045288280657 L 587.9999999999998 376.7465792550506 L 587.9999999999998 376.7465792550505 L 588.9999999999998 377.7872387678188 L 588.9999999999998 377.7872387678187 L 589.9999999999998 378.8265347992749 L 589.9999999999998 378.8265347992748 L 590.9999999999998 379.8644944884781 L 590.9999999999998 379.864494488478 L 591.9999999999998 380.90114468842086 L 591.9999999999998 380.90114468842074 L 592.9999999999998 381.9365119736226 L 592.9999999999998 381.9365119736225 L 593.9999999999998 382.9706226475441 L 593.9999999999998 382.970622647544 L 594.9999999999998 384.00350274983026 L 594.9999999999998 384.00350274983015 L 595.9999999999998 385.0351780633858 L 595.9999999999998 385.0351780633857 L 596.9999999999998 386.0656741212906 L 596.9999999999998 386.0656741212905 L 597.9999999999998 387.0950162135609 L 597.9999999999998 387.09501621356077 L 598.9999999999998 388.12322939375963 L 598.9999999999998 388.1232293937596 L 599.9999999999998 389.1503384854643 L 599.9999999999998 389.15033848546426 L 600.9999999999998 390.1763680885944 L 600.9999999999998 390.17636808859436 L 601.9999999999998 391.2013425856052 L 601.9999999999998 391.20134258560506 L 602.9999999999998 392.22528614755197 L 602.9999999999998 392.22528614755186 L 603.9999999999998 393.2482227400295 L 603.9999999999998 393.2482227400294 L 604.9999999999998 394.2701761289906 L 604.9999999999998 394.2701761289905 L 605.9999999999998 395.29116988644887 L 605.9999999999998 395.2911698864488 L 606.9999999999998 396.3112273960691 L 606.9999999999998 396.311227396069 L 607.9999999999998 397.3303718586495 L 607.9999999999998 397.33037185864947 L 608.9999999999998 398.34862629750035 L 608.9999999999998 398.34862629750023 L 609.9999999999998 399.3660135637207 L 609.9999999999998 399.36601356372057 L 610.9999999999998 400.38255634137994 L 610.9999999999998 400.3825563413798 L 611.9999999999998 401.39827715260515 L 611.9999999999998 401.3982771526051 L 612.9999999999998 402.41319836257816 L 612.9999999999998 402.41319836257804 L 613.9999999999998 403.42734218444673 L 613.9999999999998 403.4273421844466 L 614.9999999999998 404.4407306841523 L 614.9999999999998 404.4407306841522 L 615.9999999999998 405.45338578517664 L 615.9999999999998 405.4533857851765 L 616.9999999999998 406.46532927321243 L 616.9999999999998 406.4653292732123 L 617.9999999999998 407.4765828007586 L 617.9999999999998 407.4765828007585 L 618.9999999999998 408.4871678916448 L 618.9999999999998 408.48716789164473 L 619.9999999999998 409.4971059454868 L 619.9999999999998 409.49710594548674 L 620.9999999999998 410.5064182420766 L 620.9999999999998 410.5064182420765 L 621.9999999999998 411.51512594570863 L 621.9999999999998 411.5151259457085 L 622.9999999999998 412.5232501094456 L 622.9999999999998 412.5232501094455 L 623.9999999999998 413.5308116793263 L 623.9999999999998 413.5308116793262 L 624.9999999999998 414.5378314985172 L 624.9999999999998 414.5378314985171 L 625.9999999999998 415.54433031141133 L 625.9999999999998 415.5443303114112 L 626.9999999999998 416.5503287676757 L 626.9999999999998 416.5503287676756 L 627.9999999999998 417.55584742625047 L 627.9999999999998 417.55584742625035 L 628.9999999999998 418.56090675930113 L 628.9999999999998 418.560906759301 L 629.9999999999998 419.56552715612713 L 629.9999999999998 419.5655271561271 L 630.9999999999998 420.5697289270277 L 630.9999999999998 420.5697289270276 L 631.9999999999998 421.57353230712806 L 631.9999999999998 421.57353230712795 L 632.9999999999998 422.5769574601677 L 632.9999999999998 422.57695746016765 L 633.9999999999998 423.5800244822527 L 633.9999999999998 423.5800244822526 L 634.9999999999998 424.58275340557407 L 634.9999999999998 424.58275340557395 L 635.9999999999998 425.58516420209406 L 635.9999999999998 425.58516420209395 L 636.9999999999998 426.5872767872027 L 636.9999999999998 426.5872767872026 L 637.9999999999998 427.58911102334605 L 637.9999999999998 427.58911102334594 L 638.9999999999998 428.5906867236281 L 638.9999999999998 428.590686723628 L 639.9999999999998 429.5920236553883 L 639.9999999999998 429.59202365538823 L 640.9999999999998 430.5931415437567 L 640.9999999999998 430.5931415437566 L 641.9999999999998 431.5940600751879 L 641.9999999999998 431.59406007518777 L 642.9999999999998 432.59479890097623 L 642.9999999999998 432.5947989009762 L 643.9999999999998 433.5953776407536 L 643.9999999999998 433.5953776407535 L 644.9999999999998 434.59581588597183 L 644.9999999999998 434.5958158859717 L 645.9999999999998 435.5961332033711 L 645.9999999999998 435.596133203371 L 646.9999999999998 436.59634913843627 L 646.9999999999998 436.5963491384362 L 647.9999999999998 437.5964832188433 L 647.9999999999998 437.59648321884316 L 648.9999999999998 438.5965549578959 L 648.9999999999998 438.59655495789576 L 649.9999999999998 439.59658385795643 L 649.9999999999998 439.5965838579563 L 650.9999999999998 440.5965894138708 L 650.9999999999998 440.5965894138707 L 651.9999999999998 441.5965911163894 L 651.9999999999998 441.5965911163893 L 652.9999999999998 442.5966084555868 L 652.9999999999998 442.59660845558676 L 653.9999999999998 443.5966609242806 L 653.9999999999998 443.59666092428057 L 654.9999999999998 444.5967680214518 L 654.9999999999998 444.5967680214517 L 655.9999999999998 445.5969492556679 L 655.9999999999998 445.5969492556678 L 656.9999999999998 446.59722414851126 L 656.9999999999998 446.59722414851115 L 657.9999999999998 447.5976122380132 L 657.9999999999998 447.5976122380131 L 658.9999999999998 448.59813308209647 L 658.9999999999998 448.5981330820964 L 659.9999999999998 449.59880626202744 L 659.9999999999998 449.5988062620273 L 660.9999999999998 450.5996513858792 L 660.9999999999998 450.5996513858791 L 661.9999999999998 451.60068809200885 L 661.9999999999998 451.60068809200874 L 662.9999999999998 452.60193605254847 L 662.9999999999998 452.60193605254835 L 663.9999999999998 453.6034149769134 L 663.9999999999998 453.6034149769133 L 664.9999999999998 454.6051446153287 L 664.9999999999998 454.60514461532864 L 665.9999999999998 455.60714476237547 L 665.9999999999998 455.6071447623754 L 666.9999999999998 456.6094352605594 L 666.9999999999998 456.6094352605593 L 667.9999999999998 457.61203600390286 L 667.9999999999998 457.6120360039028 L 668.9999999999998 458.61496694156256 L 668.9999999999998 458.61496694156244 L 669.9999999999998 459.61824808147435 L 669.9999999999998 459.61824808147423 L 670.9999999999998 460.62189949402807 L 670.9999999999998 460.62189949402796 L 671.9999999999998 461.6259413157724 L 671.9999999999998 461.6259413157723 L 672.9999999999998 462.630393753154 L 672.9999999999998 462.63039375315395 L 673.9999999999998 463.63527708629124 L 673.9999999999998 463.6352770862911 L 674.9999999999998 464.6406116727847 L 674.9999999999998 464.6406116727846 L 675.9999999999998 465.6464179515676 L 675.9999999999998 465.6464179515675 L 676.9999999999998 466.65271644679734 L 676.9999999999998 466.6527164467972 L 677.9999999999998 467.65952777178944 L 677.9999999999998 467.6595277717893 L 678.9999999999998 468.6668726329989 L 678.9999999999998 468.6668726329988 L 679.9999999999998 469.67477183404725 L 679.9999999999998 469.6747718340472 L 680.9999999999998 470.6832462798017 L 680.9999999999998 470.6832462798016 L 681.9999999999998 471.692316980505 L 681.9999999999998 471.6923169805049 L 682.9999999999998 472.70200505596085 L 682.9999999999998 472.7020050559608 L 683.9999999999998 473.71233173977674 L 683.9999999999998 473.7123317397767 L 684.9999999999998 474.7233183836658 L 684.9999999999998 474.7233183836657 L 685.9999999999998 475.7349864618112 L 685.9999999999998 475.7349864618111 L 686.9999999999998 476.7473575752958 L 686.9999999999998 476.74735757529567 L 687.9999999999998 477.7604534565983 L 687.9999999999998 477.7604534565982 L 688.9999999999998 478.7742959741612 L 688.9999999999998 478.77429597416113 L 689.9999999999998 479.7889071370303 L 689.9999999999998 479.7889071370302 L 690.9999999999998 480.8043090995716 L 690.9999999999998 480.80430909957147 L 691.9999999999998 481.82052416626624 L 691.9999999999998 481.8205241662661 L 692.9999999999998 482.83757479658846 L 692.9999999999998 482.83757479658834 L 693.9999999999998 483.855483609968 L 693.9999999999998 483.85548360996796 L 694.9999999999998 484.87427339084235 L 694.9999999999998 484.8742733908423 L 695.9999999999998 485.8939670937992 L 695.9999999999998 485.89396709379906 L 696.9999999999998 486.91458784881587 L 696.9999999999998 486.9145878488158 L 697.9999999999998 487.9361589665977 L 697.9999999999998 487.9361589665976 L 698.9999999999998 488.9587039440177 L 698.9999999999998 488.9587039440176 L 699.9999999999998 489.9822464696647 L 699.9999999999998 489.9822464696646 L 700.9999999999998 491.0068104295006 L 700.9999999999998 491.0068104295005 L 701.9999999999998 492.032419912633 L 701.9999999999998 492.03241991263286 L 702.9999999999998 493.059099217206 L 702.9999999999998 493.05909921720587 L 703.9999999999998 494.0868728564149 L 703.9999999999998 494.08687285641486 L 704.9999999999998 495.115765564648 L 704.9999999999998 495.11576556464786 L 705.9999999999998 496.14580230376055 L 705.9999999999998 496.14580230376043 L 706.9999999999998 497.17700826948663 L 706.9999999999998 497.1770082694865 L 707.9999999999998 498.20940889799266 L 707.9999999999998 498.20940889799255 L 708.9999999999998 499.24302987257795 L 708.9999999999998 499.24302987257784 L 709.9999999999998 500.2778971305286 L 709.9999999999998 500.27789713052846 L 710.9999999999998 501.3140368701291 L 710.9999999999998 501.314036870129 L 711.9999999999998 502.35147555783857 L 711.9999999999998 502.3514755578385 L 712.9999999999998 503.3902399356361 L 712.9999999999998 503.390239935636 L 713.9999999999998 504.4303570285429 L 713.9999999999998 504.4303570285428 L 714.9999999999998 505.47185415232735 L 714.9999999999998 505.4718541523273 L 715.9999999999998 506.5147589213984 L 715.9999999999998 506.51475892139837 L 716.9999999999998 507.55909925689656 L 716.9999999999998 507.55909925689645 L 717.9999999999998 508.6049033949869 L 717.9999999999998 508.6049033949868 L 718.9999999999998 509.65219989536433 L 718.9999999999998 509.6521998953643 L 719.9999999999998 510.7010176499773 L 719.9999999999998 510.70101764997725 L 720.9999999999998 511.75138589197803 L 720.9999999999998 511.7513858919779 L 721.9999999999998 512.8033342049084 L 721.9999999999998 512.8033342049083 L 722.9999999999998 513.8568925321301 L 722.9999999999998 513.85689253213 L 723.9999999999998 514.912091186508 L 723.9999999999998 514.912091186508 L 724.9999999999998 515.9689608603562 L 724.9999999999998 515.9689608603561 L 725.9999999999998 517.027532635657 L 725.9999999999998 517.027532635657 L 726.9999999999998 518.0878379945632 L 726.9999999999998 518.087837994563 L 727.9999999999998 519.149908830193 L 727.9999999999998 519.1499088301928 L 728.9999999999998 520.2137774577322 L 728.9999999999998 520.2137774577321 L 729.9999999999998 521.2794766258518 L 729.9999999999998 521.2794766258517 L 730.9999999999998 522.3470395284539 L 730.9999999999998 522.3470395284539 L 731.9999999999998 523.4164998167622 L 731.9999999999998 523.4164998167621 L 732.9999999999998 524.4878916117643 L 732.9999999999998 524.4878916117643 L 733.9999999999998 525.5612495170262 L 733.9999999999998 525.5612495170261 L 734.9999999999998 526.636608631888 L 734.9999999999998 526.6366086318878 L 735.9999999999998 527.7140045650601 L 735.9999999999998 527.7140045650601 L 736.9999999999998 528.7934734486344 L 736.9999999999998 528.7934734486342 L 737.9999999999998 529.8750519525242 L 737.9999999999998 529.8750519525241 L 738.9999999999998 530.9587772993574 L 738.9999999999998 530.9587772993573 L 739.9999999999998 532.0446872798325 L 739.9999999999998 532.0446872798324 L 740.9999999999998 533.1328202685633 L 740.9999999999998 533.1328202685631 L 741.9999999999998 534.223215240429 L 741.9999999999998 534.2232152404288 L 742.9999999999998 535.3159117874509 L 742.9999999999998 535.3159117874508 L 743.9999999999998 536.4109501362188 L 743.9999999999998 536.4109501362188 L 744.9999999999998 537.5083711658892 L 744.9999999999998 537.508371165889 L 745.9999999999998 538.6082164267785 L 745.9999999999998 538.6082164267784 L 746.9999999999998 539.7105281595799 L 746.9999999999998 539.7105281595798 L 747.9999999999998 540.8153493152258 L 747.9999999999998 540.8153493152258 L 748.9999999999998 541.9227235754281 L 748.9999999999998 541.922723575428 L 749.9999999999998 543.0326953739219 L 749.9999999999998 543.0326953739218 L 750.9999999999998 544.1453099184469 L 750.9999999999998 544.1453099184469 L 751.9999999999998 545.2606132134962 L 751.9999999999998 545.2606132134961 L 752.9999999999998 546.3786520838678 L 752.9999999999998 546.3786520838677 L 753.9999999999998 547.4994741990538 L 753.9999999999998 547.4994741990537 L 754.9999999999998 548.623128098507 L 754.9999999999998 548.6231280985069 L 755.9999999999998 549.7496632178215 L 755.9999999999998 549.7496632178214 L 756.9999999999998 550.8791299158725 L 756.9999999999998 550.8791299158723 L 757.9999999999998 552.011579502956 L 757.9999999999998 552.0115795029559 L 758.9999999999998 553.1470642699784 L 758.9999999999998 553.1470642699783 L 759.9999999999998 554.285637518742 L 759.9999999999998 554.2856375187419 L 760.9999999999998 555.4273535933801 L 760.9999999999998 555.42735359338 L 761.9999999999998 556.5722679129954 L 761.9999999999998 556.5722679129954 L 762.9999999999998 557.7204370055601 L 762.9999999999998 557.7204370055601 L 763.9999999999998 558.8719185431381 L 763.9999999999998 558.871918543138 L 764.9999999999998 560.0267713784935 L 764.9999999999998 560.0267713784934 L 765.9999999999998 561.1850555831555 L 765.9999999999998 561.1850555831554 L 766.9999999999998 562.3468324870092 L 766.9999999999998 562.3468324870091 L 767.9999999999998 563.512164719491 L 767.9999999999998 563.5121647194909 L 768.9999999999998 564.6811162524684 L 768.9999999999998 564.6811162524683 L 769.9999999999998 565.8537524448908 L 769.9999999999998 565.8537524448907 L 770.9999999999998 567.0301400893012 L 770.9999999999998 567.0301400893011 L 771.9999999999998 568.2103474603072 L 771.9999999999998 568.210347460307 L 772.9999999999998 569.394444365112 L 772.9999999999998 569.3944443651119 L 773.9999999999998 570.582502196216 L 773.9999999999998 570.582502196216 L 774.9999999999998 571.7745939864036 L 774.9999999999998 571.7745939864036 L 775.9999999999998 572.9707944661394 L 775.9999999999998 572.9707944661393 L 776.9999999999998 574.1711801235035 L 776.9999999999998 574.1711801235035 L 777.9999999999998 575.3758292668077 L 777.9999999999998 575.3758292668076 L 778.9999999999998 576.5848220900385 L 778.9999999999998 576.5848220900384 L 779.9999999999998 577.7982407412882 L 779.9999999999998 577.798240741288 L 780.9999999999998 579.0161693943407 L 780.9999999999998 579.0161693943407 L 781.9999999999998 580.2386943235955 L 781.9999999999998 580.2386943235955 L 782.9999999999998 581.4659039825187 L 782.9999999999998 581.4659039825186 L 783.9999999999998 582.6978890858315 L 783.9999999999998 582.6978890858315 L 784.9999999999998 583.9347426956537 L 784.9999999999998 583.9347426956535 L 785.9999999999998 585.1765603118384 L 785.9999999999998 585.1765603118383 L 786.9999999999998 586.4234399667537 L 786.9999999999998 586.4234399667537 L 787.9999999999998 587.675482324777 L 787.9999999999998 587.675482324777 L 788.9999999999998 588.9327907867986 L 788.9999999999998 588.9327907867985 L 789.9999999999998 590.1954716000411 L 789.9999999999998 590.1954716000411 L 790.9999999999998 591.463633973535 L 790.9999999999998 591.463633973535 L 791.9999999999998 592.7373901996069 L 791.9999999999998 592.7373901996069 L 792.9999999999998 594.0168557817706 L 792.9999999999998 594.0168557817706 L 793.9999999999998 595.302149569438 L 793.9999999999998 595.3021495694379 L 794.9999999999998 596.5933938999017 L 794.9999999999998 596.5933938999017 L 795.9999999999998 597.8907147480729 L 795.9999999999998 597.8907147480728 L 796.9999999999998 599.1942418845017 L 796.9999999999998 599.1942418845016 L 797.9999999999998 600.5041090422461 L 797.9999999999998 600.504109042246 L 798.9999999999998 601.8204540932039 L 798.9999999999998 601.8204540932039 L 799.9999999999998 603.1434192345714 L 799.9999999999998 603.1434192345714 L 800.9999999999998 604.4731511861503 L 800.9999999999998 604.4731511861503 L 801.9999999999998 605.8098013992849 L 801.9999999999998 605.8098013992849 L 802.9999999999998 607.1535262782772 L 802.9999999999998 607.1535262782772 L 803.9999999999998 608.5044874152063 L 803.9999999999998 608.5044874152062 L 804.9999999999998 609.8628518391539 L 804.9999999999998 609.8628518391538 L 805.9999999999998 611.2287922809351 L 805.9999999999998 611.228792280935 L 806.9999999999998 612.6024874545271 L 806.9999999999998 612.6024874545271 L 807.9999999999998 613.9841223565043 L 807.9999999999998 613.9841223565041 L 808.9999999999998 615.373888584904 L 808.9999999999998 615.3738885849039 L 809.9999999999998 616.7719846790924 L 809.9999999999998 616.7719846790924 L 810.9999999999998 618.1786164823397 L 810.9999999999998 618.1786164823397 L 811.9999999999998 619.5939975289918 L 811.9999999999998 619.5939975289918 L 812.9999999999998 621.0183494583057 L 812.9999999999998 621.0183494583056 L 813.9999999999998 622.4519024572276 L 813.9999999999998 622.4519024572276 L 814.9999999999998 623.8948957346292 L 814.9999999999998 623.8948957346292 L 815.9999999999998 625.3475780297725 L 815.9999999999998 625.3475780297724 L 816.9999999999998 626.8102081580735 L 816.9999999999998 626.8102081580735 L 817.9999999999998 628.2830555975628 L 817.9999999999998 628.2830555975627 L 818.9999999999998 629.7664011198137 L 818.9999999999998 629.7664011198137 L 819.9999999999998 631.2605374695269 L 819.9999999999998 631.2605374695268 L 820.9999999999998 632.7657700974353 L 820.9999999999998 632.7657700974352 L 821.9999999999998 634.2824179517347 L 821.9999999999998 634.2824179517347 L 822.9999999999998 635.8108143338488 L 822.9999999999998 635.8108143338488 L 823.9999999999998 637.3513078250362 L 823.9999999999998 637.3513078250361 L 824.9999999999998 638.90426329114 L 824.9999999999998 638.90426329114 L 825.9999999999998 640.4700629736835 L 825.9999999999998 640.4700629736834 L 826.9999999999998 642.0491076765521 L 826.9999999999998 642.049107676552 L 827.9999999999998 643.6418180586975 L 827.9999999999998 643.6418180586974 L 828.9999999999998 645.2486360446678 L 828.9999999999998 645.2486360446678 L 829.9999999999998 646.8700263663577 L 829.9999999999998 646.8700263663577 L 830.9999999999998 648.5064782512031 L 830.9999999999998 648.5064782512031 L 831.9999999999998 650.1585072741833 L 831.9999999999998 650.1585072741833 L 832.9999999999998 651.8266573934743 L 832.9999999999998 651.8266573934743 L 833.9999999999998 653.5115031925034 L 833.9999999999998 653.5115031925034 L 834.9999999999998 655.2136523545612 L 834.9999999999998 655.2136523545612 L 835.9999999999998 656.9337484001362 L 835.9999999999998 656.9337484001362 L 836.9999999999998 658.6724737218688 L 836.9999999999998 658.6724737218686 L 837.9999999999998 660.4305529576397 L 837.9999999999998 660.4305529576397 L 838.9999999999998 662.208756748984 L 838.9999999999998 662.2087567489839 L 839.9999999999998 664.0079059400068 L 839.9999999999998 664.0079059400067 L 840.9999999999998 665.8288762815681 L 840.9999999999998 665.828876281568 L 841.9999999999998 667.6726037170554 L 841.9999999999998 667.6726037170554 L 842.9999999999998 669.540090340076 L 842.9999999999998 669.5400903400758 L 843.9999999999998 671.432411131457 L 843.9999999999998 671.432411131457 L 844.9999999999998 673.3507216038302 L 844.9999999999998 673.3507216038302 L 845.9999999999998 675.2962665077955 L 845.9999999999998 675.2962665077955 L 846.9999999999998 677.2703897855192 L 846.9999999999998 677.2703897855192 L 847.9999999999998 679.2745459973332 L 847.9999999999998 679.2745459973331 L 848.9999999999998 681.3103134967397 L 848.9999999999998 681.3103134967397 L 849.9999999999998 683.3794096922165 L 849.9999999999998 683.3794096922165 L 850.9999999999998 685.4837088144346 L 850.9999999999998 685.4837088144345 L 851.9999999999998 687.6252627104934 L 851.9999999999998 687.6252627104934 L 852.9999999999998 689.8063253201598 L 852.9999999999998 689.8063253201598 L 853.9999999999998 692.0293816634479 L 853.9999999999998 692.0293816634479 L 854.9999999999998 694.2971823990664 L 854.9999999999998 694.2971823990664 L 855.9999999999998 696.6127853204725 L 855.9999999999998 696.6127853204725 L 856.9999999999998 698.9796055710749 L 856.9999999999998 698.9796055710749 L 857.9999999999998 701.4014769273297 L 857.9999999999998 701.4014769273297 L 858.9999999999998 703.8827272848248 L 858.9999999999998 703.8827272848247 L 859.9999999999998 706.4282725891325 L 859.9999999999998 706.4282725891323 L 860.9999999999998 709.0437350366872 L 860.9999999999998 709.0437350366872 L 861.9999999999998 711.7355936782817 L 861.9999999999998 711.7355936782817 L 862.9999999999998 714.5113789885236 L 862.9999999999998 714.5113789885236 L 863.9999999999998 717.3799281820347 L 863.9999999999998 717.3799281820347 L 864.9999999999998 720.3517261952417 L 864.9999999999998 720.3517261952416 L 865.9999999999998 723.4393703151088 L 865.9999999999998 723.4393703151087 L 866.9999999999998 726.658218099873 L 866.9999999999998 726.658218099873 L 867.9999999999998 730.0273155457406 L 867.9999999999998 730.0273155457406 L 868.9999999999998 733.5707695960313 L 868.9999999999998 733.5707695960313 L 869.9999999999998 737.3198563795657 L 869.9999999999998 737.3198563795657 L 870.9999999999998 741.3164135031279 L 870.9999999999998 741.3164135031279 L 871.9999999999998 745.6186249873797 L 871.9999999999998 745.6186249873797 L 872.9999999999998 750.3116546641428 L 872.9999999999998 750.3116546641428 L 873.9999999999998 755.5292691465623 L 873.9999999999998 755.5292691465623 L 874.9999999999998 761.5046610657324 L 874.9999999999998 761.5046610657324 L 875.9999999999998 768.7208413128963 L 875.9999999999998 768.7208413128963 L 876.9999999999998 778.6135493964592 L 876.9999999999998 778.6135493964592 L 877.9999999999998 796.6055143268683" stroke-opacity="1" stroke-linecap="round" stroke-linejoin="round" stroke-miterlimit="10" stroke-width="6.5"/></g></g></svg>