<svg version="1.1" xmlns="http://www.w3.org/2000/svg" xmlns:xlink="http://www.w3.org/1999/xlink" width="1578" height="913"><defs><clipPath id="LgnLqksZlZaZ"><path fill="none" stroke="none" d=" M 0 0 L 1578 0 L 1578 913 L 0 913 L 0 0 Z"/></clipPath></defs><g transform="scale(1,1)" clip-path="url(#LgnLqksZlZaZ)"><g><rect fill="rgb(255,255,255)" stroke="none" x="0" y="0" width="1578" height="913" fill-opacity="1"/><path fill="none" stroke="rgb(37,37,37)" paint-order="fill stroke markers" d=" M 733.5 2.5 L 733.5 913.5" stroke-opacity="1" stroke-miterlimit="10"/><path fill="rgb(37,37,37)" stroke="none" paint-order="stroke fill markers" fill-rule="evenodd" d=" M 733.5733741319697 1 L 729.5733741319697 17 L 737.5733741319697 17" fill-opacity="1"/><path fill="none" stroke="rgb(37,37,37)" paint-order="fill stroke markers" d=" M 0.5 440.5 L 1576.5 440.5" stroke-opacity="1" stroke-miterlimit="10"/><path fill="rgb(37,37,37)" stroke="none" paint-order="stroke fill markers" fill-rule="evenodd" d=" M 1577 440.0422526982802 L 1561 436.0422526982802 L 1561 444.0422526982802" fill-opacity="1"/><text fill="rgb(37,37,37)" stroke="none" font-family="geogebra-serif, serif" font-size="12px" font-style="normal" font-weight="bold" text-decoration="normal" x="33" y="456" text-anchor="start" dominant-baseline="alphabetic" fill-opacity="1">–8</text><text fill="none" stroke="rgb(255,255,255)" font-family="geogebra-serif, serif" font-size="12px" font-style="normal" font-weight="bold" text-decoration="normal" x="33" y="456" text-anchor="start" dominant-baseline="alphabetic" stroke-opacity="1" stroke-linejoin="bevel" stroke-miterlimit="10" stroke-width="3">–8</text><text fill="rgb(37,37,37)" stroke="none" font-family="geogebra-serif, serif" font-size="12px" font-style="normal" font-weight="bold" text-decoration="normal" x="33" y="456" text-anchor="start" dominant-baseline="alphabetic" fill-opacity="1">–8</text><path fill="none" stroke="rgb(37,37,37)" paint-order="fill stroke markers" d=" M 39.5 440.5 L 39.5 443.5" stroke-opacity="1" stroke-miterlimit="10"/><text fill="rgb(37,37,37)" stroke="none" font-family="geogebra-serif, serif" font-size="12px" font-style="normal" font-weight="bold" text-decoration="normal" x="120" y="456" text-anchor="start" dominant-baseline="alphabetic" fill-opacity="1">–7</text><text fill="none" stroke="rgb(255,255,255)" font-family="geogebra-serif, serif" font-size="12px" font-style="normal" font-weight="bold" text-decoration="normal" x="120" y="456" text-anchor="start" dominant-baseline="alphabetic" stroke-opacity="1" stroke-linejoin="bevel" stroke-miterlimit="10" stroke-width="3">–7</text><text fill="rgb(37,37,37)" stroke="none" font-family="geogebra-serif, serif" font-size="12px" font-style="normal" font-weight="bold" text-decoration="normal" x="120" y="456" text-anchor="start" dominant-baseline="alphabetic" fill-opacity="1">–7</text><path fill="none" stroke="rgb(37,37,37)" paint-order="fill stroke markers" d=" M 126.5 440.5 L 126.5 443.5" stroke-opacity="1" stroke-miterlimit="10"/><text fill="rgb(37,37,37)" stroke="none" font-family="geogebra-serif, serif" font-size="12px" font-style="normal" font-weight="bold" text-decoration="normal" x="206" y="456" text-anchor="start" dominant-baseline="alphabetic" fill-opacity="1">–6</text><text fill="none" stroke="rgb(255,255,255)" font-family="geogebra-serif, serif" font-size="12px" font-style="normal" font-weight="bold" text-decoration="normal" x="206" y="456" text-anchor="start" dominant-baseline="alphabetic" stroke-opacity="1" stroke-linejoin="bevel" stroke-miterlimit="10" stroke-width="3">–6</text><text fill="rgb(37,37,37)" stroke="none" font-family="geogebra-serif, serif" font-size="12px" font-style="normal" font-weight="bold" text-decoration="normal" x="206" y="456" text-anchor="start" dominant-baseline="alphabetic" fill-opacity="1">–6</text><path fill="none" stroke="rgb(37,37,37)" paint-order="fill stroke markers" d=" M 212.5 440.5 L 212.5 443.5" stroke-opacity="1" stroke-miterlimit="10"/><text fill="rgb(37,37,37)" stroke="none" font-family="geogebra-serif, serif" font-size="12px" font-style="normal" font-weight="bold" text-decoration="normal" x="293" y="456" text-anchor="start" dominant-baseline="alphabetic" fill-opacity="1">–5</text><text fill="none" stroke="rgb(255,255,255)" font-family="geogebra-serif, serif" font-size="12px" font-style="normal" font-weight="bold" text-decoration="normal" x="293" y="456" text-anchor="start" dominant-baseline="alphabetic" stroke-opacity="1" stroke-linejoin="bevel" stroke-miterlimit="10" stroke-width="3">–5</text><text fill="rgb(37,37,37)" stroke="none" font-family="geogebra-serif, serif" font-size="12px" font-style="normal" font-weight="bold" text-decoration="normal" x="293" y="456" text-anchor="start" dominant-baseline="alphabetic" fill-opacity="1">–5</text><path fill="none" stroke="rgb(37,37,37)" paint-order="fill stroke markers" d=" M 299.5 440.5 L 299.5 443.5" stroke-opacity="1" stroke-miterlimit="10"/><text fill="rgb(37,37,37)" stroke="none" font-family="geogebra-serif, serif" font-size="12px" font-style="normal" font-weight="bold" text-decoration="normal" x="380" y="456" text-anchor="start" dominant-baseline="alphabetic" fill-opacity="1">–4</text><text fill="none" stroke="rgb(255,255,255)" font-family="geogebra-serif, serif" font-size="12px" font-style="normal" font-weight="bold" text-decoration="normal" x="380" y="456" text-anchor="start" dominant-baseline="alphabetic" stroke-opacity="1" stroke-linejoin="bevel" stroke-miterlimit="10" stroke-width="3">–4</text><text fill="rgb(37,37,37)" stroke="none" font-family="geogebra-serif, serif" font-size="12px" font-style="normal" font-weight="bold" text-decoration="normal" x="380" y="456" text-anchor="start" dominant-baseline="alphabetic" fill-opacity="1">–4</text><path fill="none" stroke="rgb(37,37,37)" paint-order="fill stroke markers" d=" M 386.5 440.5 L 386.5 443.5" stroke-opacity="1" stroke-miterlimit="10"/><text fill="rgb(37,37,37)" stroke="none" font-family="geogebra-serif, serif" font-size="12px" font-style="normal" font-weight="bold" text-decoration="normal" x="467" y="456" text-anchor="start" dominant-baseline="alphabetic" fill-opacity="1">–3</text><text fill="none" stroke="rgb(255,255,255)" font-family="geogebra-serif, serif" font-size="12px" font-style="normal" font-weight="bold" text-decoration="normal" x="467" y="456" text-anchor="start" dominant-baseline="alphabetic" stroke-opacity="1" stroke-linejoin="bevel" stroke-miterlimit="10" stroke-width="3">–3</text><text fill="rgb(37,37,37)" stroke="none" font-family="geogebra-serif, serif" font-size="12px" font-style="normal" font-weight="bold" text-decoration="normal" x="467" y="456" text-anchor="start" dominant-baseline="alphabetic" fill-opacity="1">–3</text><path fill="none" stroke="rgb(37,37,37)" paint-order="fill stroke markers" d=" M 473.5 440.5 L 473.5 443.5" stroke-opacity="1" stroke-miterlimit="10"/><text fill="rgb(37,37,37)" stroke="none" font-family="geogebra-serif, serif" font-size="12px" font-style="normal" font-weight="bold" text-decoration="normal" x="553" y="456" text-anchor="start" dominant-baseline="alphabetic" fill-opacity="1">–2</text><text fill="none" stroke="rgb(255,255,255)" font-family="geogebra-serif, serif" font-size="12px" font-style="normal" font-weight="bold" text-decoration="normal" x="553" y="456" text-anchor="start" dominant-baseline="alphabetic" stroke-opacity="1" stroke-linejoin="bevel" stroke-miterlimit="10" stroke-width="3">–2</text><text fill="rgb(37,37,37)" stroke="none" font-family="geogebra-serif, serif" font-size="12px" font-style="normal" font-weight="bold" text-decoration="normal" x="553" y="456" text-anchor="start" dominant-baseline="alphabetic" fill-opacity="1">–2</text><path fill="none" stroke="rgb(37,37,37)" paint-order="fill stroke markers" d=" M 560.5 440.5 L 560.5 443.5" stroke-opacity="1" stroke-miterlimit="10"/><text fill="rgb(37,37,37)" stroke="none" font-family="geogebra-serif, serif" font-size="12px" font-style="normal" font-weight="bold" text-decoration="normal" x="640" y="456" text-anchor="start" dominant-baseline="alphabetic" fill-opacity="1">–1</text><text fill="none" stroke="rgb(255,255,255)" font-family="geogebra-serif, serif" font-size="12px" font-style="normal" font-weight="bold" text-decoration="normal" x="640" y="456" text-anchor="start" dominant-baseline="alphabetic" stroke-opacity="1" stroke-linejoin="bevel" stroke-miterlimit="10" stroke-width="3">–1</text><text fill="rgb(37,37,37)" stroke="none" font-family="geogebra-serif, serif" font-size="12px" font-style="normal" font-weight="bold" text-decoration="normal" x="640" y="456" text-anchor="start" dominant-baseline="alphabetic" fill-opacity="1">–1</text><path fill="none" stroke="rgb(37,37,37)" paint-order="fill stroke markers" d=" M 646.5 440.5 L 646.5 443.5" stroke-opacity="1" stroke-miterlimit="10"/><path fill="none" stroke="rgb(37,37,37)" paint-order="fill stroke markers" d=" M 733.5 440.5 L 733.5 443.5" stroke-opacity="1" stroke-miterlimit="10"/><text fill="rgb(37,37,37)" stroke="none" font-family="geogebra-serif, serif" font-size="12px" font-style="normal" font-weight="bold" text-decoration="normal" x="817" y="456" text-anchor="start" dominant-baseline="alphabetic" fill-opacity="1">1</text><text fill="none" stroke="rgb(255,255,255)" font-family="geogebra-serif, serif" font-size="12px" font-style="normal" font-weight="bold" text-decoration="normal" x="817" y="456" text-anchor="start" dominant-baseline="alphabetic" stroke-opacity="1" stroke-linejoin="bevel" stroke-miterlimit="10" stroke-width="3">1</text><text fill="rgb(37,37,37)" stroke="none" font-family="geogebra-serif, serif" font-size="12px" font-style="normal" font-weight="bold" text-decoration="normal" x="817" y="456" text-anchor="start" dominant-baseline="alphabetic" fill-opacity="1">1</text><path fill="none" stroke="rgb(37,37,37)" paint-order="fill stroke markers" d=" M 820.5 440.5 L 820.5 443.5" stroke-opacity="1" stroke-miterlimit="10"/><text fill="rgb(37,37,37)" stroke="none" font-family="geogebra-serif, serif" font-size="12px" font-style="normal" font-weight="bold" text-decoration="normal" x="904" y="456" text-anchor="start" dominant-baseline="alphabetic" fill-opacity="1">2</text><text fill="none" stroke="rgb(255,255,255)" font-family="geogebra-serif, serif" font-size="12px" font-style="normal" font-weight="bold" text-decoration="normal" x="904" y="456" text-anchor="start" dominant-baseline="alphabetic" stroke-opacity="1" stroke-linejoin="bevel" stroke-miterlimit="10" stroke-width="3">2</text><text fill="rgb(37,37,37)" stroke="none" font-family="geogebra-serif, serif" font-size="12px" font-style="normal" font-weight="bold" text-decoration="normal" x="904" y="456" text-anchor="start" dominant-baseline="alphabetic" fill-opacity="1">2</text><path fill="none" stroke="rgb(37,37,37)" paint-order="fill stroke markers" d=" M 907.5 440.5 L 907.5 443.5" stroke-opacity="1" stroke-miterlimit="10"/><text fill="rgb(37,37,37)" stroke="none" font-family="geogebra-serif, serif" font-size="12px" font-style="normal" font-weight="bold" text-decoration="normal" x="991" y="456" text-anchor="start" dominant-baseline="alphabetic" fill-opacity="1">3</text><text fill="none" stroke="rgb(255,255,255)" font-family="geogebra-serif, serif" font-size="12px" font-style="normal" font-weight="bold" text-decoration="normal" x="991" y="456" text-anchor="start" dominant-baseline="alphabetic" stroke-opacity="1" stroke-linejoin="bevel" stroke-miterlimit="10" stroke-width="3">3</text><text fill="rgb(37,37,37)" stroke="none" font-family="geogebra-serif, serif" font-size="12px" font-style="normal" font-weight="bold" text-decoration="normal" x="991" y="456" text-anchor="start" dominant-baseline="alphabetic" fill-opacity="1">3</text><path fill="none" stroke="rgb(37,37,37)" paint-order="fill stroke markers" d=" M 993.5 440.5 L 993.5 443.5" stroke-opacity="1" stroke-miterlimit="10"/><text fill="rgb(37,37,37)" stroke="none" font-family="geogebra-serif, serif" font-size="12px" font-style="normal" font-weight="bold" text-decoration="normal" x="1078" y="456" text-anchor="start" dominant-baseline="alphabetic" fill-opacity="1">4</text><text fill="none" stroke="rgb(255,255,255)" font-family="geogebra-serif, serif" font-size="12px" font-style="normal" font-weight="bold" text-decoration="normal" x="1078" y="456" text-anchor="start" dominant-baseline="alphabetic" stroke-opacity="1" stroke-linejoin="bevel" stroke-miterlimit="10" stroke-width="3">4</text><text fill="rgb(37,37,37)" stroke="none" font-family="geogebra-serif, serif" font-size="12px" font-style="normal" font-weight="bold" text-decoration="normal" x="1078" y="456" text-anchor="start" dominant-baseline="alphabetic" fill-opacity="1">4</text><path fill="none" stroke="rgb(37,37,37)" paint-order="fill stroke markers" d=" M 1080.5 440.5 L 1080.5 443.5" stroke-opacity="1" stroke-miterlimit="10"/><text fill="rgb(37,37,37)" stroke="none" font-family="geogebra-serif, serif" font-size="12px" font-style="normal" font-weight="bold" text-decoration="normal" x="1164" y="456" text-anchor="start" dominant-baseline="alphabetic" fill-opacity="1">5</text><text fill="none" stroke="rgb(255,255,255)" font-family="geogebra-serif, serif" font-size="12px" font-style="normal" font-weight="bold" text-decoration="normal" x="1164" y="456" text-anchor="start" dominant-baseline="alphabetic" stroke-opacity="1" stroke-linejoin="bevel" stroke-miterlimit="10" stroke-width="3">5</text><text fill="rgb(37,37,37)" stroke="none" font-family="geogebra-serif, serif" font-size="12px" font-style="normal" font-weight="bold" text-decoration="normal" x="1164" y="456" text-anchor="start" dominant-baseline="alphabetic" fill-opacity="1">5</text><path fill="none" stroke="rgb(37,37,37)" paint-order="fill stroke markers" d=" M 1167.5 440.5 L 1167.5 443.5" stroke-opacity="1" stroke-miterlimit="10"/><text fill="rgb(37,37,37)" stroke="none" font-family="geogebra-serif, serif" font-size="12px" font-style="normal" font-weight="bold" text-decoration="normal" x="1251" y="456" text-anchor="start" dominant-baseline="alphabetic" fill-opacity="1">6</text><text fill="none" stroke="rgb(255,255,255)" font-family="geogebra-serif, serif" font-size="12px" font-style="normal" font-weight="bold" text-decoration="normal" x="1251" y="456" text-anchor="start" dominant-baseline="alphabetic" stroke-opacity="1" stroke-linejoin="bevel" stroke-miterlimit="10" stroke-width="3">6</text><text fill="rgb(37,37,37)" stroke="none" font-family="geogebra-serif, serif" font-size="12px" font-style="normal" font-weight="bold" text-decoration="normal" x="1251" y="456" text-anchor="start" dominant-baseline="alphabetic" fill-opacity="1">6</text><path fill="none" stroke="rgb(37,37,37)" paint-order="fill stroke markers" d=" M 1254.5 440.5 L 1254.5 443.5" stroke-opacity="1" stroke-miterlimit="10"/><text fill="rgb(37,37,37)" stroke="none" font-family="geogebra-serif, serif" font-size="12px" font-style="normal" font-weight="bold" text-decoration="normal" x="1338" y="456" text-anchor="start" dominant-baseline="alphabetic" fill-opacity="1">7</text><text fill="none" stroke="rgb(255,255,255)" font-family="geogebra-serif, serif" font-size="12px" font-style="normal" font-weight="bold" text-decoration="normal" x="1338" y="456" text-anchor="start" dominant-baseline="alphabetic" stroke-opacity="1" stroke-linejoin="bevel" stroke-miterlimit="10" stroke-width="3">7</text><text fill="rgb(37,37,37)" stroke="none" font-family="geogebra-serif, serif" font-size="12px" font-style="normal" font-weight="bold" text-decoration="normal" x="1338" y="456" text-anchor="start" dominant-baseline="alphabetic" fill-opacity="1">7</text><path fill="none" stroke="rgb(37,37,37)" paint-order="fill stroke markers" d=" M 1340.5 440.5 L 1340.5 443.5" stroke-opacity="1" stroke-miterlimit="10"/><text fill="rgb(37,37,37)" stroke="none" font-family="geogebra-serif, serif" font-size="12px" font-style="normal" font-weight="bold" text-decoration="normal" x="1425" y="456" text-anchor="start" dominant-baseline="alphabetic" fill-opacity="1">8</text><text fill="none" stroke="rgb(255,255,255)" font-family="geogebra-serif, serif" font-size="12px" font-style="normal" font-weight="bold" text-decoration="normal" x="1425" y="456" text-anchor="start" dominant-baseline="alphabetic" stroke-opacity="1" stroke-linejoin="bevel" stroke-miterlimit="10" stroke-width="3">8</text><text fill="rgb(37,37,37)" stroke="none" font-family="geogebra-serif, serif" font-size="12px" font-style="normal" font-weight="bold" text-decoration="normal" x="1425" y="456" text-anchor="start" dominant-baseline="alphabetic" fill-opacity="1">8</text><path fill="none" stroke="rgb(37,37,37)" paint-order="fill stroke markers" d=" M 1427.5 440.5 L 1427.5 443.5" stroke-opacity="1" stroke-miterlimit="10"/><text fill="rgb(37,37,37)" stroke="none" font-family="geogebra-serif, serif" font-size="12px" font-style="normal" font-weight="bold" text-decoration="normal" x="1511" y="456" text-anchor="start" dominant-baseline="alphabetic" fill-opacity="1">9</text><text fill="none" stroke="rgb(255,255,255)" font-family="geogebra-serif, serif" font-size="12px" font-style="normal" font-weight="bold" text-decoration="normal" x="1511" y="456" text-anchor="start" dominant-baseline="alphabetic" stroke-opacity="1" stroke-linejoin="bevel" stroke-miterlimit="10" stroke-width="3">9</text><text fill="rgb(37,37,37)" stroke="none" font-family="geogebra-serif, serif" font-size="12px" font-style="normal" font-weight="bold" text-decoration="normal" x="1511" y="456" text-anchor="start" dominant-baseline="alphabetic" fill-opacity="1">9</text><path fill="none" stroke="rgb(37,37,37)" paint-order="fill stroke markers" d=" M 1514.5 440.5 L 1514.5 443.5" stroke-opacity="1" stroke-miterlimit="10"/><path fill="none" stroke="rgb(37,37,37)" paint-order="fill stroke markers" d=" M 730.5 873.5 L 733.5 873.5" stroke-opacity="1" stroke-miterlimit="10"/><path fill="none" stroke="rgb(37,37,37)" paint-order="fill stroke markers" d=" M 730.5 787.5 L 733.5 787.5" stroke-opacity="1" stroke-miterlimit="10"/><path fill="none" stroke="rgb(37,37,37)" paint-order="fill stroke markers" d=" M 730.5 700.5 L 733.5 700.5" stroke-opacity="1" stroke-miterlimit="10"/><path fill="none" stroke="rgb(37,37,37)" paint-order="fill stroke markers" d=" M 730.5 613.5 L 733.5 613.5" stroke-opacity="1" stroke-miterlimit="10"/><path fill="none" stroke="rgb(37,37,37)" paint-order="fill stroke markers" d=" M 730.5 526.5 L 733.5 526.5" stroke-opacity="1" stroke-miterlimit="10"/><path fill="none" stroke="rgb(37,37,37)" paint-order="fill stroke markers" d=" M 730.5 353.5 L 733.5 353.5" stroke-opacity="1" stroke-miterlimit="10"/><path fill="none" stroke="rgb(37,37,37)" paint-order="fill stroke markers" d=" M 730.5 266.5 L 733.5 266.5" stroke-opacity="1" stroke-miterlimit="10"/><path fill="none" stroke="rgb(37,37,37)" paint-order="fill stroke markers" d=" M 730.5 179.5 L 733.5 179.5" stroke-opacity="1" stroke-miterlimit="10"/><path fill="none" stroke="rgb(37,37,37)" paint-order="fill stroke markers" d=" M 730.5 92.5 L 733.5 92.5" stroke-opacity="1" stroke-miterlimit="10"/><text fill="rgb(37,37,37)" stroke="none" font-family="geogebra-serif, serif" font-size="12px" font-style="normal" font-weight="bold" text-decoration="normal" x="714" y="878" text-anchor="start" dominant-baseline="alphabetic" fill-opacity="1">–5</text><text fill="none" stroke="rgb(255,255,255)" font-family="geogebra-serif, serif" font-size="12px" font-style="normal" font-weight="bold" text-decoration="normal" x="714" y="878" text-anchor="start" dominant-baseline="alphabetic" stroke-opacity="1" stroke-linejoin="bevel" stroke-miterlimit="10" stroke-width="3">–5</text><text fill="rgb(37,37,37)" stroke="none" font-family="geogebra-serif, serif" font-size="12px" font-style="normal" font-weight="bold" text-decoration="normal" x="714" y="878" text-anchor="start" dominant-baseline="alphabetic" fill-opacity="1">–5</text><text fill="rgb(37,37,37)" stroke="none" font-family="geogebra-serif, serif" font-size="12px" font-style="normal" font-weight="bold" text-decoration="normal" x="714" y="792" text-anchor="start" dominant-baseline="alphabetic" fill-opacity="1">–4</text><text fill="none" stroke="rgb(255,255,255)" font-family="geogebra-serif, serif" font-size="12px" font-style="normal" font-weight="bold" text-decoration="normal" x="714" y="792" text-anchor="start" dominant-baseline="alphabetic" stroke-opacity="1" stroke-linejoin="bevel" stroke-miterlimit="10" stroke-width="3">–4</text><text fill="rgb(37,37,37)" stroke="none" font-family="geogebra-serif, serif" font-size="12px" font-style="normal" font-weight="bold" text-decoration="normal" x="714" y="792" text-anchor="start" dominant-baseline="alphabetic" fill-opacity="1">–4</text><text fill="rgb(37,37,37)" stroke="none" font-family="geogebra-serif, serif" font-size="12px" font-style="normal" font-weight="bold" text-decoration="normal" x="714" y="705" text-anchor="start" dominant-baseline="alphabetic" fill-opacity="1">–3</text><text fill="none" stroke="rgb(255,255,255)" font-family="geogebra-serif, serif" font-size="12px" font-style="normal" font-weight="bold" text-decoration="normal" x="714" y="705" text-anchor="start" dominant-baseline="alphabetic" stroke-opacity="1" stroke-linejoin="bevel" stroke-miterlimit="10" stroke-width="3">–3</text><text fill="rgb(37,37,37)" stroke="none" font-family="geogebra-serif, serif" font-size="12px" font-style="normal" font-weight="bold" text-decoration="normal" x="714" y="705" text-anchor="start" dominant-baseline="alphabetic" fill-opacity="1">–3</text><text fill="rgb(37,37,37)" stroke="none" font-family="geogebra-serif, serif" font-size="12px" font-style="normal" font-weight="bold" text-decoration="normal" x="714" y="618" text-anchor="start" dominant-baseline="alphabetic" fill-opacity="1">–2</text><text fill="none" stroke="rgb(255,255,255)" font-family="geogebra-serif, serif" font-size="12px" font-style="normal" font-weight="bold" text-decoration="normal" x="714" y="618" text-anchor="start" dominant-baseline="alphabetic" stroke-opacity="1" stroke-linejoin="bevel" stroke-miterlimit="10" stroke-width="3">–2</text><text fill="rgb(37,37,37)" stroke="none" font-family="geogebra-serif, serif" font-size="12px" font-style="normal" font-weight="bold" text-decoration="normal" x="714" y="618" text-anchor="start" dominant-baseline="alphabetic" fill-opacity="1">–2</text><text fill="rgb(37,37,37)" stroke="none" font-family="geogebra-serif, serif" font-size="12px" font-style="normal" font-weight="bold" text-decoration="normal" x="714" y="531" text-anchor="start" dominant-baseline="alphabetic" fill-opacity="1">–1</text><text fill="none" stroke="rgb(255,255,255)" font-family="geogebra-serif, serif" font-size="12px" font-style="normal" font-weight="bold" text-decoration="normal" x="714" y="531" text-anchor="start" dominant-baseline="alphabetic" stroke-opacity="1" stroke-linejoin="bevel" stroke-miterlimit="10" stroke-width="3">–1</text><text fill="rgb(37,37,37)" stroke="none" font-family="geogebra-serif, serif" font-size="12px" font-style="normal" font-weight="bold" text-decoration="normal" x="714" y="531" text-anchor="start" dominant-baseline="alphabetic" fill-opacity="1">–1</text><text fill="rgb(37,37,37)" stroke="none" font-family="geogebra-serif, serif" font-size="12px" font-style="normal" font-weight="bold" text-decoration="normal" x="720" y="358" text-anchor="start" dominant-baseline="alphabetic" fill-opacity="1">1</text><text fill="none" stroke="rgb(255,255,255)" font-family="geogebra-serif, serif" font-size="12px" font-style="normal" font-weight="bold" text-decoration="normal" x="720" y="358" text-anchor="start" dominant-baseline="alphabetic" stroke-opacity="1" stroke-linejoin="bevel" stroke-miterlimit="10" stroke-width="3">1</text><text fill="rgb(37,37,37)" stroke="none" font-family="geogebra-serif, serif" font-size="12px" font-style="normal" font-weight="bold" text-decoration="normal" x="720" y="358" text-anchor="start" dominant-baseline="alphabetic" fill-opacity="1">1</text><text fill="rgb(37,37,37)" stroke="none" font-family="geogebra-serif, serif" font-size="12px" font-style="normal" font-weight="bold" text-decoration="normal" x="720" y="271" text-anchor="start" dominant-baseline="alphabetic" fill-opacity="1">2</text><text fill="none" stroke="rgb(255,255,255)" font-family="geogebra-serif, serif" font-size="12px" font-style="normal" font-weight="bold" text-decoration="normal" x="720" y="271" text-anchor="start" dominant-baseline="alphabetic" stroke-opacity="1" stroke-linejoin="bevel" stroke-miterlimit="10" stroke-width="3">2</text><text fill="rgb(37,37,37)" stroke="none" font-family="geogebra-serif, serif" font-size="12px" font-style="normal" font-weight="bold" text-decoration="normal" x="720" y="271" text-anchor="start" dominant-baseline="alphabetic" fill-opacity="1">2</text><text fill="rgb(37,37,37)" stroke="none" font-family="geogebra-serif, serif" font-size="12px" font-style="normal" font-weight="bold" text-decoration="normal" x="720" y="184" text-anchor="start" dominant-baseline="alphabetic" fill-opacity="1">3</text><text fill="none" stroke="rgb(255,255,255)" font-family="geogebra-serif, serif" font-size="12px" font-style="normal" font-weight="bold" text-decoration="normal" x="720" y="184" text-anchor="start" dominant-baseline="alphabetic" stroke-opacity="1" stroke-linejoin="bevel" stroke-miterlimit="10" stroke-width="3">3</text><text fill="rgb(37,37,37)" stroke="none" font-family="geogebra-serif, serif" font-size="12px" font-style="normal" font-weight="bold" text-decoration="normal" x="720" y="184" text-anchor="start" dominant-baseline="alphabetic" fill-opacity="1">3</text><text fill="rgb(37,37,37)" stroke="none" font-family="geogebra-serif, serif" font-size="12px" font-style="normal" font-weight="bold" text-decoration="normal" x="720" y="97" text-anchor="start" dominant-baseline="alphabetic" fill-opacity="1">4</text><text fill="none" stroke="rgb(255,255,255)" font-family="geogebra-serif, serif" font-size="12px" font-style="normal" font-weight="bold" text-decoration="normal" x="720" y="97" text-anchor="start" dominant-baseline="alphabetic" stroke-opacity="1" stroke-linejoin="bevel" stroke-miterlimit="10" stroke-width="3">4</text><text fill="rgb(37,37,37)" stroke="none" font-family="geogebra-serif, serif" font-size="12px" font-style="normal" font-weight="bold" text-decoration="normal" x="720" y="97" text-anchor="start" dominant-baseline="alphabetic" fill-opacity="1">4</text><text fill="rgb(37,37,37)" stroke="none" font-family="geogebra-serif, serif" font-size="12px" font-style="normal" font-weight="bold" text-decoration="normal" x="720" y="456" text-anchor="start" dominant-baseline="alphabetic" fill-opacity="1">0</text><text fill="none" stroke="rgb(255,255,255)" font-family="geogebra-serif, serif" font-size="12px" font-style="normal" font-weight="bold" text-decoration="normal" x="720" y="456" text-anchor="start" dominant-baseline="alphabetic" stroke-opacity="1" stroke-linejoin="bevel" stroke-miterlimit="10" stroke-width="3">0</text><text fill="rgb(37,37,37)" stroke="none" font-family="geogebra-serif, serif" font-size="12px" font-style="normal" font-weight="bold" text-decoration="normal" x="720" y="456" text-anchor="start" dominant-baseline="alphabetic" fill-opacity="1">0</text><path fill="none" stroke="rgb(0,153,255)" paint-order="fill stroke markers" d=" M 0.9999999999998863 440.0235692453522 L 0.9999999999998863 440.0237833461236 L 0.9999999999998863 440.0235692453522 L 2 440.02335266267784 L 2 440.02335266267784 L 2.9999999999998863 440.0231335693297 L 2.9999999999998863 440.0231335693297 L 4 440.0229119362035 L 4 440.0229119362035 L 5 440.02268773385765 L 5 440.02268773385765 L 6 440.02246093250915 L 6 440.02246093250915 L 7 440.0222315020298 L 7 440.0222315020298 L 7.999999999999886 440.0219994119421 L 7.999999999999886 440.0219994119421 L 9 440.0217646314153 L 9 440.0217646314153 L 10 440.0215271292613 L 10 440.0215271292613 L 11 440.02128687393036 L 11 440.02128687393036 L 12 440.02104383350706 L 12 440.02104383350706 L 12.999999999999886 440.020797975706 L 12.999999999999886 440.020797975706 L 14 440.0205492678675 L 14 440.0205492678675 L 14.999999999999886 440.0202976769533 L 14.999999999999886 440.0202976769533 L 16 440.02004316954225 L 16 440.02004316954225 L 17 440.01978571182553 L 17 440.01978571182553 L 18 440.01952526960264 L 18 440.01952526960264 L 19 440.0192618082765 L 19 440.0192618082765 L 19.999999999999886 440.01899529284907 L 19.999999999999886 440.01899529284907 L 21 440.01872568791646 L 21 440.01872568791646 L 22 440.01845295766446 L 22 440.01845295766446 L 23 440.0181770658637 L 23 440.0181770658637 L 24 440.01789797586486 L 24 440.01789797586486 L 24.999999999999886 440.0176156505937 L 24.999999999999886 440.0176156505937 L 26 440.0173300525462 L 26 440.0173300525462 L 27 440.0170411437836 L 27 440.0170411437836 L 28 440.0167488859275 L 28 440.0167488859275 L 29 440.0164532401543 L 29 440.0164532401543 L 29.999999999999886 440.0161541671906 L 29.999999999999886 440.0161541671906 L 31 440.0158516273077 L 31 440.0158516273077 L 31.999999999999886 440.0155455803163 L 31.999999999999886 440.0155455803163 L 33 440.0152359855612 L 33 440.0152359855612 L 34 440.014922801916 L 34 440.014922801916 L 35 440.0146059877774 L 35 440.0146059877774 L 36 440.01428550106 L 36 440.01428550106 L 36.999999999999886 440.01396129919044 L 36.999999999999886 440.01396129919044 L 38 440.01363333910183 L 38 440.01363333910183 L 39 440.01330157722816 L 39 440.01330157722816 L 40 440.0129659694983 L 40 440.0129659694983 L 41 440.0126264713301 L 41 440.0126264713301 L 41.999999999999886 440.0122830376249 L 41.999999999999886 440.0122830376249 L 43 440.0119356227611 L 43 440.0119356227611 L 43.999999999999886 440.0115841805881 L 43.999999999999886 440.0115841805881 L 45 440.01122866442057 L 45 440.01122866442057 L 46 440.01086902703184 L 46 440.01086902703184 L 47 440.0105052206478 L 47 440.0105052206478 L 48 440.0101371969406 L 48 440.0101371969406 L 48.999999999999886 440.009764907022 L 48.999999999999886 440.009764907022 L 50 440.00938830143724 L 50 440.00938830143724 L 51 440.0090073301581 L 51 440.0090073301581 L 52 440.00862194257655 L 52 440.00862194257655 L 53 440.00823208749784 L 53 440.00823208749784 L 53.999999999999886 440.00783771313377 L 53.999999999999886 440.00783771313377 L 55 440.0074387670957 L 55 440.0074387670957 L 56.000000000000114 440.00703519638796 L 56.000000000000114 440.00703519638796 L 57 440.00662694740026 L 57 440.00662694740026 L 58 440.00621396590094 L 58 440.00621396590094 L 58.999999999999886 440.0057961970297 L 58.999999999999886 440.0057961970297 L 60 440.00537358529033 L 60 440.00537358529033 L 60.999999999999886 440.00494607454317 L 60.999999999999886 440.00494607454317 L 62 440.0045136079979 L 62 440.0045136079979 L 63 440.00407612820584 L 63 440.00407612820584 L 64 440.0036335770523 L 64 440.0036335770523 L 65 440.0031858957489 L 65 440.0031858957489 L 65.99999999999989 440.00273302482594 L 65.99999999999989 440.00273302482594 L 67 440.00227490412414 L 67 440.00227490412414 L 68 440.0018114727869 L 68 440.0018114727869 L 69 440.00134266925227 L 69 440.00134266925227 L 70 440.0008684312444 L 70 440.0008684312444 L 70.99999999999989 440.0003886957658 L 70.99999999999989 440.0003886957658 L 72 439.99990339908857 L 72 439.99990339908857 L 72.99999999999989 439.9994124767461 L 72.99999999999989 439.9994124767461 L 74 439.99891586352436 L 74 439.99891586352436 L 75 439.99841349345354 L 75 439.99841349345354 L 76 439.99790529979896 L 76 439.99790529979896 L 77 439.9973912150523 L 77 439.9973912150523 L 77.99999999999989 439.99687117092276 L 77.99999999999989 439.99687117092276 L 79 439.9963450983279 L 79 439.9963450983279 L 80 439.9958129273844 L 80 439.9958129273844 L 81 439.9952745873989 L 81 439.9952745873989 L 82 439.9947300068585 L 82 439.9947300068585 L 82.99999999999989 439.9941791134213 L 82.99999999999989 439.9941791134213 L 84 439.99362183390684 L 84 439.99362183390684 L 85.00000000000011 439.9930580942863 L 85.00000000000011 439.9930580942863 L 86 439.99248781967276 L 86 439.99248781967276 L 87 439.9919109343111 L 87 439.9919109343111 L 87.99999999999989 439.9913273615681 L 87.99999999999989 439.9913273615681 L 89 439.9907370239222 L 89 439.9907370239222 L 89.99999999999989 439.9901398429531 L 89.99999999999989 439.9901398429531 L 91 439.9895357393316 L 91 439.9895357393316 L 92 439.9889246328087 L 92 439.9889246328087 L 93 439.9883064422052 L 93 439.9883064422052 L 94 439.98768108540105 L 94 439.98768108540105 L 95 439.987048479324 L 95 439.987048479324 L 96 439.98640853993885 L 96 439.98640853993885 L 97 439.98576118223633 L 97 439.98576118223633 L 98 439.9851063202217 L 98 439.9851063202217 L 99 439.9844438669033 L 99 439.9844438669033 L 100 439.9837737342811 L 100 439.9837737342811 L 101 439.98309583333486 L 101 439.98309583333486 L 102 439.9824100740126 L 102 439.9824100740126 L 103 439.9817163652182 L 103 439.9817163652182 L 104 439.9810146147996 L 104 439.9810146147996 L 105 439.98030472953667 L 105 439.98030472953667 L 106 439.9795866151284 L 106 439.9795866151284 L 107 439.97886017618083 L 107 439.97886017618083 L 108 439.97812531619405 L 108 439.97812531619405 L 109 439.97738193754947 L 109 439.97738193754947 L 110 439.976629941497 L 110 439.976629941497 L 111 439.97586922814173 L 111 439.97586922814173 L 112 439.9750996964308 L 112 439.9750996964308 L 113 439.9743212441399 L 113 439.9743212441399 L 114 439.9735337678597 L 114 439.9735337678597 L 115 439.9727371629822 L 115 439.9727371629822 L 116 439.97193132368665 L 116 439.97193132368665 L 116.99999999999989 439.9711161429256 L 116.99999999999989 439.9711161429256 L 118 439.9702915124109 L 118 439.9702915124109 L 119 439.96945732259877 L 119 439.96945732259877 L 120 439.9686134626758 L 120 439.9686134626758 L 121 439.967759820544 L 121 439.967759820544 L 122 439.9668962828058 L 122 439.9668962828058 L 123 439.96602273474923 L 123 439.96602273474923 L 124 439.96513906033243 L 124 439.96513906033243 L 125 439.96424514216847 L 125 439.96424514216847 L 126 439.9633408615095 L 126 439.9633408615095 L 127 439.96242609823133 L 127 439.96242609823133 L 128 439.961500730817 L 128 439.961500730817 L 129 439.9605646363412 L 129 439.9605646363412 L 130 439.9596176904534 L 130 439.9596176904534 L 131 439.95865976736167 L 131 439.95865976736167 L 132 439.95769073981586 L 132 439.95769073981586 L 133 439.9567104790907 L 133 439.9567104790907 L 134 439.9557188549687 L 134 439.9557188549687 L 135 439.95471573572297 L 135 439.95471573572297 L 136 439.95370098809946 L 136 439.95370098809946 L 137 439.9526744772994 L 137 439.9526744772994 L 138 439.95163606696156 L 138 439.95163606696156 L 139 439.9505856191439 L 139 439.9505856191439 L 140 439.94952299430525 L 140 439.94952299430525 L 141 439.948448051287 L 141 439.948448051287 L 142 439.9473606472941 L 142 439.9473606472941 L 143 439.94626063787615 L 143 439.94626063787615 L 144 439.9451478769083 L 144 439.9451478769083 L 145 439.9440222165719 L 145 439.9440222165719 L 145.9999999999999 439.94288350733456 L 145.9999999999999 439.94288350733456 L 147 439.9417315979306 L 147 439.9417315979306 L 148 439.94056633534075 L 148 439.94056633534075 L 149 439.939387564772 L 149 439.939387564772 L 150 439.9381951296369 L 150 439.9381951296369 L 151 439.9369888715328 L 151 439.9369888715328 L 152 439.9357686302208 L 152 439.9357686302208 L 153 439.93453424360456 L 153 439.93453424360456 L 154 439.9332855477085 L 154 439.9332855477085 L 155 439.9320223766565 L 155 439.9320223766565 L 156 439.93074456264924 L 156 439.93074456264924 L 157 439.9294519359424 L 157 439.9294519359424 L 158 439.9281443248239 L 158 439.9281443248239 L 159 439.92682155559123 L 159 439.92682155559123 L 160 439.9254834525282 L 160 439.9254834525282 L 161 439.9241298378817 L 161 439.9241298378817 L 162 439.922760531838 L 162 439.922760531838 L 163 439.921375352499 L 163 439.921375352499 L 164 439.9199741158581 L 164 439.9199741158581 L 165 439.9185566357754 L 165 439.9185566357754 L 166 439.91712272395347 L 166 439.91712272395347 L 167 439.9156721899119 L 167 439.9156721899119 L 168 439.9142048409624 L 168 439.9142048409624 L 169 439.91272048218275 L 169 439.91272048218275 L 170 439.91121891639136 L 170 439.91121891639136 L 171 439.9096999441208 L 171 439.9096999441208 L 172 439.90816336359126 L 172 439.90816336359126 L 173 439.9066089706841 L 173 439.9066089706841 L 174 439.90503655891416 L 174 439.90503655891416 L 174.9999999999999 439.90344591940294 L 174.9999999999999 439.90344591940294 L 176 439.9018368408505 L 176 439.9018368408505 L 177 439.9002091095074 L 177 439.9002091095074 L 178 439.8985625091464 L 178 439.8985625091464 L 179 439.89689682103375 L 179 439.89689682103375 L 180 439.8952118239 L 180 439.8952118239 L 181 439.89350729391083 L 181 439.89350729391083 L 182 439.89178300463703 L 182 439.89178300463703 L 183 439.8900387270247 L 183 439.8900387270247 L 184 439.88827422936464 L 184 439.88827422936464 L 185 439.8864892772616 L 185 439.8864892772616 L 186 439.88468363360323 L 186 439.88468363360323 L 187 439.8828570585285 L 187 439.8828570585285 L 188 439.88100930939584 L 188 439.88100930939584 L 189 439.8791401407509 L 189 439.8791401407509 L 190 439.8772493042941 L 190 439.8772493042941 L 191 439.8753365488473 L 191 439.8753365488473 L 192 439.8734016203209 L 192 439.8734016203209 L 193 439.87144426167964 L 193 439.87144426167964 L 194 439.8694642129087 L 194 439.8694642129087 L 195 439.8674612109792 L 195 439.8674612109792 L 196 439.865434989813 L 196 439.865434989813 L 197 439.86338528024777 L 197 439.86338528024777 L 198 439.86131181000076 L 198 439.86131181000076 L 199 439.85921430363294 L 199 439.85921430363294 L 200 439.8570924825123 L 200 439.8570924825123 L 201 439.85494606477704 L 201 439.85494606477704 L 202 439.85277476529774 L 202 439.85277476529774 L 203 439.85057829563976 L 203 439.85057829563976 L 204 439.8483563640249 L 204 439.8483563640249 L 205 439.8461086752926 L 205 439.8461086752926 L 206 439.84383493086074 L 206 439.84383493086074 L 207 439.84153482868584 L 207 439.84153482868584 L 208 439.83920806322334 L 208 439.83920806322334 L 209 439.8368543253864 L 209 439.8368543253864 L 209.9999999999999 439.8344733025055 L 209.9999999999999 439.8344733025055 L 211 439.8320646782864 L 211 439.8320646782864 L 212 439.8296281327683 L 212 439.8296281327683 L 213 439.82716334228144 L 213 439.82716334228144 L 214 439.8246699794039 L 214 439.8246699794039 L 215 439.82214771291837 L 215 439.82214771291837 L 216 439.81959620776786 L 216 439.81959620776786 L 217 439.8170151250113 L 217 439.8170151250113 L 218 439.81440412177875 L 218 439.81440412177875 L 219 439.8117628512254 L 219 439.8117628512254 L 220 439.80909096248587 L 220 439.80909096248587 L 221 439.80638810062743 L 221 439.80638810062743 L 222 439.8036539066029 L 222 439.8036539066029 L 223 439.800888017203 L 223 439.800888017203 L 224 439.798090065008 L 224 439.798090065008 L 225 439.795259678339 L 225 439.795259678339 L 225.99999999999994 439.79239648120836 L 225.99999999999994 439.79239648120836 L 226.99999999999994 439.7895000932701 L 226.99999999999994 439.7895000932701 L 228 439.78657012976913 L 228 439.78657012976913 L 229 439.78360620149016 L 229 439.78360620149016 L 230 439.780607914706 L 230 439.780607914706 L 230.99999999999994 439.7775748711255 L 230.99999999999994 439.7775748711255 L 231.99999999999994 439.7745066678401 L 231.99999999999994 439.7745066678401 L 232.99999999999994 439.7714028972709 L 232.99999999999994 439.7714028972709 L 234 439.76826314711417 L 234 439.76826314711417 L 235 439.76508700028654 L 235 439.76508700028654 L 236 439.76187403487 L 236 439.76187403487 L 236.99999999999994 439.7586238240553 L 236.99999999999994 439.7586238240553 L 237.99999999999994 439.7553359360857 L 237.99999999999994 439.7553359360857 L 238.99999999999994 439.75200993419935 L 238.99999999999994 439.75200993419935 L 240 439.74864537657135 L 240 439.74864537657135 L 241 439.74524181625515 L 241 439.74524181625515 L 242 439.7417988011231 L 242 439.7417988011231 L 242.99999999999994 439.73831587380624 L 242.99999999999994 439.73831587380624 L 243.99999999999994 439.7347925716338 L 243.99999999999994 439.7347925716338 L 244.99999999999994 439.7312284265717 L 244.99999999999994 439.7312284265717 L 246 439.7276229651602 L 246 439.7276229651602 L 247 439.7239757084511 L 247 439.7239757084511 L 248 439.7202861719442 L 248 439.7202861719442 L 248.99999999999994 439.7165538655228 L 248.99999999999994 439.7165538655228 L 249.99999999999994 439.7127782933888 L 249.99999999999994 439.7127782933888 L 251 439.7089589539964 L 251 439.7089589539964 L 252 439.7050953399861 L 252 439.7050953399861 L 253 439.70118693811685 L 253 439.70118693811685 L 254 439.69723322919793 L 254 439.69723322919793 L 254.99999999999994 439.6932336880201 L 254.99999999999994 439.6932336880201 L 255.99999999999994 439.68918778328583 L 255.99999999999994 439.68918778328583 L 257 439.6850949775386 L 257 439.6850949775386 L 258 439.68095472709166 L 258 439.68095472709166 L 259 439.6767664819556 L 259 439.6767664819556 L 259.99999999999994 439.67252968576554 L 259.99999999999994 439.67252968576554 L 260.99999999999994 439.66824377570697 L 260.99999999999994 439.66824377570697 L 261.99999999999994 439.6639081824412 L 261.99999999999994 439.6639081824412 L 263 439.6595223300297 L 263 439.6595223300297 L 264 439.6550856358574 L 264 439.6550856358574 L 265 439.65059751055543 L 265 439.65059751055543 L 265.99999999999994 439.646057357923 L 265.99999999999994 439.646057357923 L 266.99999999999994 439.64146457484776 L 266.99999999999994 439.64146457484776 L 267.99999999999994 439.6368185512262 L 267.99999999999994 439.6368185512262 L 269 439.6321186698823 L 269 439.6321186698823 L 270 439.62736430648545 L 270 439.62736430648545 L 271 439.62255482946784 L 271 439.62255482946784 L 271.99999999999994 439.6176895999403 L 271.99999999999994 439.6176895999403 L 272.99999999999994 439.6127679716076 L 272.99999999999994 439.6127679716076 L 273.99999999999994 439.60778929068226 L 273.99999999999994 439.60778929068226 L 275 439.60275289579835 L 275 439.60275289579835 L 276 439.59765811792295 L 276 439.59765811792295 L 277 439.59250428026763 L 277 439.59250428026763 L 277.99999999999994 439.58729069819856 L 277.99999999999994 439.58729069819856 L 278.99999999999994 439.58201667914534 L 278.99999999999994 439.58201667914534 L 280 439.5766815225093 L 280 439.5766815225093 L 281 439.57128451957016 L 281 439.57128451957016 L 282 439.56582495339205 L 282 439.56582495339205 L 283 439.56030209872824 L 283 439.56030209872824 L 283.99999999999994 439.5547152219247 L 283.99999999999994 439.5547152219247 L 284.99999999999994 439.54906358082286 L 284.99999999999994 439.54906358082286 L 286 439.54334642466074 L 286 439.54334642466074 L 287 439.5375629939734 L 287 439.5375629939734 L 288 439.53171252049214 L 288 439.53171252049214 L 289 439.5257942270421 L 289 439.5257942270421 L 289.99999999999994 439.5198073274395 L 289.99999999999994 439.5198073274395 L 290.99999999999994 439.51375102638673 L 290.99999999999994 439.51375102638673 L 292 439.50762451936697 L 292 439.50762451936697 L 293 439.50142699253735 L 293 439.50142699253735 L 294 439.49515762262064 L 294 439.49515762262064 L 294.99999999999994 439.4888155767961 L 294.99999999999994 439.4888155767961 L 295.99999999999994 439.4824000125887 L 295.99999999999994 439.4824000125887 L 296.99999999999994 439.47591007775725 L 296.99999999999994 439.47591007775725 L 298 439.4693449101812 L 298 439.4693449101812 L 299 439.4627036377461 L 299 439.4627036377461 L 300 439.45598537822775 L 300 439.45598537822775 L 300.99999999999994 439.4491892391751 L 300.99999999999994 439.4491892391751 L 301.99999999999994 439.4423143177915 L 301.99999999999994 439.44231431779156 L 302.99999999999994 439.435359700815 L 302.99999999999994 439.435359700815 L 304 439.4283244643968 L 304 439.4283244643968 L 305 439.42120767397864 L 305 439.42120767397864 L 306 439.41400838416877 L 306 439.41400838416877 L 306.99999999999994 439.4067256386162 L 306.99999999999994 439.4067256386162 L 307.99999999999994 439.3993584698836 L 307.99999999999994 439.3993584698836 L 309 439.39190589931917 L 309 439.39190589931917 L 310 439.3843669369261 L 310 439.3843669369261 L 311 439.37674058123133 L 311 439.37674058123133 L 312 439.3690258191527 L 312 439.3690258191527 L 312.99999999999994 439.361221625864 L 312.99999999999994 439.361221625864 L 313.99999999999994 439.3533269646591 L 313.99999999999994 439.3533269646591 L 315 439.3453407868141 L 315 439.3453407868141 L 316 439.3372620314482 L 316 439.3372620314482 L 317 439.32908962538227 L 317 439.32908962538227 L 318 439.32082248299713 L 318 439.32082248299713 L 318.99999999999994 439.3124595060886 L 318.99999999999994 439.3124595060886 L 319.99999999999994 439.3039995837218 L 319.99999999999994 439.3039995837218 L 321 439.29544159208393 L 321 439.29544159208393 L 322 439.2867843943344 L 322 439.2867843943344 L 323 439.27802684045434 L 323 439.27802684045434 L 323.99999999999994 439.26916776709345 L 323.99999999999994 439.26916776709345 L 324.99999999999994 439.2602059974158 L 324.99999999999994 439.2602059974158 L 325.99999999999994 439.25114034094315 L 325.99999999999994 439.25114034094315 L 327 439.2419695933971 L 327 439.2419695933971 L 328 439.23269253653876 L 328 439.23269253653876 L 329 439.2233079380075 L 329 439.2233079380075 L 329.99999999999994 439.2138145511567 L 329.99999999999994 439.2138145511567 L 330.99999999999994 439.2042111148883 L 330.99999999999994 439.2042111148883 L 331.99999999999994 439.1944963534854 L 331.99999999999994 439.1944963534854 L 333 439.18466897644265 L 333 439.18466897644265 L 334 439.17472767829497 L 334 439.17472767829497 L 335 439.1646711384439 L 335 439.1646711384439 L 335.99999999999994 439.1544980209825 L 335.99999999999994 439.1544980209825 L 336.99999999999994 439.14420697451754 L 336.99999999999994 439.14420697451754 L 337.99999999999994 439.1337966319902 L 337.99999999999994 439.1337966319902 L 339 439.12326561049446 L 339 439.12326561049446 L 340 439.11261251109323 L 340 439.11261251109323 L 341 439.10183591863284 L 341 439.10183591863284 L 341.99999999999994 439.0909344015547 L 341.99999999999994 439.0909344015547 L 342.99999999999994 439.07990651170525 L 342.99999999999994 439.07990651170525 L 344 439.0687507841437 L 344 439.0687507841437 L 345 439.0574657369473 L 345 439.0574657369473 L 346 439.04604987101453 L 346 439.04604987101453 L 347 439.0345016698661 L 347 439.0345016698661 L 347.99999999999994 439.0228195994431 L 347.99999999999994 439.0228195994431 L 348.99999999999994 439.01100210790366 L 348.99999999999994 439.01100210790366 L 350 438.99904762541655 L 350 438.99904762541655 L 351 438.98695456395274 L 351 438.98695456395274 L 352 438.97472131707445 L 352 438.97472131707445 L 352.99999999999994 438.9623462597216 L 352.99999999999994 438.9623462597216 L 353.99999999999994 438.9498277479962 L 353.99999999999994 438.9498277479962 L 354.99999999999994 438.93716411894377 L 354.99999999999994 438.93716411894377 L 356 438.92435369033245 L 356 438.92435369033245 L 357 438.91139476042974 L 357 438.91139476042974 L 358 438.8982856077761 L 358 438.8982856077761 L 358.99999999999994 438.8850244909565 L 358.99999999999994 438.8850244909565 L 359.99999999999994 438.8716096483691 L 359.99999999999994 438.8716096483691 L 360.99999999999994 438.85803929799124 L 360.99999999999994 438.85803929799124 L 362 438.8443116371425 L 362 438.8443116371425 L 363 438.8304248422455 L 363 438.8304248422455 L 364 438.81637706858356 L 364 438.81637706858356 L 364.99999999999994 438.8021664500556 L 364.99999999999994 438.8021664500556 L 365.99999999999994 438.7877910989283 L 365.99999999999994 438.7877910989283 L 366.99999999999994 438.77324910558536 L 366.99999999999994 438.77324910558536 L 368 438.7585385382737 L 368 438.7585385382737 L 369 438.743657442847 L 369 438.743657442847 L 370 438.728603842506 L 370 438.728603842506 L 370.99999999999994 438.7133757375361 L 370.99999999999994 438.7133757375361 L 371.99999999999994 438.69797110504135 L 371.99999999999994 438.69797110504135 L 372.99999999999994 438.68238789867615 L 372.99999999999994 438.68238789867615 L 374 438.666624048373 L 374 438.666624048373 L 375 438.650677460068 L 375 438.650677460068 L 376 438.63454601542213 L 376 438.63454601542213 L 376.99999999999994 438.6182275715403 L 376.99999999999994 438.6182275715403 L 377.99999999999994 438.60171996068635 L 377.99999999999994 438.60171996068635 L 379 438.5850209899954 L 379 438.5850209899954 L 380 438.56812844118247 L 380 438.56812844118247 L 381 438.5510400702475 L 381 438.5510400702475 L 382 438.5337536071776 L 382 438.5337536071776 L 382.99999999999994 438.5162667556454 L 382.99999999999994 438.5162667556454 L 383.99999999999994 438.49857719270403 L 383.99999999999994 438.49857719270403 L 385 438.48068256847847 L 385 438.48068256847847 L 386 438.46258050585345 L 386 438.46258050585345 L 387 438.44426860015767 L 387 438.44426860015767 L 387.99999999999994 438.42574441884426 L 387.99999999999994 438.42574441884426 L 388.99999999999994 438.4070055011679 L 388.99999999999994 438.4070055011679 L 389.99999999999994 438.38804935785765 L 389.99999999999994 438.38804935785765 L 391 438.3688734707864 L 391 438.3688734707864 L 392 438.3494752926365 L 392 438.3494752926365 L 393 438.329852246561 L 393 438.329852246561 L 393.99999999999994 438.3100017258418 L 393.99999999999994 438.3100017258418 L 394.99999999999994 438.289921093543 L 394.99999999999994 438.289921093543 L 395.99999999999994 438.2696076821608 L 395.99999999999994 438.2696076821608 L 397 438.2490587932692 L 397 438.2490587932692 L 398 438.2282716971614 L 398 438.2282716971614 L 399 438.2072436324871 L 399 438.2072436324871 L 399.99999999999994 438.1859718058861 L 399.99999999999994 438.1859718058861 L 400.99999999999994 438.16445339161675 L 400.99999999999994 438.16445339161675 L 401.99999999999994 438.1426855311808 L 401.99999999999994 438.1426855311808 L 403 438.12066533294376 L 403 438.12066533294376 L 404 438.0983898717506 L 404 438.0983898717506 L 405 438.07585618853733 L 405 438.07585618853733 L 405.99999999999994 438.0530612899377 L 405.99999999999994 438.0530612899377 L 406.99999999999994 438.03000214788585 L 406.99999999999994 438.03000214788585 L 408 438.00667569921393 L 408 438.00667569921393 L 409 437.983078845245 L 409 437.983078845245 L 410 437.95920845138176 L 410 437.95920845138176 L 411 437.93506134668985 L 411 437.93506134668985 L 411.99999999999994 437.91063432347687 L 411.99999999999994 437.91063432347687 L 412.99999999999994 437.885924136866 L 412.99999999999994 437.885924136866 L 414 437.8609275043652 L 414 437.8609275043652 L 415 437.8356411054311 L 415 437.8356411054311 L 416 437.8100615810277 L 416 437.8100615810277 L 416.99999999999994 437.78418553318045 L 416.99999999999994 437.78418553318045 L 417.99999999999994 437.75800952452477 L 417.99999999999994 437.75800952452477 L 418.99999999999994 437.7315300778493 L 418.99999999999994 437.7315300778493 L 420 437.7047436756341 L 420 437.7047436756341 L 421 437.6776467595834 L 421 437.6776467595834 L 422 437.6502357301529 L 422 437.6502357301529 L 422.99999999999994 437.62250694607155 L 422.99999999999994 437.62250694607155 L 423.99999999999994 437.5944567238579 L 423.99999999999994 437.5944567238579 L 424.99999999999994 437.5660813373308 L 424.99999999999994 437.5660813373308 L 426 437.5373770171144 L 426 437.5373770171144 L 427 437.5083399501374 L 427 437.5083399501374 L 428 437.4789662791265 L 428 437.4789662791265 L 428.99999999999994 437.44925210209414 L 428.99999999999994 437.44925210209414 L 429.99999999999994 437.41919347181994 L 429.99999999999994 437.41919347181994 L 430.99999999999994 437.38878639532663 L 430.99999999999994 437.38878639532663 L 432 437.3580268333494 L 432 437.3580268333494 L 433 437.3269106997993 L 433 437.3269106997993 L 434 437.2954338612208 L 434 437.2954338612208 L 434.99999999999994 437.2635921362421 L 434.99999999999994 437.2635921362421 L 435.99999999999994 437.23138129502036 L 435.99999999999994 437.23138129502036 L 437 437.1987970586792 L 437 437.1987970586792 L 438 437.1658350987408 L 438 437.1658350987408 L 439 437.1324910365505 L 439 437.1324910365505 L 440 437.09876044269544 L 440 437.09876044269544 L 440.99999999999994 437.064638836416 L 440.99999999999994 437.064638836416 L 442 437.0301216850105 L 442 437.0301216850105 L 443 436.9952044032334 L 443 436.9952044032334 L 443.99999999999994 436.95988235268584 L 443.99999999999994 436.95988235268584 L 445 436.92415084119966 L 445 436.92415084119966 L 445.99999999999994 436.8880051222141 L 445.99999999999994 436.8880051222141 L 446.99999999999994 436.8514403941452 L 446.99999999999994 436.8514403941452 L 448 436.81445179974787 L 448 436.81445179974787 L 448.99999999999994 436.777034425471 L 448.99999999999994 436.777034425471 L 449.99999999999994 436.7391833008044 L 449.99999999999994 436.7391833008044 L 451 436.70089339761864 L 451 436.70089339761864 L 451.99999999999994 436.66215962949707 L 451.99999999999994 436.66215962949707 L 452.99999999999994 436.6229768510603 L 452.99999999999994 436.6229768510603 L 454 436.58333985728245 L 454 436.58333985728245 L 454.99999999999994 436.5432433827999 L 454.99999999999994 436.5432433827999 L 456 436.50268210121186 L 456 436.50268210121186 L 457 436.4616506243726 L 457 436.4616506243726 L 457.99999999999994 436.4201435016759 L 457.99999999999994 436.4201435016759 L 459 436.37815521933095 L 459 436.37815521933095 L 460 436.33568019962973 L 460 436.33568019962973 L 460.99999999999994 436.2927128002064 L 460.99999999999994 436.2927128002064 L 462 436.2492473132874 L 462 436.2492473132874 L 463 436.20527796493354 L 463 436.20527796493354 L 463.99999999999994 436.16079891427285 L 463.99999999999994 436.16079891427285 L 465 436.1158042527246 L 465 436.1158042527246 L 466 436.07028800321467 L 466 436.07028800321467 L 466.99999999999994 436.02424411938114 L 466.99999999999994 436.02424411938114 L 468 435.9776664847716 L 468 435.9776664847716 L 469 435.9305489120302 L 469 435.9305489120302 L 469.99999999999994 435.88288514207596 L 469.99999999999994 435.88288514207596 L 471 435.8346688432713 L 471 435.8346688432713 L 472 435.78589361058096 L 472 435.78589361058096 L 472.99999999999994 435.7365529647209 L 472.99999999999994 435.7365529647209 L 474 435.6866403512981 L 474 435.6866403512981 L 474.99999999999994 435.6361491399393 L 474.99999999999994 435.6361491399393 L 475.99999999999994 435.5850726234106 L 475.99999999999994 435.5850726234106 L 477 435.5334040167266 L 477 435.5334040167266 L 478 435.48113645624846 L 478 435.48113645624846 L 478.99999999999994 435.4282629987728 L 478.99999999999994 435.4282629987728 L 480 435.3747766206091 L 480 435.3747766206091 L 481 435.32067021664665 L 481 435.32067021664665 L 481.99999999999994 435.2659365994106 L 481.99999999999994 435.2659365994106 L 483 435.2105684981076 L 483 435.2105684981076 L 484 435.15455855765936 L 484 435.15455855765936 L 485 435.09789933772623 L 485 435.09789933772623 L 486 435.04058331171825 L 486 435.04058331171825 L 487 434.9826028657957 L 487 434.9826028657957 L 488 434.9239502978576 L 488 434.9239502978576 L 489 434.8646178165184 L 489 434.8646178165184 L 490 434.80459754007325 L 490 434.80459754007325 L 491 434.74388149545075 L 491 434.74388149545075 L 492 434.68246161715405 L 492 434.68246161715405 L 493 434.62032974618904 L 493 434.62032974618904 L 494 434.557477628981 L 494 434.557477628981 L 495 434.49389691627795 L 495 434.49389691627795 L 496 434.4295791620414 L 496 434.4295791620414 L 497 434.3645158223247 L 497 434.3645158223247 L 498 434.29869825413766 L 498 434.29869825413766 L 499 434.232117714299 L 499 434.232117714299 L 500 434.16476535827434 L 500 434.16476535827434 L 501 434.09663223900156 L 501 434.09663223900156 L 502 434.0277093057023 L 502 434.0277093057023 L 503 433.95798740267946 L 503 433.95798740267946 L 504 433.88745726810123 L 504 433.88745726810123 L 505 433.8161095327706 L 505 433.8161095327706 L 506 433.7439347188807 L 506 433.7439347188807 L 507 433.67092323875596 L 507 433.67092323875596 L 507.99999999999994 433.5970653935783 L 507.99999999999994 433.5970653935783 L 509 433.5223513720988 L 509 433.5223513720988 L 510 433.44677124933446 L 510 433.44677124933446 L 510.99999999999994 433.3703149852497 L 510.99999999999994 433.3703149852497 L 512 433.2929724234226 L 512 433.2929724234226 L 513 433.2147332896958 L 513 433.2147332896958 L 514 433.1355871908117 L 514 433.1355871908117 L 515 433.05552361303165 L 515 433.05552361303165 L 516 432.97453192073965 L 516 432.97453192073965 L 517 432.89260135502917 L 517 432.8926013550292 L 518 432.8097210322741 L 518 432.8097210322741 L 519 432.72587994268304 L 519 432.72587994268304 L 520 432.64106694883645 L 520 432.64106694883645 L 521 432.55527078420766 L 521 432.55527078420766 L 522 432.4684800516658 L 522 432.4684800516658 L 523 432.380683221962 L 523 432.380683221962 L 524 432.2918686321978 L 524 432.29186863219786 L 525 432.20202448427597 L 525 432.202024484276 L 526 432.11113884333304 L 526 432.11113884333304 L 527 432.019199636154 L 527 432.019199636154 L 528 431.9261946495685 L 528 431.9261946495685 L 529 431.8321115288285 L 529 431.8321115288285 L 530 431.7369377759669 L 530 431.7369377759669 L 531 431.64066074813763 L 531 431.64066074813763 L 532 431.54326765593584 L 532 431.54326765593584 L 533 431.44474556169905 L 533 431.44474556169905 L 534 431.3450813777887 L 534 431.3450813777887 L 535 431.2442618648513 L 535 431.2442618648513 L 536 431.1422736300601 L 536 431.1422736300601 L 537 431.0391031253356 L 537 431.0391031253356 L 538 430.9347366455461 L 538 430.9347366455461 L 539 430.8291603266868 L 539 430.8291603266868 L 540 430.72236014403865 L 540 430.72236014403865 L 541 430.61432191030474 L 541 430.61432191030474 L 542 430.50503127372605 L 542 430.50503127372605 L 543 430.3944737161747 L 543 430.3944737161747 L 544 430.28263455122556 L 544 430.28263455122556 L 545 430.1694989222053 L 545 430.1694989222053 L 546 430.0550518002188 L 546 430.0550518002188 L 547 429.9392779821525 L 547 429.9392779821525 L 548 429.8221620886552 L 548 429.8221620886552 L 549 429.7036885620949 L 549 429.7036885620949 L 550 429.583841664492 L 550 429.583841664492 L 551 429.4626054754289 L 551 429.4626054754289 L 552 429.33996388993506 L 552 429.33996388993506 L 553 429.2159006163475 L 553 429.2159006163475 L 554 429.0903991741467 L 554 429.09039917414674 L 555 428.96344289176756 L 555 428.96344289176756 L 556 428.8350149043843 L 556 428.8350149043843 L 557 428.70509815167054 L 557 428.70509815167054 L 558 428.57367537553273 L 558 428.5736753755328 L 559 428.44072911781797 L 559 428.44072911781797 L 560 428.30624171799434 L 560 428.30624171799434 L 561 428.1701953108054 L 561 428.1701953108054 L 562 428.03257182389655 L 562 428.0325718238966 L 563 427.8933529754147 L 563 427.8933529754147 L 564 427.7525202715794 L 564 427.7525202715794 L 565 427.6100550042262 L 565 427.6100550042262 L 566 427.4659382483216 L 566 427.4659382483216 L 567 427.3201508594491 L 567 427.3201508594491 L 568 427.17267347126557 L 568 427.1726734712656 L 569 427.0234864929294 L 569 427.0234864929294 L 570 426.8725701064974 L 570 426.8725701064974 L 571 426.7199042642925 L 571 426.7199042642925 L 572 426.56546868624065 L 572 426.56546868624065 L 573 426.4092428571766 L 573 426.4092428571766 L 574 426.25120602411897 L 574 426.25120602411897 L 575 426.0913371935132 L 575 426.0913371935132 L 576 425.92961512844283 L 576 425.92961512844283 L 577 425.76601834580845 L 577 425.76601834580845 L 578 425.6005251134739 L 578 425.6005251134739 L 579 425.43311344737924 L 579 425.43311344737924 L 580 425.2637611086206 L 580 425.2637611086206 L 581 425.09244560049586 L 581 425.09244560049586 L 582 424.91914416551606 L 582 424.9191441655161 L 583 424.7438337823827 L 583 424.7438337823827 L 584 424.56649116292914 L 584 424.56649116292914 L 585 424.3870927490273 L 585 424.3870927490273 L 586 424.2056147094582 L 586 424.2056147094582 L 587 424.0220329367459 L 587 424.0220329367459 L 588 423.83632304395564 L 588 423.83632304395564 L 589 423.6484603614538 L 589 423.6484603614538 L 590 423.45841993363086 L 590 423.45841993363086 L 591 423.2661765155868 L 591 423.2661765155868 L 592 423.0717045697768 L 592 423.0717045697768 L 593 422.8749782626194 L 593 422.8749782626194 L 594 422.6759714610646 L 594 422.6759714610646 L 595 422.4746577291223 L 595 422.4746577291224 L 596 422.27101032435087 L 596 422.27101032435087 L 597 422.06500219430404 L 597 422.06500219430404 L 598 421.85660597293804 L 598 421.85660597293804 L 599 421.6457939769756 L 599 421.64579397697565 L 600 421.4325382022292 L 600 421.4325382022292 L 601 421.2168103198803 L 601 421.2168103198803 L 602 420.9985816727168 L 602 420.9985816727168 L 603 420.77782327132564 L 603 420.77782327132564 L 604 420.55450579024244 L 604 420.55450579024244 L 605 420.32859956405537 L 605 420.32859956405537 L 606 420.1000745834648 L 606 420.1000745834648 L 607 419.8689004912966 L 607 419.8689004912966 L 608 419.6350465784698 L 608 419.6350465784698 L 609 419.398481779917 L 609 419.398481779917 L 610 419.1591746704577 L 610 419.1591746704577 L 611 418.91709346062373 L 611 418.91709346062373 L 612 418.67220599243666 L 612 418.67220599243666 L 613 418.4244797351356 L 613 418.4244797351356 L 614 418.173881780856 L 614 418.173881780856 L 615 417.92037884025814 L 615 417.92037884025814 L 616 417.66393723810495 L 616 417.66393723810495 L 617 417.4045229087888 L 617 417.4045229087888 L 618 417.14210139180585 L 618 417.14210139180585 L 619 416.87663782717874 L 619 416.87663782717874 L 620 416.60809695082554 L 620 416.6080969508256 L 621 416.33644308987544 L 621 416.33644308987544 L 622 416.06164015792973 L 622 416.0616401579298 L 623 415.78365165026855 L 623 415.78365165026855 L 624 415.50244063900107 L 624 415.50244063900107 L 625 415.2179697681604 L 625 415.2179697681604 L 626 414.9302012487411 L 626 414.9302012487411 L 627 414.63909685367935 L 627 414.63909685367935 L 628 414.34461791277477 L 628 414.34461791277477 L 629 414.0467253075535 L 629 414.0467253075535 L 630 413.745379466072 L 630 413.745379466072 L 631 413.44054035765987 L 631 413.44054035765987 L 632 413.13216748760243 L 632 413.1321674876025 L 633 412.8202198917616 L 633 412.82021989176167 L 634 412.5046561311339 L 634 412.5046561311339 L 635 412.18543428634587 L 635 412.1854342863459 L 636 411.8625119520855 L 636 411.8625119520855 L 637 411.5358462314692 L 637 411.53584623146924 L 638 411.2053937303432 L 638 411.2053937303432 L 639 410.8711105515192 L 639 410.8711105515192 L 640 410.5329522889433 L 640 410.5329522889433 L 641 410.1908740217966 L 641 410.1908740217967 L 642 409.84483030852857 L 642 409.84483030852857 L 643 409.49477518082 L 643 409.49477518082 L 644 409.14066213747697 L 644 409.14066213747697 L 645 408.7824441382536 L 645 408.7824441382536 L 646 408.42007359760305 L 646 408.42007359760305 L 647 408.0535023783566 L 647 408.0535023783566 L 648 407.6826817853288 L 648 407.6826817853288 L 649 407.307562558849 L 649 407.307562558849 L 650 406.92809486821756 L 650 406.9280948682176 L 651 406.54422830508673 L 651 406.54422830508673 L 652 406.15591187676387 L 652 406.15591187676387 L 653 405.76309399943807 L 653 405.76309399943807 L 654 405.3657224913275 L 654 405.3657224913276 L 655 404.96374456574785 L 655 404.9637445657479 L 656 404.55710682409983 L 656 404.55710682409983 L 657 404.14575524877597 L 657 404.14575524877597 L 658 403.72963519598494 L 658 403.72963519598494 L 659 403.3086913884925 L 659 403.3086913884925 L 660 402.88286790827874 L 660 402.88286790827874 L 661 402.45210818910977 L 661 402.45210818910977 L 662 402.0163550090235 L 662 402.0163550090235 L 663 401.57555048272843 L 663 401.57555048272843 L 664 401.12963605391406 L 664 401.12963605391406 L 665 400.6785524874722 L 665 400.67855248747225 L 666 400.22223986162857 L 666 400.2222398616286 L 667 399.7606375599824 L 667 399.7606375599824 L 668 399.29368426345434 L 668 399.29368426345434 L 669 398.82131794214087 L 669 398.82131794214087 L 670 398.34347584707433 L 670 398.3434758470744 L 671 397.86009450188726 L 671 397.86009450188726 L 672 397.3711096943802 L 672 397.3711096943802 L 673 396.8764564679919 L 673 396.8764564679919 L 674 396.37606911317033 L 674 396.37606911317033 L 675 395.86988115864415 L 675 395.86988115864415 L 676 395.3578253625923 L 676 395.3578253625923 L 677 394.83983370371186 L 677 394.83983370371186 L 678 394.3158373721822 L 678 394.3158373721823 L 679 393.78576676052415 L 679 393.78576676052415 L 680 393.24955145435325 L 680 393.2495514543533 L 681 392.7071202230263 L 681 392.7071202230263 L 682 392.15840101017886 L 682 392.15840101017886 L 683 391.60332092415314 L 683 391.6033209241532 L 684 391.0418062283156 L 684 391.0418062283156 L 685 390.4737823312613 L 685 390.4737823312613 L 686 389.8991737769055 L 686 389.8991737769055 L 687 389.31790423446 L 687 389.31790423446006 L 688 388.72989648829343 L 688 388.7298964882935 L 689 388.1350724276739 L 689 388.13507242767395 L 690 387.53335303639284 L 690 387.53335303639284 L 691 386.9246583822684 L 691 386.9246583822684 L 692 386.3089076065275 L 692 386.3089076065275 L 693 385.68601891306446 L 693 385.6860189130645 L 694 385.05590955757526 L 694 385.0559095575753 L 695 384.41849583656574 L 695 384.4184958365658 L 696 383.7736930762326 L 696 383.7736930762326 L 697 383.12141562121514 L 697 383.12141562121514 L 698 382.4615768232171 L 698 382.4615768232171 L 699 381.79408902949626 L 699 381.79408902949626 L 700 381.11886357122046 L 700 381.1188635712205 L 701 380.43581075168925 L 701 380.43581075168925 L 702 379.7448398344182 L 702 379.7448398344182 L 703 379.04585903108574 L 703 379.0458590310858 L 704 378.33877548934015 L 704 378.3387754893402 L 705 377.6234952804648 L 705 377.6234952804648 L 706 376.8999233869008 L 706 376.8999233869008 L 707 376.16796368962497 L 707 376.167963689625 L 708 375.4275189553814 L 708 375.4275189553814 L 709 374.678490823765 L 709 374.67849082376506 L 710 373.92077979415535 L 710 373.92077979415535 L 711 373.15428521249896 L 711 373.15428521249896 L 712 372.3789052579387 L 712 372.3789052579387 L 713 371.59453692928764 L 713 371.59453692928764 L 714 370.8010760313466 L 714 370.8010760313466 L 715 369.998417161063 L 715 369.998417161063 L 716 369.1864536935287 L 716 369.18645369352873 L 717 368.36507776781656 L 717 368.3650777678166 L 718 367.5341802726519 L 718 367.5341802726519 L 719 366.6936508319182 L 719 366.6936508319182 L 720 365.8433777899949 L 720 365.843377789995 L 721 364.98324819692516 L 721 364.98324819692516 L 722 364.1131477934113 L 722 364.1131477934113 L 723 363.23296099563703 L 723 363.23296099563703 L 724 362.34257087991307 L 724 362.3425708799131 L 725 361.4418591671453 L 725 361.44185916714537 L 726 360.5307062071223 L 726 360.53070620712236 L 727 359.6089909626213 L 727 359.60899096262136 L 728 358.67659099332957 L 728 358.67659099332957 L 729 357.73338243957943 L 729 357.73338243957943 L 730 356.77924000589485 L 730 356.77924000589485 L 731 355.8140369443472 L 731 355.8140369443472 L 732 354.83764503771823 L 732 354.8376450377183 L 733 353.8499345824676 L 733 353.8499345824676 L 734 352.850774371503 L 734 352.85077437150306 L 735 351.84003167675104 L 735 351.8400316767511 L 736 350.81757223152533 L 736 350.8175722315254 L 737 349.7832602126906 L 737 349.78326021269066 L 738 348.7369582226203 L 738 348.73695822262033 L 739 347.6785272709443 L 739 347.6785272709443 L 740 346.6078267560858 L 740 346.6078267560858 L 741 345.5247144465837 L 741 345.52471444658374 L 742 344.4290464621988 L 742 344.4290464621988 L 743 343.3206772548005 L 743 343.32067725480056 L 744 342.1994595890327 L 744 342.1994595890327 L 745 341.0652445227545 L 745 341.06524452275454 L 746 339.9178813872553 L 746 339.91788138725536 L 747 338.7572177672399 L 747 338.75721776724 L 748 337.58309948058155 L 748 337.5830994805816 L 749 336.3953705578405 L 749 336.3953705578406 L 750 335.19387322154535 L 750 335.19387322154535 L 751 333.97844786523336 L 751 333.97844786523336 L 752 332.74893303224906 L 752 332.7489330322491 L 753 331.50516539429606 L 753 331.50516539429606 L 754 330.2469797297405 L 754 330.24697972974053 L 755 328.9742089016633 L 755 328.9742089016633 L 756 327.6866838356575 L 756 327.68668383565756 L 757 326.38423349736894 L 757 326.38423349736894 L 758 325.0666848697754 L 758 325.0666848697754 L 759 323.73386293020366 L 759 323.7338629302037 L 760 322.38559062707947 L 760 322.3855906270795 L 761 321.0216888564079 L 761 321.0216888564079 L 762 319.6419764379812 L 762 319.64197643798127 L 763 318.2462700913113 L 763 318.2462700913114 L 764 316.8343844112824 L 764 316.83438441128243 L 765 315.40613184352196 L 765 315.406131843522 L 766 313.96132265948637 L 766 313.9613226594864 L 767 312.499764931257 L 767 312.49976493125706 L 768 311.02126450604493 L 768 311.021264506045 L 769 309.5256249803996 L 769 309.5256249803996 L 770 308.0126476741185 L 770 308.01264767411857 L 771 306.4821316038551 L 771 306.4821316038551 L 772 304.93387345641963 L 772 304.93387345641963 L 773 303.36766756177144 L 773 303.3676675617715 L 774 301.7833058656978 L 774 301.78330586569786 L 775 300.18057790217597 L 775 300.180577902176 L 776 298.55927076541514 L 776 298.55927076541514 L 777 296.9191690815737 L 777 296.9191690815737 L 778 295.2600549801497 L 778 295.2600549801498 L 779 293.58170806503847 L 779 293.5817080650385 L 780 291.8839053852555 L 780 291.88390538525556 L 781 290.1664214053197 L 781 290.16642140531974 L 782 288.42902797529325 L 782 288.42902797529325 L 783 286.67149430047436 L 783 286.6714943004745 L 784 284.8935869107388 L 784 284.8935869107388 L 785 283.0950696295252 L 785 283.09506962952526 L 786 281.275703542462 L 786 281.27570354246205 L 787 279.43524696563003 L 787 279.4352469656301 L 788 277.57345541345705 L 788 277.57345541345717 L 789 275.6900815662409 L 789 275.6900815662409 L 790 273.7848752372949 L 790 273.78487523729495 L 791 271.85758333971387 L 791 271.85758333971387 L 792 269.90794985275375 L 792 269.90794985275375 L 793 267.9357157878219 L 793 267.93571578782195 L 794 265.94061915407343 L 794 265.9406191540735 L 795 263.9223949236082 L 795 263.92239492360824 L 796 261.88077499626445 L 796 261.88077499626456 L 797 259.81548816400505 L 797 259.81548816400516 L 798 257.72626007488964 L 798 257.72626007488975 L 799 255.61281319663033 L 799 255.6128131966304 L 800 253.4748667797241 L 800 253.47486677972418 L 801 251.31213682015834 L 801 251.3121368201584 L 802 249.12433602168375 L 802 249.12433602168383 L 803 246.9111737576501 L 803 246.91117375765018 L 804 244.67235603239936 L 804 244.67235603239942 L 805 242.40758544221154 L 805 242.4075854422116 L 806 240.1165611357976 L 806 240.1165611357977 L 807 237.79897877433473 L 807 237.7989787743348 L 808 235.45453049103764 L 808 235.45453049103773 L 809 233.08290485026208 L 809 233.08290485026214 L 810 230.68378680613355 L 810 230.68378680613364 L 811 228.25685766069688 L 811 228.25685766069697 L 812 225.80179502158052 L 812 225.80179502158057 L 813 223.31827275917 L 813 223.31827275917004 L 814 220.80596096328483 L 814 220.80596096328492 L 815 218.26452589935377 L 815 218.26452589935386 L 816 215.6936299640813 L 816 215.6936299640814 L 817 213.09293164060057 L 817 213.09293164060065 L 818 210.46208545310657 L 818 210.46208545310662 L 819 207.80074192096316 L 819 207.80074192096325 L 820 205.10854751227814 L 820 205.1085475122782 L 821 202.38514459694028 L 821 202.38514459694036 L 822 199.6301713991119 L 822 199.63017139911196 L 823 196.84326194917057 L 823 196.84326194917065 L 824 194.02404603509405 L 824 194.02404603509413 L 825 191.1721491532811 L 825 191.1721491532812 L 826 188.28719245880308 L 826 188.28719245880316 L 827 185.36879271507792 L 827 185.368792715078 L 828 182.41656224296105 L 828 182.4165622429611 L 829 179.43010886924668 L 829 179.4301088692468 L 830 176.40903587457143 L 830 176.4090358745715 L 831 173.35294194071406 L 831 173.35294194071412 L 832 170.2614210972847 L 832 170.26142109728477 L 833 167.13406266779623 L 833 167.1340626677963 L 834 163.97045121510934 L 834 163.9704512151094 L 835 160.77016648624686 L 835 160.77016648624692 L 836 157.53278335656705 L 836 157.53278335656717 L 837 154.25787177329028 L 837 154.2578717732904 L 838 150.94499669837103 L 838 150.94499669837109 L 839 147.59371805070754 L 839 147.5937180507076 L 840 144.20359064768155 L 840 144.20359064768166 L 841 140.77416414602072 L 841 140.77416414602078 L 842 137.30498298197477 L 842 137.30498298197483 L 843 133.79558631079868 L 843 133.7955863107988 L 844 130.2455079455346 L 844 130.24550794553465 L 845 126.6542762950832 L 845 126.65427629508326 L 846 123.02141430155791 L 846 123.02141430155797 L 847 119.34643937691294 L 847 119.34643937691305 L 848 115.62886333883631 L 848 115.62886333883637 L 849 111.86819234589962 L 849 111.86819234589967 L 850 108.06392683195668 L 850 108.06392683195673 L 851 104.21556143978142 L 851 104.21556143978148 L 852 100.32258495393586 L 852 100.32258495393592 L 853 96.38448023286128 L 853 96.38448023286134 L 854 92.40072414018039 L 854 92.40072414018056 L 855 88.37078747520468 L 855 88.37078747520485 L 856 84.2941349026359 L 856 84.29413490263607 L 857 80.17022488145113 L 857 80.17022488145125 L 858 75.99850959296606 L 858 75.99850959296617 L 859 71.77843486806199 L 859 71.77843486806216 L 860 67.50944011357063 L 860 67.5094401135708 L 861 63.19095823780498 L 861 63.19095823780509 L 862 58.82241557522735 L 862 58.822415575227524 L 863 54.4032318102432 L 863 54.40323181024337 L 864 49.932819900112975 L 864 49.932819900113145 L 865 45.4105859969693 L 865 45.41058599696947 L 866 40.83592936892995 L 866 40.835929368930124 L 867 36.20824232029764 L 867 36.20824232029776 L 868 31.526910110833626 L 868 31.526910110833796 L 869 26.791310874095473 L 869 26.791310874095643 L 870 22.0008155348292 L 870 22.00081553482937 L 871 17.154787725402798 L 871 17.15478772540291 L 872 12.252583701271135 L 872 12.252583701271305 L 873 7.2935522554618615 L 873 7.293552255461975 L 874 2.2770346320687054 L 874 2.277034632068876 L 875 -2.797635561257266 L 875 -2.7976355612570956 L 876 -7.931132441830698 L 876 -7.931132441830584 L 877 -13.12413794148182 L 877 -13.124137941481706 L 877.9281691896357 -18" stroke-opacity="1" stroke-linecap="round" stroke-linejoin="round" stroke-miterlimit="10" stroke-width="6.5"/></g></g></svg>