<svg version="1.1" xmlns="http://www.w3.org/2000/svg" xmlns:xlink="http://www.w3.org/1999/xlink" width="1578" height="913"><defs><clipPath id="TfrkNICgrIyL"><path fill="none" stroke="none" d=" M 0 0 L 1578 0 L 1578 913 L 0 913 L 0 0 Z"/></clipPath></defs><g transform="scale(1,1)" clip-path="url(#TfrkNICgrIyL)"><g><rect fill="rgb(255,255,255)" stroke="none" x="0" y="0" width="1578" height="913" fill-opacity="1"/><path fill="none" stroke="rgb(37,37,37)" paint-order="fill stroke markers" d=" M 733.5 2.5 L 733.5 913.5" stroke-opacity="1" stroke-miterlimit="10"/><path fill="rgb(37,37,37)" stroke="none" paint-order="stroke fill markers" fill-rule="evenodd" d=" M 733.5733741319697 1 L 729.5733741319697 17 L 737.5733741319697 17" fill-opacity="1"/><path fill="none" stroke="rgb(37,37,37)" paint-order="fill stroke markers" d=" M 0.5 440.5 L 1576.5 440.5" stroke-opacity="1" stroke-miterlimit="10"/><path fill="rgb(37,37,37)" stroke="none" paint-order="stroke fill markers" fill-rule="evenodd" d=" M 1577 440.0422526982802 L 1561 436.0422526982802 L 1561 444.0422526982802" fill-opacity="1"/><text fill="rgb(37,37,37)" stroke="none" font-family="geogebra-serif, serif" font-size="12px" font-style="normal" font-weight="bold" text-decoration="normal" x="33" y="456" text-anchor="start" dominant-baseline="alphabetic" fill-opacity="1">–8</text><text fill="none" stroke="rgb(255,255,255)" font-family="geogebra-serif, serif" font-size="12px" font-style="normal" font-weight="bold" text-decoration="normal" x="33" y="456" text-anchor="start" dominant-baseline="alphabetic" stroke-opacity="1" stroke-linejoin="bevel" stroke-miterlimit="10" stroke-width="3">–8</text><text fill="rgb(37,37,37)" stroke="none" font-family="geogebra-serif, serif" font-size="12px" font-style="normal" font-weight="bold" text-decoration="normal" x="33" y="456" text-anchor="start" dominant-baseline="alphabetic" fill-opacity="1">–8</text><path fill="none" stroke="rgb(37,37,37)" paint-order="fill stroke markers" d=" M 39.5 440.5 L 39.5 443.5" stroke-opacity="1" stroke-miterlimit="10"/><text fill="rgb(37,37,37)" stroke="none" font-family="geogebra-serif, serif" font-size="12px" font-style="normal" font-weight="bold" text-decoration="normal" x="120" y="456" text-anchor="start" dominant-baseline="alphabetic" fill-opacity="1">–7</text><text fill="none" stroke="rgb(255,255,255)" font-family="geogebra-serif, serif" font-size="12px" font-style="normal" font-weight="bold" text-decoration="normal" x="120" y="456" text-anchor="start" dominant-baseline="alphabetic" stroke-opacity="1" stroke-linejoin="bevel" stroke-miterlimit="10" stroke-width="3">–7</text><text fill="rgb(37,37,37)" stroke="none" font-family="geogebra-serif, serif" font-size="12px" font-style="normal" font-weight="bold" text-decoration="normal" x="120" y="456" text-anchor="start" dominant-baseline="alphabetic" fill-opacity="1">–7</text><path fill="none" stroke="rgb(37,37,37)" paint-order="fill stroke markers" d=" M 126.5 440.5 L 126.5 443.5" stroke-opacity="1" stroke-miterlimit="10"/><text fill="rgb(37,37,37)" stroke="none" font-family="geogebra-serif, serif" font-size="12px" font-style="normal" font-weight="bold" text-decoration="normal" x="206" y="456" text-anchor="start" dominant-baseline="alphabetic" fill-opacity="1">–6</text><text fill="none" stroke="rgb(255,255,255)" font-family="geogebra-serif, serif" font-size="12px" font-style="normal" font-weight="bold" text-decoration="normal" x="206" y="456" text-anchor="start" dominant-baseline="alphabetic" stroke-opacity="1" stroke-linejoin="bevel" stroke-miterlimit="10" stroke-width="3">–6</text><text fill="rgb(37,37,37)" stroke="none" font-family="geogebra-serif, serif" font-size="12px" font-style="normal" font-weight="bold" text-decoration="normal" x="206" y="456" text-anchor="start" dominant-baseline="alphabetic" fill-opacity="1">–6</text><path fill="none" stroke="rgb(37,37,37)" paint-order="fill stroke markers" d=" M 212.5 440.5 L 212.5 443.5" stroke-opacity="1" stroke-miterlimit="10"/><text fill="rgb(37,37,37)" stroke="none" font-family="geogebra-serif, serif" font-size="12px" font-style="normal" font-weight="bold" text-decoration="normal" x="293" y="456" text-anchor="start" dominant-baseline="alphabetic" fill-opacity="1">–5</text><text fill="none" stroke="rgb(255,255,255)" font-family="geogebra-serif, serif" font-size="12px" font-style="normal" font-weight="bold" text-decoration="normal" x="293" y="456" text-anchor="start" dominant-baseline="alphabetic" stroke-opacity="1" stroke-linejoin="bevel" stroke-miterlimit="10" stroke-width="3">–5</text><text fill="rgb(37,37,37)" stroke="none" font-family="geogebra-serif, serif" font-size="12px" font-style="normal" font-weight="bold" text-decoration="normal" x="293" y="456" text-anchor="start" dominant-baseline="alphabetic" fill-opacity="1">–5</text><path fill="none" stroke="rgb(37,37,37)" paint-order="fill stroke markers" d=" M 299.5 440.5 L 299.5 443.5" stroke-opacity="1" stroke-miterlimit="10"/><text fill="rgb(37,37,37)" stroke="none" font-family="geogebra-serif, serif" font-size="12px" font-style="normal" font-weight="bold" text-decoration="normal" x="380" y="456" text-anchor="start" dominant-baseline="alphabetic" fill-opacity="1">–4</text><text fill="none" stroke="rgb(255,255,255)" font-family="geogebra-serif, serif" font-size="12px" font-style="normal" font-weight="bold" text-decoration="normal" x="380" y="456" text-anchor="start" dominant-baseline="alphabetic" stroke-opacity="1" stroke-linejoin="bevel" stroke-miterlimit="10" stroke-width="3">–4</text><text fill="rgb(37,37,37)" stroke="none" font-family="geogebra-serif, serif" font-size="12px" font-style="normal" font-weight="bold" text-decoration="normal" x="380" y="456" text-anchor="start" dominant-baseline="alphabetic" fill-opacity="1">–4</text><path fill="none" stroke="rgb(37,37,37)" paint-order="fill stroke markers" d=" M 386.5 440.5 L 386.5 443.5" stroke-opacity="1" stroke-miterlimit="10"/><text fill="rgb(37,37,37)" stroke="none" font-family="geogebra-serif, serif" font-size="12px" font-style="normal" font-weight="bold" text-decoration="normal" x="467" y="456" text-anchor="start" dominant-baseline="alphabetic" fill-opacity="1">–3</text><text fill="none" stroke="rgb(255,255,255)" font-family="geogebra-serif, serif" font-size="12px" font-style="normal" font-weight="bold" text-decoration="normal" x="467" y="456" text-anchor="start" dominant-baseline="alphabetic" stroke-opacity="1" stroke-linejoin="bevel" stroke-miterlimit="10" stroke-width="3">–3</text><text fill="rgb(37,37,37)" stroke="none" font-family="geogebra-serif, serif" font-size="12px" font-style="normal" font-weight="bold" text-decoration="normal" x="467" y="456" text-anchor="start" dominant-baseline="alphabetic" fill-opacity="1">–3</text><path fill="none" stroke="rgb(37,37,37)" paint-order="fill stroke markers" d=" M 473.5 440.5 L 473.5 443.5" stroke-opacity="1" stroke-miterlimit="10"/><text fill="rgb(37,37,37)" stroke="none" font-family="geogebra-serif, serif" font-size="12px" font-style="normal" font-weight="bold" text-decoration="normal" x="553" y="456" text-anchor="start" dominant-baseline="alphabetic" fill-opacity="1">–2</text><text fill="none" stroke="rgb(255,255,255)" font-family="geogebra-serif, serif" font-size="12px" font-style="normal" font-weight="bold" text-decoration="normal" x="553" y="456" text-anchor="start" dominant-baseline="alphabetic" stroke-opacity="1" stroke-linejoin="bevel" stroke-miterlimit="10" stroke-width="3">–2</text><text fill="rgb(37,37,37)" stroke="none" font-family="geogebra-serif, serif" font-size="12px" font-style="normal" font-weight="bold" text-decoration="normal" x="553" y="456" text-anchor="start" dominant-baseline="alphabetic" fill-opacity="1">–2</text><path fill="none" stroke="rgb(37,37,37)" paint-order="fill stroke markers" d=" M 560.5 440.5 L 560.5 443.5" stroke-opacity="1" stroke-miterlimit="10"/><text fill="rgb(37,37,37)" stroke="none" font-family="geogebra-serif, serif" font-size="12px" font-style="normal" font-weight="bold" text-decoration="normal" x="640" y="456" text-anchor="start" dominant-baseline="alphabetic" fill-opacity="1">–1</text><text fill="none" stroke="rgb(255,255,255)" font-family="geogebra-serif, serif" font-size="12px" font-style="normal" font-weight="bold" text-decoration="normal" x="640" y="456" text-anchor="start" dominant-baseline="alphabetic" stroke-opacity="1" stroke-linejoin="bevel" stroke-miterlimit="10" stroke-width="3">–1</text><text fill="rgb(37,37,37)" stroke="none" font-family="geogebra-serif, serif" font-size="12px" font-style="normal" font-weight="bold" text-decoration="normal" x="640" y="456" text-anchor="start" dominant-baseline="alphabetic" fill-opacity="1">–1</text><path fill="none" stroke="rgb(37,37,37)" paint-order="fill stroke markers" d=" M 646.5 440.5 L 646.5 443.5" stroke-opacity="1" stroke-miterlimit="10"/><path fill="none" stroke="rgb(37,37,37)" paint-order="fill stroke markers" d=" M 733.5 440.5 L 733.5 443.5" stroke-opacity="1" stroke-miterlimit="10"/><text fill="rgb(37,37,37)" stroke="none" font-family="geogebra-serif, serif" font-size="12px" font-style="normal" font-weight="bold" text-decoration="normal" x="817" y="456" text-anchor="start" dominant-baseline="alphabetic" fill-opacity="1">1</text><text fill="none" stroke="rgb(255,255,255)" font-family="geogebra-serif, serif" font-size="12px" font-style="normal" font-weight="bold" text-decoration="normal" x="817" y="456" text-anchor="start" dominant-baseline="alphabetic" stroke-opacity="1" stroke-linejoin="bevel" stroke-miterlimit="10" stroke-width="3">1</text><text fill="rgb(37,37,37)" stroke="none" font-family="geogebra-serif, serif" font-size="12px" font-style="normal" font-weight="bold" text-decoration="normal" x="817" y="456" text-anchor="start" dominant-baseline="alphabetic" fill-opacity="1">1</text><path fill="none" stroke="rgb(37,37,37)" paint-order="fill stroke markers" d=" M 820.5 440.5 L 820.5 443.5" stroke-opacity="1" stroke-miterlimit="10"/><text fill="rgb(37,37,37)" stroke="none" font-family="geogebra-serif, serif" font-size="12px" font-style="normal" font-weight="bold" text-decoration="normal" x="904" y="456" text-anchor="start" dominant-baseline="alphabetic" fill-opacity="1">2</text><text fill="none" stroke="rgb(255,255,255)" font-family="geogebra-serif, serif" font-size="12px" font-style="normal" font-weight="bold" text-decoration="normal" x="904" y="456" text-anchor="start" dominant-baseline="alphabetic" stroke-opacity="1" stroke-linejoin="bevel" stroke-miterlimit="10" stroke-width="3">2</text><text fill="rgb(37,37,37)" stroke="none" font-family="geogebra-serif, serif" font-size="12px" font-style="normal" font-weight="bold" text-decoration="normal" x="904" y="456" text-anchor="start" dominant-baseline="alphabetic" fill-opacity="1">2</text><path fill="none" stroke="rgb(37,37,37)" paint-order="fill stroke markers" d=" M 907.5 440.5 L 907.5 443.5" stroke-opacity="1" stroke-miterlimit="10"/><text fill="rgb(37,37,37)" stroke="none" font-family="geogebra-serif, serif" font-size="12px" font-style="normal" font-weight="bold" text-decoration="normal" x="991" y="456" text-anchor="start" dominant-baseline="alphabetic" fill-opacity="1">3</text><text fill="none" stroke="rgb(255,255,255)" font-family="geogebra-serif, serif" font-size="12px" font-style="normal" font-weight="bold" text-decoration="normal" x="991" y="456" text-anchor="start" dominant-baseline="alphabetic" stroke-opacity="1" stroke-linejoin="bevel" stroke-miterlimit="10" stroke-width="3">3</text><text fill="rgb(37,37,37)" stroke="none" font-family="geogebra-serif, serif" font-size="12px" font-style="normal" font-weight="bold" text-decoration="normal" x="991" y="456" text-anchor="start" dominant-baseline="alphabetic" fill-opacity="1">3</text><path fill="none" stroke="rgb(37,37,37)" paint-order="fill stroke markers" d=" M 993.5 440.5 L 993.5 443.5" stroke-opacity="1" stroke-miterlimit="10"/><text fill="rgb(37,37,37)" stroke="none" font-family="geogebra-serif, serif" font-size="12px" font-style="normal" font-weight="bold" text-decoration="normal" x="1078" y="456" text-anchor="start" dominant-baseline="alphabetic" fill-opacity="1">4</text><text fill="none" stroke="rgb(255,255,255)" font-family="geogebra-serif, serif" font-size="12px" font-style="normal" font-weight="bold" text-decoration="normal" x="1078" y="456" text-anchor="start" dominant-baseline="alphabetic" stroke-opacity="1" stroke-linejoin="bevel" stroke-miterlimit="10" stroke-width="3">4</text><text fill="rgb(37,37,37)" stroke="none" font-family="geogebra-serif, serif" font-size="12px" font-style="normal" font-weight="bold" text-decoration="normal" x="1078" y="456" text-anchor="start" dominant-baseline="alphabetic" fill-opacity="1">4</text><path fill="none" stroke="rgb(37,37,37)" paint-order="fill stroke markers" d=" M 1080.5 440.5 L 1080.5 443.5" stroke-opacity="1" stroke-miterlimit="10"/><text fill="rgb(37,37,37)" stroke="none" font-family="geogebra-serif, serif" font-size="12px" font-style="normal" font-weight="bold" text-decoration="normal" x="1164" y="456" text-anchor="start" dominant-baseline="alphabetic" fill-opacity="1">5</text><text fill="none" stroke="rgb(255,255,255)" font-family="geogebra-serif, serif" font-size="12px" font-style="normal" font-weight="bold" text-decoration="normal" x="1164" y="456" text-anchor="start" dominant-baseline="alphabetic" stroke-opacity="1" stroke-linejoin="bevel" stroke-miterlimit="10" stroke-width="3">5</text><text fill="rgb(37,37,37)" stroke="none" font-family="geogebra-serif, serif" font-size="12px" font-style="normal" font-weight="bold" text-decoration="normal" x="1164" y="456" text-anchor="start" dominant-baseline="alphabetic" fill-opacity="1">5</text><path fill="none" stroke="rgb(37,37,37)" paint-order="fill stroke markers" d=" M 1167.5 440.5 L 1167.5 443.5" stroke-opacity="1" stroke-miterlimit="10"/><text fill="rgb(37,37,37)" stroke="none" font-family="geogebra-serif, serif" font-size="12px" font-style="normal" font-weight="bold" text-decoration="normal" x="1251" y="456" text-anchor="start" dominant-baseline="alphabetic" fill-opacity="1">6</text><text fill="none" stroke="rgb(255,255,255)" font-family="geogebra-serif, serif" font-size="12px" font-style="normal" font-weight="bold" text-decoration="normal" x="1251" y="456" text-anchor="start" dominant-baseline="alphabetic" stroke-opacity="1" stroke-linejoin="bevel" stroke-miterlimit="10" stroke-width="3">6</text><text fill="rgb(37,37,37)" stroke="none" font-family="geogebra-serif, serif" font-size="12px" font-style="normal" font-weight="bold" text-decoration="normal" x="1251" y="456" text-anchor="start" dominant-baseline="alphabetic" fill-opacity="1">6</text><path fill="none" stroke="rgb(37,37,37)" paint-order="fill stroke markers" d=" M 1254.5 440.5 L 1254.5 443.5" stroke-opacity="1" stroke-miterlimit="10"/><text fill="rgb(37,37,37)" stroke="none" font-family="geogebra-serif, serif" font-size="12px" font-style="normal" font-weight="bold" text-decoration="normal" x="1338" y="456" text-anchor="start" dominant-baseline="alphabetic" fill-opacity="1">7</text><text fill="none" stroke="rgb(255,255,255)" font-family="geogebra-serif, serif" font-size="12px" font-style="normal" font-weight="bold" text-decoration="normal" x="1338" y="456" text-anchor="start" dominant-baseline="alphabetic" stroke-opacity="1" stroke-linejoin="bevel" stroke-miterlimit="10" stroke-width="3">7</text><text fill="rgb(37,37,37)" stroke="none" font-family="geogebra-serif, serif" font-size="12px" font-style="normal" font-weight="bold" text-decoration="normal" x="1338" y="456" text-anchor="start" dominant-baseline="alphabetic" fill-opacity="1">7</text><path fill="none" stroke="rgb(37,37,37)" paint-order="fill stroke markers" d=" M 1340.5 440.5 L 1340.5 443.5" stroke-opacity="1" stroke-miterlimit="10"/><text fill="rgb(37,37,37)" stroke="none" font-family="geogebra-serif, serif" font-size="12px" font-style="normal" font-weight="bold" text-decoration="normal" x="1425" y="456" text-anchor="start" dominant-baseline="alphabetic" fill-opacity="1">8</text><text fill="none" stroke="rgb(255,255,255)" font-family="geogebra-serif, serif" font-size="12px" font-style="normal" font-weight="bold" text-decoration="normal" x="1425" y="456" text-anchor="start" dominant-baseline="alphabetic" stroke-opacity="1" stroke-linejoin="bevel" stroke-miterlimit="10" stroke-width="3">8</text><text fill="rgb(37,37,37)" stroke="none" font-family="geogebra-serif, serif" font-size="12px" font-style="normal" font-weight="bold" text-decoration="normal" x="1425" y="456" text-anchor="start" dominant-baseline="alphabetic" fill-opacity="1">8</text><path fill="none" stroke="rgb(37,37,37)" paint-order="fill stroke markers" d=" M 1427.5 440.5 L 1427.5 443.5" stroke-opacity="1" stroke-miterlimit="10"/><text fill="rgb(37,37,37)" stroke="none" font-family="geogebra-serif, serif" font-size="12px" font-style="normal" font-weight="bold" text-decoration="normal" x="1511" y="456" text-anchor="start" dominant-baseline="alphabetic" fill-opacity="1">9</text><text fill="none" stroke="rgb(255,255,255)" font-family="geogebra-serif, serif" font-size="12px" font-style="normal" font-weight="bold" text-decoration="normal" x="1511" y="456" text-anchor="start" dominant-baseline="alphabetic" stroke-opacity="1" stroke-linejoin="bevel" stroke-miterlimit="10" stroke-width="3">9</text><text fill="rgb(37,37,37)" stroke="none" font-family="geogebra-serif, serif" font-size="12px" font-style="normal" font-weight="bold" text-decoration="normal" x="1511" y="456" text-anchor="start" dominant-baseline="alphabetic" fill-opacity="1">9</text><path fill="none" stroke="rgb(37,37,37)" paint-order="fill stroke markers" d=" M 1514.5 440.5 L 1514.5 443.5" stroke-opacity="1" stroke-miterlimit="10"/><path fill="none" stroke="rgb(37,37,37)" paint-order="fill stroke markers" d=" M 730.5 873.5 L 733.5 873.5" stroke-opacity="1" stroke-miterlimit="10"/><path fill="none" stroke="rgb(37,37,37)" paint-order="fill stroke markers" d=" M 730.5 787.5 L 733.5 787.5" stroke-opacity="1" stroke-miterlimit="10"/><path fill="none" stroke="rgb(37,37,37)" paint-order="fill stroke markers" d=" M 730.5 700.5 L 733.5 700.5" stroke-opacity="1" stroke-miterlimit="10"/><path fill="none" stroke="rgb(37,37,37)" paint-order="fill stroke markers" d=" M 730.5 613.5 L 733.5 613.5" stroke-opacity="1" stroke-miterlimit="10"/><path fill="none" stroke="rgb(37,37,37)" paint-order="fill stroke markers" d=" M 730.5 526.5 L 733.5 526.5" stroke-opacity="1" stroke-miterlimit="10"/><path fill="none" stroke="rgb(37,37,37)" paint-order="fill stroke markers" d=" M 730.5 353.5 L 733.5 353.5" stroke-opacity="1" stroke-miterlimit="10"/><path fill="none" stroke="rgb(37,37,37)" paint-order="fill stroke markers" d=" M 730.5 266.5 L 733.5 266.5" stroke-opacity="1" stroke-miterlimit="10"/><path fill="none" stroke="rgb(37,37,37)" paint-order="fill stroke markers" d=" M 730.5 179.5 L 733.5 179.5" stroke-opacity="1" stroke-miterlimit="10"/><path fill="none" stroke="rgb(37,37,37)" paint-order="fill stroke markers" d=" M 730.5 92.5 L 733.5 92.5" stroke-opacity="1" stroke-miterlimit="10"/><text fill="rgb(37,37,37)" stroke="none" font-family="geogebra-serif, serif" font-size="12px" font-style="normal" font-weight="bold" text-decoration="normal" x="714" y="878" text-anchor="start" dominant-baseline="alphabetic" fill-opacity="1">–5</text><text fill="none" stroke="rgb(255,255,255)" font-family="geogebra-serif, serif" font-size="12px" font-style="normal" font-weight="bold" text-decoration="normal" x="714" y="878" text-anchor="start" dominant-baseline="alphabetic" stroke-opacity="1" stroke-linejoin="bevel" stroke-miterlimit="10" stroke-width="3">–5</text><text fill="rgb(37,37,37)" stroke="none" font-family="geogebra-serif, serif" font-size="12px" font-style="normal" font-weight="bold" text-decoration="normal" x="714" y="878" text-anchor="start" dominant-baseline="alphabetic" fill-opacity="1">–5</text><text fill="rgb(37,37,37)" stroke="none" font-family="geogebra-serif, serif" font-size="12px" font-style="normal" font-weight="bold" text-decoration="normal" x="714" y="792" text-anchor="start" dominant-baseline="alphabetic" fill-opacity="1">–4</text><text fill="none" stroke="rgb(255,255,255)" font-family="geogebra-serif, serif" font-size="12px" font-style="normal" font-weight="bold" text-decoration="normal" x="714" y="792" text-anchor="start" dominant-baseline="alphabetic" stroke-opacity="1" stroke-linejoin="bevel" stroke-miterlimit="10" stroke-width="3">–4</text><text fill="rgb(37,37,37)" stroke="none" font-family="geogebra-serif, serif" font-size="12px" font-style="normal" font-weight="bold" text-decoration="normal" x="714" y="792" text-anchor="start" dominant-baseline="alphabetic" fill-opacity="1">–4</text><text fill="rgb(37,37,37)" stroke="none" font-family="geogebra-serif, serif" font-size="12px" font-style="normal" font-weight="bold" text-decoration="normal" x="714" y="705" text-anchor="start" dominant-baseline="alphabetic" fill-opacity="1">–3</text><text fill="none" stroke="rgb(255,255,255)" font-family="geogebra-serif, serif" font-size="12px" font-style="normal" font-weight="bold" text-decoration="normal" x="714" y="705" text-anchor="start" dominant-baseline="alphabetic" stroke-opacity="1" stroke-linejoin="bevel" stroke-miterlimit="10" stroke-width="3">–3</text><text fill="rgb(37,37,37)" stroke="none" font-family="geogebra-serif, serif" font-size="12px" font-style="normal" font-weight="bold" text-decoration="normal" x="714" y="705" text-anchor="start" dominant-baseline="alphabetic" fill-opacity="1">–3</text><text fill="rgb(37,37,37)" stroke="none" font-family="geogebra-serif, serif" font-size="12px" font-style="normal" font-weight="bold" text-decoration="normal" x="714" y="618" text-anchor="start" dominant-baseline="alphabetic" fill-opacity="1">–2</text><text fill="none" stroke="rgb(255,255,255)" font-family="geogebra-serif, serif" font-size="12px" font-style="normal" font-weight="bold" text-decoration="normal" x="714" y="618" text-anchor="start" dominant-baseline="alphabetic" stroke-opacity="1" stroke-linejoin="bevel" stroke-miterlimit="10" stroke-width="3">–2</text><text fill="rgb(37,37,37)" stroke="none" font-family="geogebra-serif, serif" font-size="12px" font-style="normal" font-weight="bold" text-decoration="normal" x="714" y="618" text-anchor="start" dominant-baseline="alphabetic" fill-opacity="1">–2</text><text fill="rgb(37,37,37)" stroke="none" font-family="geogebra-serif, serif" font-size="12px" font-style="normal" font-weight="bold" text-decoration="normal" x="714" y="531" text-anchor="start" dominant-baseline="alphabetic" fill-opacity="1">–1</text><text fill="none" stroke="rgb(255,255,255)" font-family="geogebra-serif, serif" font-size="12px" font-style="normal" font-weight="bold" text-decoration="normal" x="714" y="531" text-anchor="start" dominant-baseline="alphabetic" stroke-opacity="1" stroke-linejoin="bevel" stroke-miterlimit="10" stroke-width="3">–1</text><text fill="rgb(37,37,37)" stroke="none" font-family="geogebra-serif, serif" font-size="12px" font-style="normal" font-weight="bold" text-decoration="normal" x="714" y="531" text-anchor="start" dominant-baseline="alphabetic" fill-opacity="1">–1</text><text fill="rgb(37,37,37)" stroke="none" font-family="geogebra-serif, serif" font-size="12px" font-style="normal" font-weight="bold" text-decoration="normal" x="720" y="358" text-anchor="start" dominant-baseline="alphabetic" fill-opacity="1">1</text><text fill="none" stroke="rgb(255,255,255)" font-family="geogebra-serif, serif" font-size="12px" font-style="normal" font-weight="bold" text-decoration="normal" x="720" y="358" text-anchor="start" dominant-baseline="alphabetic" stroke-opacity="1" stroke-linejoin="bevel" stroke-miterlimit="10" stroke-width="3">1</text><text fill="rgb(37,37,37)" stroke="none" font-family="geogebra-serif, serif" font-size="12px" font-style="normal" font-weight="bold" text-decoration="normal" x="720" y="358" text-anchor="start" dominant-baseline="alphabetic" fill-opacity="1">1</text><text fill="rgb(37,37,37)" stroke="none" font-family="geogebra-serif, serif" font-size="12px" font-style="normal" font-weight="bold" text-decoration="normal" x="720" y="271" text-anchor="start" dominant-baseline="alphabetic" fill-opacity="1">2</text><text fill="none" stroke="rgb(255,255,255)" font-family="geogebra-serif, serif" font-size="12px" font-style="normal" font-weight="bold" text-decoration="normal" x="720" y="271" text-anchor="start" dominant-baseline="alphabetic" stroke-opacity="1" stroke-linejoin="bevel" stroke-miterlimit="10" stroke-width="3">2</text><text fill="rgb(37,37,37)" stroke="none" font-family="geogebra-serif, serif" font-size="12px" font-style="normal" font-weight="bold" text-decoration="normal" x="720" y="271" text-anchor="start" dominant-baseline="alphabetic" fill-opacity="1">2</text><text fill="rgb(37,37,37)" stroke="none" font-family="geogebra-serif, serif" font-size="12px" font-style="normal" font-weight="bold" text-decoration="normal" x="720" y="184" text-anchor="start" dominant-baseline="alphabetic" fill-opacity="1">3</text><text fill="none" stroke="rgb(255,255,255)" font-family="geogebra-serif, serif" font-size="12px" font-style="normal" font-weight="bold" text-decoration="normal" x="720" y="184" text-anchor="start" dominant-baseline="alphabetic" stroke-opacity="1" stroke-linejoin="bevel" stroke-miterlimit="10" stroke-width="3">3</text><text fill="rgb(37,37,37)" stroke="none" font-family="geogebra-serif, serif" font-size="12px" font-style="normal" font-weight="bold" text-decoration="normal" x="720" y="184" text-anchor="start" dominant-baseline="alphabetic" fill-opacity="1">3</text><text fill="rgb(37,37,37)" stroke="none" font-family="geogebra-serif, serif" font-size="12px" font-style="normal" font-weight="bold" text-decoration="normal" x="720" y="97" text-anchor="start" dominant-baseline="alphabetic" fill-opacity="1">4</text><text fill="none" stroke="rgb(255,255,255)" font-family="geogebra-serif, serif" font-size="12px" font-style="normal" font-weight="bold" text-decoration="normal" x="720" y="97" text-anchor="start" dominant-baseline="alphabetic" stroke-opacity="1" stroke-linejoin="bevel" stroke-miterlimit="10" stroke-width="3">4</text><text fill="rgb(37,37,37)" stroke="none" font-family="geogebra-serif, serif" font-size="12px" font-style="normal" font-weight="bold" text-decoration="normal" x="720" y="97" text-anchor="start" dominant-baseline="alphabetic" fill-opacity="1">4</text><text fill="rgb(37,37,37)" stroke="none" font-family="geogebra-serif, serif" font-size="12px" font-style="normal" font-weight="bold" text-decoration="normal" x="720" y="456" text-anchor="start" dominant-baseline="alphabetic" fill-opacity="1">0</text><text fill="none" stroke="rgb(255,255,255)" font-family="geogebra-serif, serif" font-size="12px" font-style="normal" font-weight="bold" text-decoration="normal" x="720" y="456" text-anchor="start" dominant-baseline="alphabetic" stroke-opacity="1" stroke-linejoin="bevel" stroke-miterlimit="10" stroke-width="3">0</text><text fill="rgb(37,37,37)" stroke="none" font-family="geogebra-serif, serif" font-size="12px" font-style="normal" font-weight="bold" text-decoration="normal" x="720" y="456" text-anchor="start" dominant-baseline="alphabetic" fill-opacity="1">0</text><path fill="none" stroke="rgb(0,153,255)" paint-order="fill stroke markers" d=" M 734 901.1950995486941 L 734 913 L 734 901.1950995486942 L 735 796.4573119295367 L 735 796.4573119295369 L 736 750.36927947858 L 736 750.36927947858 L 737 720.4293209144498 L 737 720.4293209144499 L 738 698.2124452700093 L 738 698.2124452700094 L 739 680.5404014892354 L 739 680.5404014892355 L 740 665.8658576109859 L 740 665.865857610986 L 741 653.317904734633 L 741 653.317904734633 L 742 642.3574842845526 L 742 642.3574842845526 L 743 632.6276366396357 L 743 632.6276366396357 L 744 623.8797205894343 L 744 623.8797205894344 L 745 615.9335861641689 L 745 615.933586164169 L 746 608.6545210937696 L 746 608.6545210937697 L 747 601.9391483712037 L 747 601.9391483712037 L 748 595.7064032220335 L 748 595.7064032220335 L 749 589.8915408456065 L 749 589.8915408456066 L 750 584.4420298377794 L 750 584.4420298377794 L 751 579.3146611865775 L 751 579.3146611865775 L 752 574.4734650881865 L 752 574.4734650881866 L 753 569.8881789896227 L 753 569.8881789896227 L 754 565.5331005900379 L 754 565.5331005900379 L 755 561.3862152530407 L 755 561.3862152530407 L 756 557.4285226334844 L 756 557.4285226334845 L 757 553.6435103161623 L 757 553.6435103161624 L 758 550.0167375573808 L 758 550.0167375573808 L 759 546.5355025984107 L 759 546.5355025984107 L 760 543.1885741912953 L 760 543.1885741912954 L 761 539.9659730156695 L 761 539.9659730156695 L 762 536.8587922585319 L 762 536.8587922585319 L 763 533.859049227379 L 763 533.859049227379 L 764 530.9595617702838 L 764 530.9595617702838 L 765 528.1538446869143 L 765 528.1538446869143 L 766 525.4360223711947 L 766 525.4360223711947 L 767 522.8007547260623 L 767 522.8007547260623 L 768 520.2431740018143 L 768 520.2431740018143 L 769 517.7588306805048 L 769 517.758830680505 L 770 515.3436468948944 L 770 515.3436468948944 L 771 512.9938761571292 L 771 512.9938761571292 L 772 510.70606839851166 L 772 510.70606839851166 L 773 508.4770395013861 L 773 508.4770395013861 L 774 506.30384464781775 L 774 506.30384464781775 L 775 504.1837549252969 L 775 504.1837549252969 L 776 502.11423672319773 L 776 502.11423672319773 L 777 500.0929335297858 L 777 500.0929335297858 L 778 498.1176498017726 L 778 498.1176498017726 L 779 496.1863366295411 L 779 496.1863366295411 L 780 494.2970789633795 L 780 494.2970789633795 L 781 492.4480842010788 L 781 492.4480842010788 L 782 490.63767196641555 L 782 490.6376719664156 L 783 488.8642649324412 L 783 488.8642649324412 L 784 487.1263805639852 L 784 487.12638056398526 L 785 485.4226236710485 L 785 485.4226236710485 L 786 483.75167967936704 L 786 483.7516796793671 L 787 482.1123085368288 L 787 482.1123085368288 L 788 480.50333918497955 L 788 480.50333918497955 L 789 478.9236645338792 L 789 478.9236645338792 L 790 477.37223688629473 L 790 477.37223688629473 L 791 475.84806376386234 L 791 475.84806376386234 L 792 474.35020409357514 L 792 474.35020409357514 L 793 472.8777647179007 L 793 472.8777647179007 L 794 471.42989719612103 L 794 471.42989719612103 L 795 470.00579486821 L 795 470.00579486821 L 796 468.60469015580793 L 796 468.60469015580793 L 797 467.22585207768236 L 797 467.2258520776824 L 798 465.8685839595413 L 798 465.86858395954135 L 799 464.532221320235 L 799 464.532221320235 L 800 463.216129918292 L 800 463.216129918292 L 801 461.9197039444122 L 801 461.9197039444122 L 802 460.6423643470242 L 802 460.6423643470242 L 803 459.3835572793206 L 803 459.3835572793206 L 804 458.1427526573482 L 804 458.1427526573482 L 805 456.9194428197562 L 805 456.9194428197562 L 806 455.7131412807223 L 806 455.7131412807223 L 807 454.5233815683884 L 807 454.5233815683884 L 808 453.34971614186617 L 808 453.34971614186617 L 809 452.1917153805196 L 809 452.1917153805196 L 810 451.04896663981214 L 810 451.04896663981214 L 811 449.92107336852644 L 811 449.92107336852644 L 812 448.8076542826306 L 812 448.8076542826306 L 813 447.70834259148455 L 813 447.70834259148455 L 814 446.6227852724564 L 814 446.6227852724564 L 815 445.5506423903601 L 815 445.5506423903601 L 816 444.4915864584311 L 816 444.4915864584311 L 817 443.44530183783394 L 817 443.44530183783394 L 818 442.4114841729481 L 818 442.4114841729482 L 819 441.3898398599029 L 819 441.3898398599029 L 820 440.38008554603977 L 820 440.38008554603977 L 821 439.38194765816814 L 821 439.38194765816814 L 822 438.3951619576485 L 822 438.3951619576485 L 823 437.4194731204932 L 823 437.4194731204932 L 824 436.45463434081563 L 824 436.45463434081563 L 825 435.50040695608647 L 825 435.50040695608647 L 826 434.55656009277453 L 826 434.55656009277453 L 827 433.6228703310549 L 827 433.6228703310549 L 828 432.6991213873667 L 828 432.6991213873667 L 829 431.7851038136926 L 829 431.7851038136926 L 830 430.88061471251336 L 830 430.88061471251336 L 831 429.9854574664674 L 831 429.9854574664674 L 832 429.0994414818144 L 832 429.09944148181444 L 833 428.2223819448658 L 833 428.2223819448658 L 834 427.35409959060274 L 834 427.35409959060274 L 835 426.494420482758 L 835 426.494420482758 L 836 425.64317580468656 L 836 425.64317580468656 L 837 424.8002016603952 L 837 424.8002016603952 L 838 423.9653388851459 L 838 423.9653388851459 L 839 423.1384328650844 L 839 423.1384328650844 L 840 422.31933336538333 L 840 422.31933336538333 L 841 421.5078943664219 L 841 421.5078943664219 L 842 420.7039739075552 L 842 420.7039739075552 L 843 419.90743393805536 L 843 419.90743393805536 L 844 419.1181401748328 L 844 419.1181401748328 L 845 418.335961966571 L 845 418.33596196657106 L 846 417.560772163931 L 846 417.560772163931 L 847 416.7924469955027 L 847 416.7924469955027 L 848 416.03086594920103 L 848 416.03086594920103 L 849 415.275911658822 L 849 415.275911658822 L 850 414.527469795492 L 850 414.527469795492 L 851 413.78542896375905 L 851 413.78542896375905 L 852 413.0496806020898 L 852 413.04968060208984 L 853 412.3201188875504 L 853 412.3201188875504 L 854 411.5966406444608 L 854 411.5966406444608 L 855 410.8791452568272 L 855 410.8791452568272 L 856 410.16753458436455 L 856 410.16753458436455 L 857 409.46171288193557 L 857 409.46171288193557 L 858 408.76158672224 L 858 408.76158672224 L 859 408.06706492159833 L 859 408.0670649215984 L 860 407.3780584686822 L 860 407.37805846868224 L 861 406.6944804560526 L 861 406.6944804560526 L 862 406.01624601437396 L 862 406.01624601437396 L 863 405.34327224917945 L 863 405.3432722491795 L 864 404.6754781800702 L 864 404.6754781800702 L 865 404.0127846822358 L 865 404.01278468223586 L 866 403.3551144301923 L 866 403.3551144301924 L 867 402.7023918436356 L 867 402.7023918436356 L 868 402.0545430353167 L 868 402.0545430353167 L 869 401.41149576084894 L 869 401.41149576084894 L 870 400.77317937036105 L 870 400.7731793703611 L 871 400.1395247619162 L 871 400.1395247619162 L 872 399.5104643366193 L 872 399.5104643366193 L 873 398.8859319553402 L 873 398.8859319553402 L 874 398.2658628969835 L 874 398.26586289698355 L 875 397.65019381823873 L 875 397.65019381823873 L 876 397.0388627147485 L 876 397.0388627147486 L 877 396.4318088836356 L 877 396.43180888363565 L 878 395.82897288733113 L 878 395.82897288733113 L 879 395.2302965186515 L 879 395.2302965186515 L 880 394.63572276707146 L 880 394.63572276707146 L 881 394.0451957861449 L 881 394.045195786145 L 882 393.45866086202744 L 882 393.45866086202744 L 883 392.87606438305494 L 883 392.876064383055 L 884 392.2973538103376 L 884 392.29735381033765 L 885 391.7224776493274 L 885 391.7224776493274 L 886 391.1513854223218 L 886 391.1513854223218 L 887 390.58402764186627 L 887 390.58402764186627 L 888 390.0203557850208 L 888 390.02035578502085 L 889 389.4603222684571 L 889 389.46032226845716 L 890 388.90388042435416 L 890 388.9038804243542 L 891 388.35098447706184 L 891 388.35098447706184 L 892 387.8015895205035 L 892 387.80158952050357 L 893 387.2556514962895 L 893 387.25565149628954 L 894 386.7131271725148 L 894 386.7131271725149 L 895 386.17397412321566 L 895 386.17397412321566 L 896 385.6381507084603 L 896 385.63815070846033 L 897 385.10561605505103 L 897 385.1056160550511 L 898 384.57633003781467 L 898 384.57633003781467 L 899 384.05025326146006 L 899 384.05025326146006 L 900 383.52734704298285 L 900 383.5273470429829 L 901 383.00757339459676 L 901 383.00757339459676 L 902 382.49089500717326 L 902 382.49089500717326 L 903 381.97727523417154 L 903 381.97727523417154 L 904 381.4666780760413 L 904 381.4666780760414 L 905 380.9590681650817 L 905 380.9590681650817 L 906 380.4544107507406 L 906 380.4544107507406 L 907 379.95267168533906 L 907 379.95267168533906 L 908 379.4538174102062 L 908 379.4538174102062 L 909 378.95781494221035 L 909 378.95781494221035 L 910 378.46463186067274 L 910 378.46463186067274 L 911 377.9742362946516 L 911 377.9742362946516 L 912 377.4865969105829 L 912 377.4865969105829 L 913 377.00168290026704 L 913 377.0016829002671 L 914 376.51946396918936 L 914 376.51946396918936 L 915 376.03991032516274 L 915 376.03991032516274 L 916 375.56299266728325 L 916 375.56299266728325 L 917 375.08868217518716 L 917 375.08868217518716 L 918 374.61695049860003 L 918 374.6169504986001 L 919 374.1477697471686 L 919 374.14776974716864 L 920 373.68111248056584 L 920 373.6811124805659 L 921 373.21695169886107 L 921 373.21695169886107 L 922 372.7552608331456 L 922 372.7552608331456 L 923 372.29601373640753 L 923 372.29601373640753 L 924 371.83918467464565 L 924 371.83918467464565 L 925 371.3847483182168 L 925 371.38474831821685 L 926 370.9326797334086 L 926 370.9326797334086 L 927 370.4829543742299 L 927 370.4829543742299 L 928 370.03554807441407 L 928 370.03554807441407 L 929 369.59043703962624 L 929 369.5904370396263 L 930 369.1475978398702 L 930 369.1475978398702 L 931 368.70700740208764 L 931 368.7070074020877 L 932 368.2686430029448 L 932 368.2686430029448 L 933 367.83248226179995 L 933 367.83248226179995 L 934 367.39850313384693 L 934 367.398503133847 L 935 366.96668390342955 L 935 366.96668390342955 L 936 366.5370031775211 L 936 366.5370031775211 L 937 366.1094398793649 L 937 366.1094398793649 L 938 365.6839732422707 L 938 365.6839732422707 L 939 365.26058280356216 L 939 365.2605828035622 L 940 364.83924839867166 L 940 364.8392483986717 L 941 364.41995015537765 L 941 364.4199501553777 L 942 364.00266848818046 L 942 364.00266848818046 L 943 363.5873840928129 L 943 363.5873840928129 L 944 363.17407794088155 L 944 363.1740779408816 L 945 362.76273127463503 L 945 362.76273127463503 L 946 362.3533256018557 L 946 362.3533256018557 L 947 361.9458426908714 L 947 361.9458426908714 L 948 361.54026456568363 L 948 361.54026456568363 L 949 361.1365735012093 L 949 361.13657350120934 L 950 360.73475201863243 L 950 360.73475201863243 L 951 360.3347828808631 L 951 360.33478288086314 L 952 359.93664908810064 L 952 359.93664908810064 L 953 359.54033387349796 L 953 359.540333873498 L 954 359.1458206989248 L 954 359.1458206989248 L 955 358.7530932508264 L 955 358.7530932508264 L 956 358.3621354361757 L 956 358.3621354361758 L 957 357.9729313785169 L 957 357.97293137851693 L 958 357.58546541409595 L 958 357.585465414096 L 959 357.19972208807866 L 959 357.19972208807866 L 960 356.8156861508513 L 960 356.8156861508513 L 961 356.4333425544035 L 961 356.43334255440357 L 962 356.05267644879 L 962 356.05267644879 L 963 355.6736731786699 L 963 355.6736731786699 L 964 355.2963182799211 L 964 355.2963182799211 L 965 354.9205974763281 L 965 354.9205974763281 L 966 354.54649667634135 L 966 354.54649667634135 L 967 354.1740019699057 L 967 354.1740019699057 L 968 353.803099625357 L 968 353.803099625357 L 969 353.4337760863849 L 969 353.4337760863849 L 970 353.06601796905966 L 970 353.06601796905966 L 971 352.6998120589217 L 971 352.69981205892174 L 972 352.33514530813284 L 972 352.33514530813284 L 973 351.9720048326863 L 973 351.97200483268637 L 974 351.61037790967583 L 974 351.6103779096759 L 975 351.2502519746206 L 975 351.2502519746206 L 976 350.8916146188459 L 976 350.8916146188459 L 977 350.5344535869178 L 977 350.53445358691783 L 978 350.1787567741301 L 978 350.17875677413014 L 979 349.82451222404256 L 979 349.8245122240426 L 980 349.47170812606976 L 980 349.4717081260698 L 981 349.1203328131179 L 981 349.12033281311795 L 982 348.77037475927 L 982 348.77037475927 L 983 348.42182257751716 L 983 348.4218225775172 L 984 348.0746650175356 L 984 348.0746650175356 L 985 347.7288909635074 L 985 347.7288909635074 L 986 347.3844894319852 L 986 347.38448943198523 L 987 347.04144956979843 L 987 347.0414495697985 L 988 346.69976065200154 L 988 346.6997606520016 L 989 346.35941207986156 L 989 346.3594120798616 L 990 346.0203933788858 L 990 346.02039337888584 L 991 345.6826941968873 L 991 345.6826941968874 L 992 345.3463043020884 L 992 345.34630430208847 L 993 345.01121358126034 L 993 345.0112135812604 L 994 344.67741203789893 L 994 344.677412037899 L 995 344.3448897904352 L 995 344.3448897904353 L 996 344.01363707048034 L 996 344.0136370704804 L 997 343.68364422110346 L 997 343.68364422110346 L 998 343.35490169514264 L 998 343.35490169514264 L 999 343.0274000535474 L 999 343.02740005354747 L 1000 342.70112996375286 L 1000 342.70112996375286 L 1001 342.3760821980834 L 1001 342.3760821980834 L 1002 342.05224763218723 L 1002 342.0522476321873 L 1003 341.72961724349943 L 1003 341.72961724349943 L 1004 341.4081821097333 L 1004 341.40818210973333 L 1005 341.0879334074002 L 1005 341.08793340740027 L 1006 340.7688624103561 L 1006 340.7688624103561 L 1007 340.4509604883748 L 1007 340.4509604883748 L 1008 340.1342191057473 L 1008 340.1342191057473 L 1009 339.81862981990685 L 1009 339.81862981990685 L 1010 339.5041842800784 L 1010 339.50418428007845 L 1011 339.190874225953 L 1011 339.190874225953 L 1012 338.87869148638543 L 1012 338.8786914863855 L 1013 338.56762797811604 L 1013 338.5676279781161 L 1014 338.2576757045143 L 1014 338.2576757045143 L 1015 337.9488267543459 L 1015 337.9488267543459 L 1016 337.64107330056055 L 1016 337.6410733005606 L 1017 337.33440759910235 L 1017 337.3344075991024 L 1018 337.0288219877402 L 1018 337.02882198774023 L 1019 336.7243088849191 L 1019 336.7243088849191 L 1020 336.42086078863167 L 1020 336.4208607886317 L 1021 336.1184702753091 L 1021 336.11847027530916 L 1022 335.81712999873145 L 1022 335.8171299987315 L 1023 335.5168326889567 L 1023 335.5168326889567 L 1024 335.21757115126843 L 1024 335.2175711512685 L 1025 334.91933826514185 L 1025 334.91933826514185 L 1026 334.6221269832265 L 1026 334.62212698322656 L 1027 334.3259303303478 L 1027 334.32593033034783 L 1028 334.03074140252426 L 1028 334.0307414025243 L 1029 333.73655336600217 L 1029 333.7365533660022 L 1030 333.4433594563063 L 1030 333.4433594563063 L 1031 333.15115297730654 L 1031 333.1511529773066 L 1032 332.85992730030046 L 1032 332.8599273003005 L 1033 332.5696758631108 L 1033 332.56967586311083 L 1034 332.28039216919836 L 1034 332.2803921691984 L 1035 331.99206978678967 L 1035 331.99206978678967 L 1036 331.7047023480186 L 1036 331.70470234801866 L 1037 331.41828354808297 L 1037 331.418283548083 L 1038 331.132807144414 L 1038 331.1328071444141 L 1039 330.84826695586054 L 1039 330.8482669558606 L 1040 330.56465686188534 L 1040 330.5646568618854 L 1041 330.2819708017758 L 1041 330.28197080177586 L 1042 330.00020277386636 L 1042 330.00020277386636 L 1043 329.71934683477406 L 1043 329.7193468347741 L 1044 329.43939709864645 L 1044 329.4393970986465 L 1045 329.16034773642144 L 1045 329.16034773642144 L 1046 328.8821929750988 L 1046 328.88219297509886 L 1047 328.6049270970239 L 1047 328.60492709702396 L 1048 328.32854443918234 L 1048 328.32854443918234 L 1049 328.05303939250575 L 1049 328.0530393925058 L 1050 327.7784064011893 L 1050 327.7784064011893 L 1051 327.50463996201864 L 1051 327.5046399620187 L 1052 327.23173462370914 L 1052 327.23173462370914 L 1053 326.9596849862538 L 1053 326.9596849862538 L 1054 326.68848570028274 L 1054 326.68848570028274 L 1055 326.41813146643153 L 1055 326.41813146643153 L 1056 326.14861703472025 L 1056 326.14861703472025 L 1057 325.8799372039416 L 1057 325.87993720394167 L 1058 325.61208682105877 L 1058 325.6120868210588 L 1059 325.3450607806122 L 1059 325.34506078061224 L 1060 325.0788540241358 L 1060 325.0788540241358 L 1061 324.81346153958214 L 1061 324.81346153958214 L 1062 324.5488783607559 L 1062 324.54887836075596 L 1063 324.2850995667567 L 1063 324.28509956675674 L 1064 324.0221202814294 L 1064 324.02212028142947 L 1065 323.7599356728238 L 1065 323.7599356728239 L 1066 323.49854095266164 L 1066 323.49854095266164 L 1067 323.23793137581174 L 1067 323.2379313758118 L 1068 322.97810223977365 L 1068 322.9781022397737 L 1069 322.71904888416805 L 1069 322.71904888416805 L 1070 322.46076669023535 L 1070 322.46076669023535 L 1071 322.2032510803416 L 1071 322.20325108034166 L 1072 321.9464975174918 L 1072 321.9464975174918 L 1073 321.69050150485 L 1073 321.69050150485 L 1074 321.4352585852669 L 1074 321.435258585267 L 1075 321.1807643408144 L 1075 321.18076434081445 L 1076 320.9270143923263 L 1076 320.9270143923263 L 1077 320.67400439894675 L 1077 320.6740043989468 L 1078 320.4217300576841 L 1078 320.42173005768416 L 1079 320.1701871029723 L 1079 320.17018710297236 L 1080 319.9193713062378 L 1080 319.91937130623785 L 1081 319.6692784754732 L 1081 319.6692784754732 L 1082 319.4199044548168 L 1082 319.41990445481684 L 1083 319.1712451241383 L 1083 319.17124512413835 L 1084 318.9232963986302 L 1084 318.92329639863027 L 1085 318.67605422840546 L 1085 318.6760542284055 L 1086 318.4295145981002 L 1086 318.42951459810024 L 1087 318.1836735264827 L 1087 318.1836735264828 L 1088 317.93852706606776 L 1088 317.9385270660678 L 1089 317.6940713027359 L 1089 317.6940713027359 L 1090 317.4503023553589 L 1090 317.45030235535893 L 1091 317.2072163754297 L 1091 317.2072163754297 L 1092 316.9648095466981 L 1092 316.9648095466982 L 1093 316.7230780848112 L 1093 316.7230780848113 L 1094 316.48201823695877 L 1094 316.48201823695877 L 1095 316.24162628152385 L 1095 316.2416262815239 L 1096 316.0018985277379 L 1096 316.0018985277379 L 1097 315.762831315341 L 1097 315.76283131534103 L 1098 315.5244210142461 L 1098 315.5244210142462 L 1099 315.2866640242088 L 1099 315.28666402420885 L 1100 315.0495567745008 L 1100 315.04955677450084 L 1101 314.8130957235881 L 1101 314.81309572358816 L 1102 314.57727735881394 L 1102 314.577277358814 L 1103 314.34209819608543 L 1103 314.34209819608543 L 1104 314.1075547795646 L 1104 314.1075547795647 L 1105 313.8736436813642 L 1105 313.87364368136423 L 1106 313.6403615012463 L 1106 313.6403615012463 L 1107 313.4077048663265 L 1107 313.4077048663265 L 1108 313.17567043078094 L 1108 313.175670430781 L 1109 312.9442548755576 L 1109 312.94425487555765 L 1110 312.71345490809153 L 1110 312.7134549080916 L 1111 312.4832672620237 L 1111 312.4832672620237 L 1112 312.2536886969236 L 1112 312.25368869692363 L 1113 312.02471599801567 L 1113 312.0247159980157 L 1114 311.79634597590916 L 1114 311.79634597590916 L 1115 311.5685754663314 L 1115 311.5685754663315 L 1116 311.34140132986505 L 1116 311.3414013298651 L 1117 311.11482045168805 L 1117 311.11482045168805 L 1118 310.88882974131764 L 1118 310.8888297413177 L 1119 310.6634261323576 L 1119 310.66342613235764 L 1120 310.4386065822481 L 1120 310.43860658224816 L 1121 310.21436807201985 L 1121 310.21436807201985 L 1122 309.99070760605025 L 1122 309.9907076060503 L 1123 309.7676222118239 L 1123 309.76762221182395 L 1124 309.5451089396951 L 1124 309.5451089396952 L 1125 309.32316486265404 L 1125 309.3231648626541 L 1126 309.1017870760958 L 1126 309.1017870760958 L 1127 308.880972697592 L 1127 308.88097269759203 L 1128 308.660718866666 L 1128 308.660718866666 L 1129 308.4410227445704 L 1129 308.44102274457043 L 1130 308.22188151406726 L 1130 308.2218815140674 L 1131 308.003292379212 L 1131 308.0032923792121 L 1132 307.78525256513853 L 1132 307.78525256513853 L 1133 307.5677593178484 L 1133 307.56775931784847 L 1134 307.3508099040021 L 1134 307.3508099040022 L 1135 307.1344016107127 L 1135 307.13440161071276 L 1136 306.91853174534253 L 1136 306.9185317453426 L 1137 306.703197635302 L 1137 306.703197635302 L 1138 306.4883966278511 L 1138 306.4883966278511 L 1139 306.27412608990335 L 1139 306.27412608990346 L 1140 306.0603834078323 L 1140 306.0603834078323 L 1141 305.8471659872798 L 1141 305.84716598727994 L 1142 305.6344712529676 L 1142 305.63447125296767 L 1143 305.42229664851027 L 1143 305.4222966485103 L 1144 305.21063963623106 L 1144 305.2106396362311 L 1145 304.9994976969798 L 1145 304.9994976969798 L 1146 304.78886832995283 L 1146 304.7888683299529 L 1147 304.5787490525156 L 1147 304.5787490525156 L 1148 304.3691374000267 L 1148 304.3691374000267 L 1149 304.16003092566467 L 1149 304.1600309256647 L 1150 303.9514272002566 L 1150 303.9514272002566 L 1151 303.74332381210866 L 1151 303.74332381210866 L 1152 303.53571836683886 L 1152 303.5357183668389 L 1153 303.32860848721197 L 1153 303.328608487212 L 1154 303.12199181297586 L 1154 303.1219918129759 L 1155 302.91586600070036 L 1155 302.91586600070036 L 1156 302.7102287236175 L 1156 302.71022872361755 L 1157 302.50507767146433 L 1157 302.5050776714644 L 1158 302.3004105503269 L 1158 302.3004105503269 L 1159 302.0962250824863 L 1159 302.0962250824863 L 1160 301.89251900626675 L 1160 301.89251900626687 L 1161 301.6892900758854 L 1161 301.6892900758854 L 1162 301.48653606130335 L 1162 301.48653606130335 L 1163 301.28425474807915 L 1163 301.2842547480792 L 1164 301.0824439372236 L 1164 301.0824439372237 L 1165 300.8811014450564 L 1165 300.88110144505646 L 1166 300.68022510306423 L 1166 300.6802251030643 L 1167 300.4798127577608 L 1167 300.4798127577608 L 1168 300.2798622705479 L 1168 300.27986227054794 L 1169 300.0803715175791 L 1169 300.0803715175791 L 1170 299.8813383896241 L 1170 299.88133838962415 L 1171 299.6827607919346 L 1171 299.6827607919346 L 1172 299.4846366441126 L 1172 299.4846366441126 L 1173 299.28696387997917 L 1173 299.2869638799792 L 1174 299.0897404474455 L 1174 299.0897404474455 L 1175 298.8929643083847 L 1175 298.89296430838476 L 1176 298.6966334385059 L 1176 298.69663343850596 L 1177 298.5007458272288 L 1177 298.50074582722885 L 1178 298.30529947756065 L 1178 298.30529947756065 L 1179 298.1102924059734 L 1179 298.1102924059734 L 1180 297.91572264228375 L 1180 297.91572264228375 L 1181 297.72158822953304 L 1181 297.72158822953304 L 1182 297.52788722386947 L 1182 297.5278872238695 L 1183 297.3346176944314 L 1183 297.3346176944315 L 1184 297.1417777232316 L 1184 297.1417777232316 L 1185 296.94936540504307 L 1185 296.94936540504307 L 1186 296.75737884728636 L 1186 296.7573788472864 L 1187 296.56581616991764 L 1187 296.5658161699177 L 1188 296.37467550531835 L 1188 296.37467550531835 L 1189 296.18395499818587 L 1189 296.18395499818587 L 1190 295.9936528054254 L 1190 295.9936528054254 L 1191 295.80376709604343 L 1191 295.80376709604343 L 1192 295.6142960510416 L 1192 295.6142960510416 L 1193 295.4252378633124 L 1193 295.4252378633124 L 1194 295.2365907375357 L 1194 295.2365907375358 L 1195 295.04835289007656 L 1195 295.0483528900766 L 1196 294.8605225488838 L 1196 294.86052254888386 L 1197 294.6730979533901 L 1197 294.67309795339014 L 1198 294.48607735441294 L 1198 294.486077354413 L 1199 294.2994590140567 L 1199 294.29945901405677 L 1200 294.1132412056156 L 1200 294.1132412056156 L 1201 293.92742221347805 L 1201 293.92742221347805 L 1202 293.74200033303157 L 1202 293.7420003330317 L 1203 293.55697387056944 L 1203 293.55697387056944 L 1204 293.372341143197 L 1204 293.3723411431971 L 1205 293.1881004787409 L 1205 293.1881004787409 L 1206 293.0042502156573 L 1206 293.0042502156573 L 1207 292.82078870294254 L 1207 292.82078870294254 L 1208 292.63771430004385 L 1208 292.6377143000439 L 1209 292.4550253767717 L 1209 292.4550253767717 L 1210 292.27272031321206 L 1210 292.27272031321206 L 1211 292.090797499641 L 1211 292.09079749964104 L 1212 291.90925533643883 L 1212 291.9092553364389 L 1213 291.7280922340061 L 1213 291.7280922340061 L 1214 291.54730661267956 L 1214 291.54730661267956 L 1215 291.3668969026501 L 1215 291.3668969026502 L 1216 291.1868615438807 L 1216 291.18686154388075 L 1217 291.0071989860254 L 1217 291.0071989860254 L 1218 290.8279076883493 L 1218 290.82790768834934 L 1219 290.6489861196493 L 1219 290.64898611964935 L 1220 290.47043275817566 L 1220 290.4704327581757 L 1221 290.29224609155426 L 1221 290.2922460915543 L 1222 290.1144246167098 L 1222 290.1144246167098 L 1223 289.93696683978953 L 1223 289.93696683978953 L 1224 289.75987127608835 L 1224 289.7598712760884 L 1225 289.583136449974 L 1225 289.58313644997406 L 1226 289.40676089481315 L 1226 289.4067608948132 L 1227 289.23074315289875 L 1227 289.23074315289887 L 1228 289.0550817753776 L 1228 289.05508177537763 L 1229 288.8797753221784 L 1229 288.8797753221785 L 1230 288.70482236194164 L 1230 288.7048223619417 L 1231 288.53022147194895 L 1231 288.530221471949 L 1232 288.3559712380538 L 1232 288.3559712380538 L 1233 288.18207025461277 L 1233 288.1820702546129 L 1234 288.0085171244177 L 1234 288.0085171244177 L 1235 287.835310458628 L 1235 287.83531045862804 L 1236 287.6624488767043 L 1236 287.66244887670433 L 1237 287.4899310063422 L 1237 287.4899310063422 L 1238 287.3177554834069 L 1238 287.317755483407 L 1239 287.1459209518688 L 1239 287.1459209518689 L 1240 286.974426063739 L 1240 286.974426063739 L 1241 286.8032694790059 L 1241 286.80326947900596 L 1242 286.6324498655729 L 1242 286.6324498655729 L 1243 286.4619658991953 L 1243 286.4619658991953 L 1244 286.2918162634197 L 1244 286.2918162634197 L 1245 286.1219996495222 L 1245 286.12199964952225 L 1246 285.9525147564484 L 1246 285.9525147564484 L 1247 285.7833602907534 L 1247 285.7833602907535 L 1248 285.614534966543 L 1248 285.61453496654303 L 1249 285.4460375054142 L 1249 285.4460375054143 L 1250 285.2778666363982 L 1250 285.27786663639824 L 1251 285.1100210959019 L 1251 285.11002109590197 L 1252 284.94249962765156 L 1252 284.9424996276516 L 1253 284.77530098263605 L 1253 284.7753009826361 L 1254 284.60842391905135 L 1254 284.60842391905135 L 1255 284.44186720224457 L 1255 284.44186720224457 L 1256 284.2756296046598 L 1256 284.2756296046599 L 1257 284.10970990578363 L 1257 284.1097099057837 L 1258 283.944106892091 L 1258 283.94410689209104 L 1259 283.7788193569925 L 1259 283.7788193569926 L 1260 283.6138461007814 L 1260 283.6138461007814 L 1261 283.44918593058117 L 1261 283.44918593058117 L 1262 283.28483766029404 L 1262 283.2848376602941 L 1263 283.12080011054974 L 1263 283.1208001105498 L 1264 282.95707210865453 L 1264 282.95707210865453 L 1265 282.7936524885409 L 1265 282.79365248854094 L 1266 282.6305400907179 L 1266 282.630540090718 L 1267 282.46773376222177 L 1267 282.4677337622219 L 1268 282.3052323565669 L 1268 282.30523235656693 L 1269 282.1430347336974 L 1269 282.14303473369745 L 1270 281.9811397599393 L 1270 281.9811397599393 L 1271 281.8195463079527 L 1271 281.8195463079528 L 1272 281.65825325668516 L 1272 281.65825325668516 L 1273 281.4972594913243 L 1273 281.49725949132437 L 1274 281.33656390325234 L 1274 281.3365639032524 L 1275 281.1761653899998 L 1275 281.1761653899998 L 1276 281.01606285520023 L 1276 281.0160628552003 L 1277 280.85625520854535 L 1277 280.8562552085454 L 1278 280.6967413657404 L 1278 280.69674136574054 L 1279 280.5375202484601 L 1279 280.53752024846017 L 1280 280.37859078430466 L 1280 280.3785907843047 L 1281 280.21995190675676 L 1281 280.2199519067568 L 1282 280.06160255513845 L 1282 280.0616025551385 L 1283 279.9035416745686 L 1283 279.9035416745686 L 1284 279.74576821592075 L 1284 279.74576821592075 L 1285 279.58828113578124 L 1285 279.5882811357813 L 1286 279.4310793964081 L 1286 279.4310793964081 L 1287 279.2741619656897 L 1287 279.2741619656897 L 1288 279.11752781710413 L 1288 279.11752781710413 L 1289 278.9611759296791 L 1289 278.96117592967914 L 1290 278.80510528795185 L 1290 278.8051052879519 L 1291 278.64931488192974 L 1291 278.64931488192974 L 1292 278.4938037070507 L 1292 278.4938037070507 L 1293 278.3385707641447 L 1293 278.3385707641447 L 1294 278.18361505939515 L 1294 278.1836150593952 L 1295 278.0289356043007 L 1295 278.0289356043007 L 1296 277.8745314156373 L 1296 277.8745314156373 L 1297 277.72040151542075 L 1297 277.7204015154208 L 1298 277.5665449308698 L 1298 277.56654493086984 L 1299 277.41296069436885 L 1299 277.4129606943689 L 1300 277.2596478434319 L 1300 277.25964784343194 L 1301 277.1066054206658 L 1301 277.10660542066586 L 1302 276.95383247373513 L 1302 276.9538324737352 L 1303 276.80132805532594 L 1303 276.80132805532594 L 1304 276.64909122311076 L 1304 276.64909122311076 L 1305 276.49712103971393 L 1305 276.497121039714 L 1306 276.3454165726765 L 1306 276.3454165726766 L 1307 276.19397689442235 L 1307 276.1939768944224 L 1308 276.0428010822237 L 1308 276.04280108222383 L 1309 275.8918882181679 L 1309 275.89188821816794 L 1310 275.7412373891234 L 1310 275.7412373891234 L 1311 275.5908476867071 L 1311 275.59084768670715 L 1312 275.4407182072513 L 1312 275.4407182072514 L 1313 275.2908480517711 L 1313 275.29084805177115 L 1314 275.141236325932 L 1314 275.141236325932 L 1315 274.9918821400181 L 1315 274.99188214001816 L 1316 274.8427846089003 L 1316 274.8427846089004 L 1317 274.6939428520047 L 1317 274.69394285200474 L 1318 274.5453559932814 L 1318 274.5453559932814 L 1319 274.3970231611737 L 1319 274.3970231611738 L 1320 274.2489434885875 L 1320 274.24894348858754 L 1321 274.10111611286044 L 1321 274.1011161128605 L 1322 273.9535401757323 L 1322 273.9535401757323 L 1323 273.8062148233147 L 1323 273.80621482331475 L 1324 273.6591392060618 L 1324 273.6591392060618 L 1325 273.5123124787405 L 1325 273.51231247874057 L 1326 273.36573380040164 L 1326 273.3657338004017 L 1327 273.21940233435095 L 1327 273.219402334351 L 1328 273.07331724812036 L 1328 273.07331724812036 L 1329 272.9274777134397 L 1329 272.92747771343977 L 1330 272.78188290620847 L 1330 272.7818829062085 L 1331 272.63653200646786 L 1331 272.63653200646786 L 1332 272.491424198373 L 1332 272.491424198373 L 1333 272.34655867016573 L 1333 272.3465586701658 L 1334 272.20193461414704 L 1334 272.20193461414715 L 1335 272.0575512266503 L 1335 272.0575512266504 L 1336 271.91340770801423 L 1336 271.9134077080143 L 1337 271.76950326255655 L 1337 271.7695032625566 L 1338 271.62583709854755 L 1338 271.62583709854755 L 1339 271.4824084281837 L 1339 271.48240842818376 L 1340 271.3392164675623 L 1340 271.3392164675623 L 1341 271.1962604366553 L 1341 271.1962604366553 L 1342 271.05353955928376 L 1342 271.05353955928376 L 1343 270.91105306309305 L 1343 270.91105306309305 L 1344 270.76880017952726 L 1344 270.76880017952726 L 1345 270.6267801438046 L 1345 270.6267801438046 L 1346 270.4849921948926 L 1346 270.4849921948926 L 1347 270.3434355754838 L 1347 270.34343557548385 L 1348 270.2021095319714 L 1348 270.2021095319715 L 1349 270.06101331442505 L 1349 270.0610133144251 L 1350 269.92014617656724 L 1350 269.9201461765673 L 1351 269.7795073757493 L 1351 269.77950737574935 L 1352 269.63909617292825 L 1352 269.63909617292825 L 1353 269.4989118326432 L 1353 269.4989118326432 L 1354 269.3589536229925 L 1354 269.35895362299254 L 1355 269.21922081561047 L 1355 269.2192208156105 L 1356 269.0797126856452 L 1356 269.0797126856452 L 1357 268.9404285117352 L 1357 268.94042851173526 L 1358 268.8013675759879 L 1358 268.80136757598797 L 1359 268.66252916395683 L 1359 268.6625291639569 L 1360 268.52391256461976 L 1360 268.5239125646198 L 1361 268.38551707035697 L 1361 268.385517070357 L 1362 268.2473419769294 L 1362 268.2473419769294 L 1363 268.1093865834573 L 1363 268.1093865834573 L 1364 267.9716501923988 L 1364 267.97165019239884 L 1365 267.8341321095288 L 1365 267.8341321095288 L 1366 267.696831643918 L 1366 267.696831643918 L 1367 267.5597481079119 L 1367 267.5597481079119 L 1368 267.42288081711035 L 1368 267.4228808171104 L 1369 267.2862290903471 L 1369 267.2862290903471 L 1370 267.14979224966896 L 1370 267.149792249669 L 1371 267.0135696203164 L 1371 267.0135696203165 L 1372 266.87756053070285 L 1372 266.8775605307029 L 1373 266.7417643123951 L 1373 266.74176431239516 L 1374 266.6061803000937 L 1374 266.60618030009374 L 1375 266.4708078316131 L 1375 266.47080783161323 L 1376 266.3356462478629 L 1376 266.3356462478629 L 1377 266.2006948928273 L 1377 266.2006948928274 L 1378 266.0659531135476 L 1378 266.0659531135477 L 1379 265.9314202601022 L 1379 265.9314202601023 L 1380 265.79709568558786 L 1380 265.7970956855879 L 1381 265.6629787461015 L 1381 265.66297874610154 L 1382 265.52906880072123 L 1382 265.52906880072135 L 1383 265.3953652114884 L 1383 265.39536521148847 L 1384 265.2618673433888 L 1384 265.2618673433889 L 1385 265.12857456433517 L 1385 265.1285745643352 L 1386 264.99548624514864 L 1386 264.99548624514875 L 1387 264.86260175954163 L 1387 264.8626017595417 L 1388 264.72992048409947 L 1388 264.7299204840996 L 1389 264.59744179826316 L 1389 264.5974417982633 L 1390 264.46516508431216 L 1390 264.4651650843122 L 1391 264.3330897273466 L 1391 264.33308972734665 L 1392 264.2012151152706 L 1392 264.20121511527066 L 1393 264.06954063877504 L 1393 264.06954063877515 L 1394 263.93806569132073 L 1394 263.93806569132084 L 1395 263.8067896691215 L 1395 263.8067896691216 L 1396 263.6757119711278 L 1396 263.67571197112784 L 1397 263.54483199900994 L 1397 263.54483199901 L 1398 263.41414915714194 L 1398 263.414149157142 L 1399 263.28366285258505 L 1399 263.28366285258517 L 1400 263.15337249507195 L 1400 263.15337249507195 L 1401 263.0232774969901 L 1401 263.0232774969901 L 1402 262.89337727336647 L 1402 262.8933772733666 L 1403 262.7636712418516 L 1403 262.76367124185174 L 1404 262.63415882270374 L 1404 262.63415882270374 L 1405 262.5048394387733 L 1405 262.50483943877333 L 1406 262.37571251548763 L 1406 262.37571251548775 L 1407 262.2467774808358 L 1407 262.24677748083593 L 1408 262.11803376535295 L 1408 262.11803376535295 L 1409 261.9894808021054 L 1409 261.9894808021055 L 1410 261.8611180266761 L 1410 261.86111802667614 L 1411 261.7329448771489 L 1411 261.73294487714895 L 1412 261.6049607940946 L 1412 261.6049607940947 L 1413 261.477165220556 L 1413 261.47716522055606 L 1414 261.34955760203303 L 1414 261.3495576020331 L 1415 261.2221373864689 L 1415 261.22213738646894 L 1416 261.09490402423535 L 1416 261.09490402423546 L 1417 260.96785696811855 L 1417 260.96785696811867 L 1418 260.8409956733052 L 1418 260.8409956733053 L 1419 260.71431959736805 L 1419 260.7143195973681 L 1420 260.58782820025226 L 1420 260.5878282002524 L 1421 260.4615209442617 L 1421 260.4615209442618 L 1422 260.33539729404504 L 1422 260.33539729404504 L 1423 260.20945671658205 L 1423 260.20945671658217 L 1424 260.0836986811705 L 1424 260.08369868117063 L 1425 259.9581226594123 L 1425 259.95812265941237 L 1426 259.83272812520033 L 1426 259.8327281252004 L 1427 259.7075145547052 L 1427 259.7075145547053 L 1428 259.5824814263624 L 1428 259.5824814263625 L 1429 259.45762822085874 L 1429 259.4576282208588 L 1430 259.3329544211198 L 1430 259.3329544211198 L 1431 259.2084595122968 L 1431 259.20845951229694 L 1432 259.0841429817545 L 1432 259.08414298175455 L 1433 258.9600043190575 L 1433 258.96000431905753 L 1434 258.8360430159584 L 1434 258.83604301595847 L 1435 258.71225856638523 L 1435 258.71225856638534 L 1436 258.5886504664288 L 1436 258.58865046642893 L 1437 258.46521821433066 L 1437 258.4652182143308 L 1438 258.34196131047077 L 1438 258.3419613104708 L 1439 258.21887925735507 L 1439 258.2188792573552 L 1440 258.09597155960415 L 1440 258.0959715596042 L 1441 257.97323772394054 L 1441 257.97323772394066 L 1442 257.85067725917736 L 1442 257.8506772591774 L 1443 257.72828967620603 L 1443 257.72828967620615 L 1444 257.60607448798515 L 1444 257.6060744879852 L 1445 257.4840312095284 L 1445 257.48403120952844 L 1446 257.3621593578931 L 1446 257.3621593578931 L 1447 257.2404584521689 L 1447 257.24045845216904 L 1448 257.1189280134664 L 1448 257.1189280134664 L 1449 256.99756756490547 L 1449 256.99756756490547 L 1450 256.87637663160433 L 1450 256.87637663160444 L 1451 256.7553547406686 L 1451 256.75535474066874 L 1452 256.63450142117983 L 1452 256.63450142117995 L 1453 256.5138162041846 L 1453 256.51381620418465 L 1454 256.3932986226837 L 1454 256.39329862268374 L 1455 256.27294821162127 L 1455 256.2729482116214 L 1456 256.1527645078741 L 1456 256.15276450787417 L 1457 256.0327470502407 L 1457 256.0327470502408 L 1458 255.91289537943092 L 1458 255.912895379431 L 1459 255.7932090380553 L 1459 255.79320903805538 L 1460 255.67368757061456 L 1460 255.67368757061465 L 1461 255.55433052348928 L 1461 255.55433052348934 L 1462 255.43513744492958 L 1462 255.43513744492967 L 1463 255.31610788504486 L 1463 255.31610788504494 L 1464 255.19724139579338 L 1464 255.19724139579344 L 1465 255.07853753097257 L 1465 255.07853753097262 L 1466 254.95999584620859 L 1466 254.95999584620864 L 1467 254.8416158989465 L 1467 254.84161589894654 L 1468 254.72339724844042 L 1468 254.7233972484405 L 1469 254.6053394557437 L 1469 254.60533945574377 L 1470 254.48744208369874 L 1470 254.48744208369882 L 1471 254.36970469692795 L 1471 254.36970469692804 L 1472 254.2521268618236 L 1472 254.25212686182368 L 1473 254.13470814653826 L 1473 254.13470814653834 L 1474 254.01744812097562 L 1474 254.0174481209757 L 1475 253.90034635678072 L 1475 253.9003463567808 L 1476 253.78340242733066 L 1476 253.78340242733074 L 1477 253.6666159077252 L 1477 253.6666159077253 L 1478 253.5499863747778 L 1478 253.54998637477786 L 1479 253.43351340700602 L 1479 253.4335134070061 L 1480 253.3171965846226 L 1480 253.31719658462268 L 1481 253.20103548952633 L 1481 253.2010354895264 L 1482 253.08502970529307 L 1482 253.08502970529312 L 1483 252.96917881716675 L 1483 252.96917881716683 L 1484 252.85348241205048 L 1484 252.85348241205054 L 1485 252.7379400784977 L 1485 252.7379400784978 L 1486 252.6225514067035 L 1486 252.6225514067036 L 1487 252.50731598849572 L 1487 252.5073159884958 L 1488 252.39223341732645 L 1488 252.39223341732654 L 1489 252.2773032882634 L 1489 252.27730328826348 L 1490 252.16252519798115 L 1490 252.1625251979812 L 1491 252.04789874475298 L 1491 252.04789874475307 L 1492 251.93342352844223 L 1492 251.9334235284423 L 1493 251.81909915049388 L 1493 251.81909915049397 L 1494 251.7049252139264 L 1494 251.7049252139265 L 1495 251.5909013233234 L 1495 251.5909013233235 L 1496 251.47702708482535 L 1496 251.47702708482544 L 1497 251.36330210612138 L 1497 251.36330210612147 L 1498 251.24972599644147 L 1498 251.24972599644155 L 1499 251.13629836654798 L 1499 251.13629836654806 L 1500 251.02301882872797 L 1500 251.02301882872803 L 1501 250.90988699678502 L 1501 250.9098869967851 L 1502 250.79690248603154 L 1502 250.7969024860316 L 1503 250.68406491328076 L 1503 250.68406491328085 L 1504 250.571373896839 L 1504 250.57137389683908 L 1505 250.45882905649788 L 1505 250.45882905649793 L 1506 250.34643001352669 L 1506 250.34643001352677 L 1507 250.23417639066474 L 1507 250.23417639066483 L 1508 250.12206781211364 L 1508 250.12206781211373 L 1509 250.01010390352997 L 1509 250.01010390353002 L 1510 249.89828429201748 L 1510 249.89828429201756 L 1511 249.78660860611996 L 1511 249.78660860612004 L 1512 249.67507647581363 L 1512 249.6750764758137 L 1513 249.56368753249984 L 1513 249.5636875324999 L 1514 249.45244140899771 L 1514 249.4524414089978 L 1515 249.3413377395371 L 1515 249.34133773953718 L 1516 249.23037615975096 L 1516 249.23037615975105 L 1517 249.11955630666858 L 1517 249.11955630666867 L 1518 249.00887781870833 L 1518 249.00887781870838 L 1519 248.89834033567033 L 1519 248.8983403356704 L 1520 248.78794349872993 L 1520 248.78794349873 L 1521 248.6776869504302 L 1521 248.67768695043029 L 1522 248.56757033467534 L 1522 248.56757033467542 L 1523 248.4575932967236 L 1523 248.45759329672364 L 1524 248.34775548318046 L 1524 248.34775548318055 L 1525 248.23805654199194 L 1525 248.23805654199202 L 1526 248.12849612243755 L 1526 248.1284961224376 L 1527 248.01907387512387 L 1527 248.01907387512392 L 1528 247.9097894519777 L 1528 247.9097894519778 L 1529 247.8006425062394 L 1529 247.80064250623948 L 1530 247.6916326924564 L 1530 247.6916326924565 L 1531 247.58275966647656 L 1531 247.58275966647662 L 1532 247.47402308544162 L 1532 247.47402308544167 L 1533 247.36542260778074 L 1533 247.36542260778083 L 1534 247.2569578932042 L 1534 247.2569578932043 L 1535 247.14862860269687 L 1535 247.14862860269696 L 1536 247.04043439851174 L 1536 247.04043439851182 L 1537 246.93237494416388 L 1537 246.93237494416397 L 1538 246.824449904424 L 1538 246.82444990442406 L 1539 246.71665894531213 L 1539 246.71665894531222 L 1540 246.60900173409158 L 1540 246.60900173409166 L 1541 246.50147793926274 L 1541 246.50147793926283 L 1542 246.39408723055695 L 1542 246.394087230557 L 1543 246.28682927893024 L 1543 246.28682927893033 L 1544 246.1797037565576 L 1544 246.17970375655767 L 1545 246.07271033682665 L 1545 246.07271033682673 L 1546 245.965848694332 L 1546 245.96584869433207 L 1547 245.859118504869 L 1547 245.8591185048691 L 1548 245.7525194454279 L 1548 245.752519445428 L 1549 245.6460511941883 L 1549 245.64605119418835 L 1550 245.5397134305127 L 1550 245.5397134305128 L 1551 245.43350583494154 L 1551 245.4335058349416 L 1552 245.3274280891865 L 1552 245.32742808918655 L 1553 245.22147987612558 L 1553 245.22147987612567 L 1554 245.11566087979705 L 1554 245.11566087979713 L 1555 245.00997078539368 L 1555 245.00997078539376 L 1556 244.9044092792574 L 1556 244.9044092792575 L 1557 244.79897604887356 L 1557 244.7989760488736 L 1558 244.69367078286538 L 1558 244.69367078286544 L 1559 244.5884931709885 L 1559 244.58849317098856 L 1560 244.48344290412547 L 1560 244.48344290412555 L 1561 244.37851967428023 L 1561 244.37851967428028 L 1562 244.27372317457275 L 1562 244.27372317457284 L 1563 244.1690530992337 L 1563 244.16905309923376 L 1564 244.064509143599 L 1564 244.06450914359908 L 1565 243.96009100410453 L 1565 243.96009100410458 L 1566 243.85579837828087 L 1566 243.85579837828095 L 1567 243.75163096474802 L 1567 243.7516309647481 L 1568 243.64758846321018 L 1568 243.64758846321024 L 1569 243.5436705744505 L 1569 243.54367057445057 L 1570 243.439877000326 L 1570 243.43987700032605 L 1571 243.3362074437625 L 1571 243.33620744376256 L 1572 243.23266160874925 L 1572 243.23266160874934 L 1573 243.1292392003342 L 1573 243.1292392003343 L 1574 243.0259399246187 L 1574 243.0259399246188 L 1575 242.92276348875257 L 1575 242.92276348875265 L 1576 242.81970960092923 L 1576 242.81970960092931 L 1577 242.71677797038055 L 1577 242.71677797038063 L 1578 242.61396830737203 L 1578 242.61396830737212 L 1579 242.51128032319792" stroke-opacity="1" stroke-linecap="round" stroke-linejoin="round" stroke-miterlimit="10" stroke-width="6.5"/></g></g></svg>