<svg version="1.1" xmlns="http://www.w3.org/2000/svg" xmlns:xlink="http://www.w3.org/1999/xlink" width="1578" height="913"><defs><clipPath id="qLLakyssazOO"><path fill="none" stroke="none" d=" M 0 0 L 1578 0 L 1578 913 L 0 913 L 0 0 Z"/></clipPath></defs><g transform="scale(1,1)" clip-path="url(#qLLakyssazOO)"><g><rect fill="rgb(255,255,255)" stroke="none" x="0" y="0" width="1578" height="913" fill-opacity="1"/><path fill="none" stroke="rgb(37,37,37)" paint-order="fill stroke markers" d=" M 733.5 2.5 L 733.5 913.5" stroke-opacity="1" stroke-miterlimit="10"/><path fill="rgb(37,37,37)" stroke="none" paint-order="stroke fill markers" fill-rule="evenodd" d=" M 733.5733741319697 1 L 729.5733741319697 17 L 737.5733741319697 17" fill-opacity="1"/><path fill="none" stroke="rgb(37,37,37)" paint-order="fill stroke markers" d=" M 0.5 440.5 L 1576.5 440.5" stroke-opacity="1" stroke-miterlimit="10"/><path fill="rgb(37,37,37)" stroke="none" paint-order="stroke fill markers" fill-rule="evenodd" d=" M 1577 440.0422526982802 L 1561 436.0422526982802 L 1561 444.0422526982802" fill-opacity="1"/><text fill="rgb(37,37,37)" stroke="none" font-family="geogebra-serif, serif" font-size="12px" font-style="normal" font-weight="bold" text-decoration="normal" x="33" y="456" text-anchor="start" dominant-baseline="alphabetic" fill-opacity="1">–8</text><text fill="none" stroke="rgb(255,255,255)" font-family="geogebra-serif, serif" font-size="12px" font-style="normal" font-weight="bold" text-decoration="normal" x="33" y="456" text-anchor="start" dominant-baseline="alphabetic" stroke-opacity="1" stroke-linejoin="bevel" stroke-miterlimit="10" stroke-width="3">–8</text><text fill="rgb(37,37,37)" stroke="none" font-family="geogebra-serif, serif" font-size="12px" font-style="normal" font-weight="bold" text-decoration="normal" x="33" y="456" text-anchor="start" dominant-baseline="alphabetic" fill-opacity="1">–8</text><path fill="none" stroke="rgb(37,37,37)" paint-order="fill stroke markers" d=" M 39.5 440.5 L 39.5 443.5" stroke-opacity="1" stroke-miterlimit="10"/><text fill="rgb(37,37,37)" stroke="none" font-family="geogebra-serif, serif" font-size="12px" font-style="normal" font-weight="bold" text-decoration="normal" x="120" y="456" text-anchor="start" dominant-baseline="alphabetic" fill-opacity="1">–7</text><text fill="none" stroke="rgb(255,255,255)" font-family="geogebra-serif, serif" font-size="12px" font-style="normal" font-weight="bold" text-decoration="normal" x="120" y="456" text-anchor="start" dominant-baseline="alphabetic" stroke-opacity="1" stroke-linejoin="bevel" stroke-miterlimit="10" stroke-width="3">–7</text><text fill="rgb(37,37,37)" stroke="none" font-family="geogebra-serif, serif" font-size="12px" font-style="normal" font-weight="bold" text-decoration="normal" x="120" y="456" text-anchor="start" dominant-baseline="alphabetic" fill-opacity="1">–7</text><path fill="none" stroke="rgb(37,37,37)" paint-order="fill stroke markers" d=" M 126.5 440.5 L 126.5 443.5" stroke-opacity="1" stroke-miterlimit="10"/><text fill="rgb(37,37,37)" stroke="none" font-family="geogebra-serif, serif" font-size="12px" font-style="normal" font-weight="bold" text-decoration="normal" x="206" y="456" text-anchor="start" dominant-baseline="alphabetic" fill-opacity="1">–6</text><text fill="none" stroke="rgb(255,255,255)" font-family="geogebra-serif, serif" font-size="12px" font-style="normal" font-weight="bold" text-decoration="normal" x="206" y="456" text-anchor="start" dominant-baseline="alphabetic" stroke-opacity="1" stroke-linejoin="bevel" stroke-miterlimit="10" stroke-width="3">–6</text><text fill="rgb(37,37,37)" stroke="none" font-family="geogebra-serif, serif" font-size="12px" font-style="normal" font-weight="bold" text-decoration="normal" x="206" y="456" text-anchor="start" dominant-baseline="alphabetic" fill-opacity="1">–6</text><path fill="none" stroke="rgb(37,37,37)" paint-order="fill stroke markers" d=" M 212.5 440.5 L 212.5 443.5" stroke-opacity="1" stroke-miterlimit="10"/><text fill="rgb(37,37,37)" stroke="none" font-family="geogebra-serif, serif" font-size="12px" font-style="normal" font-weight="bold" text-decoration="normal" x="293" y="456" text-anchor="start" dominant-baseline="alphabetic" fill-opacity="1">–5</text><text fill="none" stroke="rgb(255,255,255)" font-family="geogebra-serif, serif" font-size="12px" font-style="normal" font-weight="bold" text-decoration="normal" x="293" y="456" text-anchor="start" dominant-baseline="alphabetic" stroke-opacity="1" stroke-linejoin="bevel" stroke-miterlimit="10" stroke-width="3">–5</text><text fill="rgb(37,37,37)" stroke="none" font-family="geogebra-serif, serif" font-size="12px" font-style="normal" font-weight="bold" text-decoration="normal" x="293" y="456" text-anchor="start" dominant-baseline="alphabetic" fill-opacity="1">–5</text><path fill="none" stroke="rgb(37,37,37)" paint-order="fill stroke markers" d=" M 299.5 440.5 L 299.5 443.5" stroke-opacity="1" stroke-miterlimit="10"/><text fill="rgb(37,37,37)" stroke="none" font-family="geogebra-serif, serif" font-size="12px" font-style="normal" font-weight="bold" text-decoration="normal" x="380" y="456" text-anchor="start" dominant-baseline="alphabetic" fill-opacity="1">–4</text><text fill="none" stroke="rgb(255,255,255)" font-family="geogebra-serif, serif" font-size="12px" font-style="normal" font-weight="bold" text-decoration="normal" x="380" y="456" text-anchor="start" dominant-baseline="alphabetic" stroke-opacity="1" stroke-linejoin="bevel" stroke-miterlimit="10" stroke-width="3">–4</text><text fill="rgb(37,37,37)" stroke="none" font-family="geogebra-serif, serif" font-size="12px" font-style="normal" font-weight="bold" text-decoration="normal" x="380" y="456" text-anchor="start" dominant-baseline="alphabetic" fill-opacity="1">–4</text><path fill="none" stroke="rgb(37,37,37)" paint-order="fill stroke markers" d=" M 386.5 440.5 L 386.5 443.5" stroke-opacity="1" stroke-miterlimit="10"/><text fill="rgb(37,37,37)" stroke="none" font-family="geogebra-serif, serif" font-size="12px" font-style="normal" font-weight="bold" text-decoration="normal" x="467" y="456" text-anchor="start" dominant-baseline="alphabetic" fill-opacity="1">–3</text><text fill="none" stroke="rgb(255,255,255)" font-family="geogebra-serif, serif" font-size="12px" font-style="normal" font-weight="bold" text-decoration="normal" x="467" y="456" text-anchor="start" dominant-baseline="alphabetic" stroke-opacity="1" stroke-linejoin="bevel" stroke-miterlimit="10" stroke-width="3">–3</text><text fill="rgb(37,37,37)" stroke="none" font-family="geogebra-serif, serif" font-size="12px" font-style="normal" font-weight="bold" text-decoration="normal" x="467" y="456" text-anchor="start" dominant-baseline="alphabetic" fill-opacity="1">–3</text><path fill="none" stroke="rgb(37,37,37)" paint-order="fill stroke markers" d=" M 473.5 440.5 L 473.5 443.5" stroke-opacity="1" stroke-miterlimit="10"/><text fill="rgb(37,37,37)" stroke="none" font-family="geogebra-serif, serif" font-size="12px" font-style="normal" font-weight="bold" text-decoration="normal" x="553" y="456" text-anchor="start" dominant-baseline="alphabetic" fill-opacity="1">–2</text><text fill="none" stroke="rgb(255,255,255)" font-family="geogebra-serif, serif" font-size="12px" font-style="normal" font-weight="bold" text-decoration="normal" x="553" y="456" text-anchor="start" dominant-baseline="alphabetic" stroke-opacity="1" stroke-linejoin="bevel" stroke-miterlimit="10" stroke-width="3">–2</text><text fill="rgb(37,37,37)" stroke="none" font-family="geogebra-serif, serif" font-size="12px" font-style="normal" font-weight="bold" text-decoration="normal" x="553" y="456" text-anchor="start" dominant-baseline="alphabetic" fill-opacity="1">–2</text><path fill="none" stroke="rgb(37,37,37)" paint-order="fill stroke markers" d=" M 560.5 440.5 L 560.5 443.5" stroke-opacity="1" stroke-miterlimit="10"/><text fill="rgb(37,37,37)" stroke="none" font-family="geogebra-serif, serif" font-size="12px" font-style="normal" font-weight="bold" text-decoration="normal" x="640" y="456" text-anchor="start" dominant-baseline="alphabetic" fill-opacity="1">–1</text><text fill="none" stroke="rgb(255,255,255)" font-family="geogebra-serif, serif" font-size="12px" font-style="normal" font-weight="bold" text-decoration="normal" x="640" y="456" text-anchor="start" dominant-baseline="alphabetic" stroke-opacity="1" stroke-linejoin="bevel" stroke-miterlimit="10" stroke-width="3">–1</text><text fill="rgb(37,37,37)" stroke="none" font-family="geogebra-serif, serif" font-size="12px" font-style="normal" font-weight="bold" text-decoration="normal" x="640" y="456" text-anchor="start" dominant-baseline="alphabetic" fill-opacity="1">–1</text><path fill="none" stroke="rgb(37,37,37)" paint-order="fill stroke markers" d=" M 646.5 440.5 L 646.5 443.5" stroke-opacity="1" stroke-miterlimit="10"/><path fill="none" stroke="rgb(37,37,37)" paint-order="fill stroke markers" d=" M 733.5 440.5 L 733.5 443.5" stroke-opacity="1" stroke-miterlimit="10"/><text fill="rgb(37,37,37)" stroke="none" font-family="geogebra-serif, serif" font-size="12px" font-style="normal" font-weight="bold" text-decoration="normal" x="817" y="456" text-anchor="start" dominant-baseline="alphabetic" fill-opacity="1">1</text><text fill="none" stroke="rgb(255,255,255)" font-family="geogebra-serif, serif" font-size="12px" font-style="normal" font-weight="bold" text-decoration="normal" x="817" y="456" text-anchor="start" dominant-baseline="alphabetic" stroke-opacity="1" stroke-linejoin="bevel" stroke-miterlimit="10" stroke-width="3">1</text><text fill="rgb(37,37,37)" stroke="none" font-family="geogebra-serif, serif" font-size="12px" font-style="normal" font-weight="bold" text-decoration="normal" x="817" y="456" text-anchor="start" dominant-baseline="alphabetic" fill-opacity="1">1</text><path fill="none" stroke="rgb(37,37,37)" paint-order="fill stroke markers" d=" M 820.5 440.5 L 820.5 443.5" stroke-opacity="1" stroke-miterlimit="10"/><text fill="rgb(37,37,37)" stroke="none" font-family="geogebra-serif, serif" font-size="12px" font-style="normal" font-weight="bold" text-decoration="normal" x="904" y="456" text-anchor="start" dominant-baseline="alphabetic" fill-opacity="1">2</text><text fill="none" stroke="rgb(255,255,255)" font-family="geogebra-serif, serif" font-size="12px" font-style="normal" font-weight="bold" text-decoration="normal" x="904" y="456" text-anchor="start" dominant-baseline="alphabetic" stroke-opacity="1" stroke-linejoin="bevel" stroke-miterlimit="10" stroke-width="3">2</text><text fill="rgb(37,37,37)" stroke="none" font-family="geogebra-serif, serif" font-size="12px" font-style="normal" font-weight="bold" text-decoration="normal" x="904" y="456" text-anchor="start" dominant-baseline="alphabetic" fill-opacity="1">2</text><path fill="none" stroke="rgb(37,37,37)" paint-order="fill stroke markers" d=" M 907.5 440.5 L 907.5 443.5" stroke-opacity="1" stroke-miterlimit="10"/><text fill="rgb(37,37,37)" stroke="none" font-family="geogebra-serif, serif" font-size="12px" font-style="normal" font-weight="bold" text-decoration="normal" x="991" y="456" text-anchor="start" dominant-baseline="alphabetic" fill-opacity="1">3</text><text fill="none" stroke="rgb(255,255,255)" font-family="geogebra-serif, serif" font-size="12px" font-style="normal" font-weight="bold" text-decoration="normal" x="991" y="456" text-anchor="start" dominant-baseline="alphabetic" stroke-opacity="1" stroke-linejoin="bevel" stroke-miterlimit="10" stroke-width="3">3</text><text fill="rgb(37,37,37)" stroke="none" font-family="geogebra-serif, serif" font-size="12px" font-style="normal" font-weight="bold" text-decoration="normal" x="991" y="456" text-anchor="start" dominant-baseline="alphabetic" fill-opacity="1">3</text><path fill="none" stroke="rgb(37,37,37)" paint-order="fill stroke markers" d=" M 993.5 440.5 L 993.5 443.5" stroke-opacity="1" stroke-miterlimit="10"/><text fill="rgb(37,37,37)" stroke="none" font-family="geogebra-serif, serif" font-size="12px" font-style="normal" font-weight="bold" text-decoration="normal" x="1078" y="456" text-anchor="start" dominant-baseline="alphabetic" fill-opacity="1">4</text><text fill="none" stroke="rgb(255,255,255)" font-family="geogebra-serif, serif" font-size="12px" font-style="normal" font-weight="bold" text-decoration="normal" x="1078" y="456" text-anchor="start" dominant-baseline="alphabetic" stroke-opacity="1" stroke-linejoin="bevel" stroke-miterlimit="10" stroke-width="3">4</text><text fill="rgb(37,37,37)" stroke="none" font-family="geogebra-serif, serif" font-size="12px" font-style="normal" font-weight="bold" text-decoration="normal" x="1078" y="456" text-anchor="start" dominant-baseline="alphabetic" fill-opacity="1">4</text><path fill="none" stroke="rgb(37,37,37)" paint-order="fill stroke markers" d=" M 1080.5 440.5 L 1080.5 443.5" stroke-opacity="1" stroke-miterlimit="10"/><text fill="rgb(37,37,37)" stroke="none" font-family="geogebra-serif, serif" font-size="12px" font-style="normal" font-weight="bold" text-decoration="normal" x="1164" y="456" text-anchor="start" dominant-baseline="alphabetic" fill-opacity="1">5</text><text fill="none" stroke="rgb(255,255,255)" font-family="geogebra-serif, serif" font-size="12px" font-style="normal" font-weight="bold" text-decoration="normal" x="1164" y="456" text-anchor="start" dominant-baseline="alphabetic" stroke-opacity="1" stroke-linejoin="bevel" stroke-miterlimit="10" stroke-width="3">5</text><text fill="rgb(37,37,37)" stroke="none" font-family="geogebra-serif, serif" font-size="12px" font-style="normal" font-weight="bold" text-decoration="normal" x="1164" y="456" text-anchor="start" dominant-baseline="alphabetic" fill-opacity="1">5</text><path fill="none" stroke="rgb(37,37,37)" paint-order="fill stroke markers" d=" M 1167.5 440.5 L 1167.5 443.5" stroke-opacity="1" stroke-miterlimit="10"/><text fill="rgb(37,37,37)" stroke="none" font-family="geogebra-serif, serif" font-size="12px" font-style="normal" font-weight="bold" text-decoration="normal" x="1251" y="456" text-anchor="start" dominant-baseline="alphabetic" fill-opacity="1">6</text><text fill="none" stroke="rgb(255,255,255)" font-family="geogebra-serif, serif" font-size="12px" font-style="normal" font-weight="bold" text-decoration="normal" x="1251" y="456" text-anchor="start" dominant-baseline="alphabetic" stroke-opacity="1" stroke-linejoin="bevel" stroke-miterlimit="10" stroke-width="3">6</text><text fill="rgb(37,37,37)" stroke="none" font-family="geogebra-serif, serif" font-size="12px" font-style="normal" font-weight="bold" text-decoration="normal" x="1251" y="456" text-anchor="start" dominant-baseline="alphabetic" fill-opacity="1">6</text><path fill="none" stroke="rgb(37,37,37)" paint-order="fill stroke markers" d=" M 1254.5 440.5 L 1254.5 443.5" stroke-opacity="1" stroke-miterlimit="10"/><text fill="rgb(37,37,37)" stroke="none" font-family="geogebra-serif, serif" font-size="12px" font-style="normal" font-weight="bold" text-decoration="normal" x="1338" y="456" text-anchor="start" dominant-baseline="alphabetic" fill-opacity="1">7</text><text fill="none" stroke="rgb(255,255,255)" font-family="geogebra-serif, serif" font-size="12px" font-style="normal" font-weight="bold" text-decoration="normal" x="1338" y="456" text-anchor="start" dominant-baseline="alphabetic" stroke-opacity="1" stroke-linejoin="bevel" stroke-miterlimit="10" stroke-width="3">7</text><text fill="rgb(37,37,37)" stroke="none" font-family="geogebra-serif, serif" font-size="12px" font-style="normal" font-weight="bold" text-decoration="normal" x="1338" y="456" text-anchor="start" dominant-baseline="alphabetic" fill-opacity="1">7</text><path fill="none" stroke="rgb(37,37,37)" paint-order="fill stroke markers" d=" M 1340.5 440.5 L 1340.5 443.5" stroke-opacity="1" stroke-miterlimit="10"/><text fill="rgb(37,37,37)" stroke="none" font-family="geogebra-serif, serif" font-size="12px" font-style="normal" font-weight="bold" text-decoration="normal" x="1425" y="456" text-anchor="start" dominant-baseline="alphabetic" fill-opacity="1">8</text><text fill="none" stroke="rgb(255,255,255)" font-family="geogebra-serif, serif" font-size="12px" font-style="normal" font-weight="bold" text-decoration="normal" x="1425" y="456" text-anchor="start" dominant-baseline="alphabetic" stroke-opacity="1" stroke-linejoin="bevel" stroke-miterlimit="10" stroke-width="3">8</text><text fill="rgb(37,37,37)" stroke="none" font-family="geogebra-serif, serif" font-size="12px" font-style="normal" font-weight="bold" text-decoration="normal" x="1425" y="456" text-anchor="start" dominant-baseline="alphabetic" fill-opacity="1">8</text><path fill="none" stroke="rgb(37,37,37)" paint-order="fill stroke markers" d=" M 1427.5 440.5 L 1427.5 443.5" stroke-opacity="1" stroke-miterlimit="10"/><text fill="rgb(37,37,37)" stroke="none" font-family="geogebra-serif, serif" font-size="12px" font-style="normal" font-weight="bold" text-decoration="normal" x="1511" y="456" text-anchor="start" dominant-baseline="alphabetic" fill-opacity="1">9</text><text fill="none" stroke="rgb(255,255,255)" font-family="geogebra-serif, serif" font-size="12px" font-style="normal" font-weight="bold" text-decoration="normal" x="1511" y="456" text-anchor="start" dominant-baseline="alphabetic" stroke-opacity="1" stroke-linejoin="bevel" stroke-miterlimit="10" stroke-width="3">9</text><text fill="rgb(37,37,37)" stroke="none" font-family="geogebra-serif, serif" font-size="12px" font-style="normal" font-weight="bold" text-decoration="normal" x="1511" y="456" text-anchor="start" dominant-baseline="alphabetic" fill-opacity="1">9</text><path fill="none" stroke="rgb(37,37,37)" paint-order="fill stroke markers" d=" M 1514.5 440.5 L 1514.5 443.5" stroke-opacity="1" stroke-miterlimit="10"/><path fill="none" stroke="rgb(37,37,37)" paint-order="fill stroke markers" d=" M 730.5 873.5 L 733.5 873.5" stroke-opacity="1" stroke-miterlimit="10"/><path fill="none" stroke="rgb(37,37,37)" paint-order="fill stroke markers" d=" M 730.5 787.5 L 733.5 787.5" stroke-opacity="1" stroke-miterlimit="10"/><path fill="none" stroke="rgb(37,37,37)" paint-order="fill stroke markers" d=" M 730.5 700.5 L 733.5 700.5" stroke-opacity="1" stroke-miterlimit="10"/><path fill="none" stroke="rgb(37,37,37)" paint-order="fill stroke markers" d=" M 730.5 613.5 L 733.5 613.5" stroke-opacity="1" stroke-miterlimit="10"/><path fill="none" stroke="rgb(37,37,37)" paint-order="fill stroke markers" d=" M 730.5 526.5 L 733.5 526.5" stroke-opacity="1" stroke-miterlimit="10"/><path fill="none" stroke="rgb(37,37,37)" paint-order="fill stroke markers" d=" M 730.5 353.5 L 733.5 353.5" stroke-opacity="1" stroke-miterlimit="10"/><path fill="none" stroke="rgb(37,37,37)" paint-order="fill stroke markers" d=" M 730.5 266.5 L 733.5 266.5" stroke-opacity="1" stroke-miterlimit="10"/><path fill="none" stroke="rgb(37,37,37)" paint-order="fill stroke markers" d=" M 730.5 179.5 L 733.5 179.5" stroke-opacity="1" stroke-miterlimit="10"/><path fill="none" stroke="rgb(37,37,37)" paint-order="fill stroke markers" d=" M 730.5 92.5 L 733.5 92.5" stroke-opacity="1" stroke-miterlimit="10"/><text fill="rgb(37,37,37)" stroke="none" font-family="geogebra-serif, serif" font-size="12px" font-style="normal" font-weight="bold" text-decoration="normal" x="714" y="878" text-anchor="start" dominant-baseline="alphabetic" fill-opacity="1">–5</text><text fill="none" stroke="rgb(255,255,255)" font-family="geogebra-serif, serif" font-size="12px" font-style="normal" font-weight="bold" text-decoration="normal" x="714" y="878" text-anchor="start" dominant-baseline="alphabetic" stroke-opacity="1" stroke-linejoin="bevel" stroke-miterlimit="10" stroke-width="3">–5</text><text fill="rgb(37,37,37)" stroke="none" font-family="geogebra-serif, serif" font-size="12px" font-style="normal" font-weight="bold" text-decoration="normal" x="714" y="878" text-anchor="start" dominant-baseline="alphabetic" fill-opacity="1">–5</text><text fill="rgb(37,37,37)" stroke="none" font-family="geogebra-serif, serif" font-size="12px" font-style="normal" font-weight="bold" text-decoration="normal" x="714" y="792" text-anchor="start" dominant-baseline="alphabetic" fill-opacity="1">–4</text><text fill="none" stroke="rgb(255,255,255)" font-family="geogebra-serif, serif" font-size="12px" font-style="normal" font-weight="bold" text-decoration="normal" x="714" y="792" text-anchor="start" dominant-baseline="alphabetic" stroke-opacity="1" stroke-linejoin="bevel" stroke-miterlimit="10" stroke-width="3">–4</text><text fill="rgb(37,37,37)" stroke="none" font-family="geogebra-serif, serif" font-size="12px" font-style="normal" font-weight="bold" text-decoration="normal" x="714" y="792" text-anchor="start" dominant-baseline="alphabetic" fill-opacity="1">–4</text><text fill="rgb(37,37,37)" stroke="none" font-family="geogebra-serif, serif" font-size="12px" font-style="normal" font-weight="bold" text-decoration="normal" x="714" y="705" text-anchor="start" dominant-baseline="alphabetic" fill-opacity="1">–3</text><text fill="none" stroke="rgb(255,255,255)" font-family="geogebra-serif, serif" font-size="12px" font-style="normal" font-weight="bold" text-decoration="normal" x="714" y="705" text-anchor="start" dominant-baseline="alphabetic" stroke-opacity="1" stroke-linejoin="bevel" stroke-miterlimit="10" stroke-width="3">–3</text><text fill="rgb(37,37,37)" stroke="none" font-family="geogebra-serif, serif" font-size="12px" font-style="normal" font-weight="bold" text-decoration="normal" x="714" y="705" text-anchor="start" dominant-baseline="alphabetic" fill-opacity="1">–3</text><text fill="rgb(37,37,37)" stroke="none" font-family="geogebra-serif, serif" font-size="12px" font-style="normal" font-weight="bold" text-decoration="normal" x="714" y="618" text-anchor="start" dominant-baseline="alphabetic" fill-opacity="1">–2</text><text fill="none" stroke="rgb(255,255,255)" font-family="geogebra-serif, serif" font-size="12px" font-style="normal" font-weight="bold" text-decoration="normal" x="714" y="618" text-anchor="start" dominant-baseline="alphabetic" stroke-opacity="1" stroke-linejoin="bevel" stroke-miterlimit="10" stroke-width="3">–2</text><text fill="rgb(37,37,37)" stroke="none" font-family="geogebra-serif, serif" font-size="12px" font-style="normal" font-weight="bold" text-decoration="normal" x="714" y="618" text-anchor="start" dominant-baseline="alphabetic" fill-opacity="1">–2</text><text fill="rgb(37,37,37)" stroke="none" font-family="geogebra-serif, serif" font-size="12px" font-style="normal" font-weight="bold" text-decoration="normal" x="714" y="531" text-anchor="start" dominant-baseline="alphabetic" fill-opacity="1">–1</text><text fill="none" stroke="rgb(255,255,255)" font-family="geogebra-serif, serif" font-size="12px" font-style="normal" font-weight="bold" text-decoration="normal" x="714" y="531" text-anchor="start" dominant-baseline="alphabetic" stroke-opacity="1" stroke-linejoin="bevel" stroke-miterlimit="10" stroke-width="3">–1</text><text fill="rgb(37,37,37)" stroke="none" font-family="geogebra-serif, serif" font-size="12px" font-style="normal" font-weight="bold" text-decoration="normal" x="714" y="531" text-anchor="start" dominant-baseline="alphabetic" fill-opacity="1">–1</text><text fill="rgb(37,37,37)" stroke="none" font-family="geogebra-serif, serif" font-size="12px" font-style="normal" font-weight="bold" text-decoration="normal" x="720" y="358" text-anchor="start" dominant-baseline="alphabetic" fill-opacity="1">1</text><text fill="none" stroke="rgb(255,255,255)" font-family="geogebra-serif, serif" font-size="12px" font-style="normal" font-weight="bold" text-decoration="normal" x="720" y="358" text-anchor="start" dominant-baseline="alphabetic" stroke-opacity="1" stroke-linejoin="bevel" stroke-miterlimit="10" stroke-width="3">1</text><text fill="rgb(37,37,37)" stroke="none" font-family="geogebra-serif, serif" font-size="12px" font-style="normal" font-weight="bold" text-decoration="normal" x="720" y="358" text-anchor="start" dominant-baseline="alphabetic" fill-opacity="1">1</text><text fill="rgb(37,37,37)" stroke="none" font-family="geogebra-serif, serif" font-size="12px" font-style="normal" font-weight="bold" text-decoration="normal" x="720" y="271" text-anchor="start" dominant-baseline="alphabetic" fill-opacity="1">2</text><text fill="none" stroke="rgb(255,255,255)" font-family="geogebra-serif, serif" font-size="12px" font-style="normal" font-weight="bold" text-decoration="normal" x="720" y="271" text-anchor="start" dominant-baseline="alphabetic" stroke-opacity="1" stroke-linejoin="bevel" stroke-miterlimit="10" stroke-width="3">2</text><text fill="rgb(37,37,37)" stroke="none" font-family="geogebra-serif, serif" font-size="12px" font-style="normal" font-weight="bold" text-decoration="normal" x="720" y="271" text-anchor="start" dominant-baseline="alphabetic" fill-opacity="1">2</text><text fill="rgb(37,37,37)" stroke="none" font-family="geogebra-serif, serif" font-size="12px" font-style="normal" font-weight="bold" text-decoration="normal" x="720" y="184" text-anchor="start" dominant-baseline="alphabetic" fill-opacity="1">3</text><text fill="none" stroke="rgb(255,255,255)" font-family="geogebra-serif, serif" font-size="12px" font-style="normal" font-weight="bold" text-decoration="normal" x="720" y="184" text-anchor="start" dominant-baseline="alphabetic" stroke-opacity="1" stroke-linejoin="bevel" stroke-miterlimit="10" stroke-width="3">3</text><text fill="rgb(37,37,37)" stroke="none" font-family="geogebra-serif, serif" font-size="12px" font-style="normal" font-weight="bold" text-decoration="normal" x="720" y="184" text-anchor="start" dominant-baseline="alphabetic" fill-opacity="1">3</text><text fill="rgb(37,37,37)" stroke="none" font-family="geogebra-serif, serif" font-size="12px" font-style="normal" font-weight="bold" text-decoration="normal" x="720" y="97" text-anchor="start" dominant-baseline="alphabetic" fill-opacity="1">4</text><text fill="none" stroke="rgb(255,255,255)" font-family="geogebra-serif, serif" font-size="12px" font-style="normal" font-weight="bold" text-decoration="normal" x="720" y="97" text-anchor="start" dominant-baseline="alphabetic" stroke-opacity="1" stroke-linejoin="bevel" stroke-miterlimit="10" stroke-width="3">4</text><text fill="rgb(37,37,37)" stroke="none" font-family="geogebra-serif, serif" font-size="12px" font-style="normal" font-weight="bold" text-decoration="normal" x="720" y="97" text-anchor="start" dominant-baseline="alphabetic" fill-opacity="1">4</text><text fill="rgb(37,37,37)" stroke="none" font-family="geogebra-serif, serif" font-size="12px" font-style="normal" font-weight="bold" text-decoration="normal" x="720" y="456" text-anchor="start" dominant-baseline="alphabetic" fill-opacity="1">0</text><text fill="none" stroke="rgb(255,255,255)" font-family="geogebra-serif, serif" font-size="12px" font-style="normal" font-weight="bold" text-decoration="normal" x="720" y="456" text-anchor="start" dominant-baseline="alphabetic" stroke-opacity="1" stroke-linejoin="bevel" stroke-miterlimit="10" stroke-width="3">0</text><text fill="rgb(37,37,37)" stroke="none" font-family="geogebra-serif, serif" font-size="12px" font-style="normal" font-weight="bold" text-decoration="normal" x="720" y="456" text-anchor="start" dominant-baseline="alphabetic" fill-opacity="1">0</text><path fill="none" stroke="rgb(0,153,255)" paint-order="fill stroke markers" d=" M 734 433.95820122898266 L 734 440.0422526982802 L 734 433.95820122898266 L 735 428.9166298330849 L 735 428.9166298330849 L 736 425.5321429124774 L 736 425.5321429124774 L 737 422.79965753822546 L 737 422.79965753822546 L 738 420.4445260517776 L 738 420.4445260517776 L 739 418.34352712352506 L 739 418.34352712352506 L 740 416.42872916988597 L 740 416.42872916988597 L 741 414.65796040395924 L 741 414.6579604039593 L 742 413.0029091940267 L 742 413.00290919402676 L 743 411.44347826652336 L 743 411.44347826652336 L 744 409.96479102253363 L 744 409.96479102253363 L 745 408.55546971377225 L 745 408.55546971377225 L 746 407.20658147671094 L 746 407.20658147671094 L 747 405.9109605101944 L 747 405.9109605101944 L 748 404.66275428060925 L 748 404.6627542806093 L 749 403.45710940016704 L 749 403.45710940016704 L 750 402.28994797391977 L 750 402.28994797391977 L 751 401.1578044720489 L 751 401.1578044720489 L 752 400.05770423620606 L 752 400.05770423620606 L 753 398.98707132523725 L 753 398.98707132523725 L 754 397.94365747906954 L 754 397.94365747906954 L 755 396.92548657083927 L 755 396.92548657083927 L 756 395.9308106095666 L 756 395.9308106095666 L 757 394.95807448681194 L 757 394.958074486812 L 758 394.00588743275426 L 758 394.0058874327543 L 759 393.0729996840112 L 759 393.0729996840112 L 760 392.15828324527945 L 760 392.15828324527945 L 761 391.26071589967773 L 761 391.2607158996778 L 762 390.3793678214338 L 762 390.3793678214338 L 763 389.51339029125194 L 763 389.513390291252 L 764 388.66200612427195 L 764 388.66200612427195 L 765 387.8245015032758 L 765 387.8245015032758 L 766 387.00021897293294 L 766 387.00021897293294 L 767 386.1885513994988 L 767 386.1885513994988 L 768 385.3889367381679 L 768 385.3889367381679 L 769 384.60085347988604 L 769 384.60085347988604 L 770 383.8238166728014 L 770 383.8238166728014 L 771 383.0573744321266 L 771 383.0573744321266 L 772 382.3011048670685 L 772 382.30110486706855 L 773 381.55461336548325 L 773 381.5546133654833 L 774 380.8175301866396 L 774 380.8175301866396 L 775 380.0895083204094 L 775 380.0895083204094 L 776 379.3702215777069 L 776 379.3702215777069 L 777 378.6593628823607 L 777 378.6593628823607 L 778 377.9566427390408 L 778 377.95664273904083 L 779 377.2617878555578 L 779 377.2617878555578 L 780 376.57453990093893 L 780 376.574539900939 L 781 375.89465438327477 L 781 375.89465438327477 L 782 375.22189963351525 L 782 375.22189963351525 L 783 374.55605588323925 L 783 374.5560558832393 L 784 373.89691442598945 L 784 373.89691442598945 L 785 373.2442768531001 L 785 373.24427685310013 L 786 372.59795435608703 L 786 372.59795435608703 L 787 371.9577670886477 L 787 371.95776708864776 L 788 371.3235435821614 L 788 371.3235435821614 L 789 370.6951202093067 L 789 370.69512020930676 L 790 370.0723406910414 L 790 370.07234069104146 L 791 369.45505564273594 L 791 369.455055642736 L 792 368.8431221557256 L 792 368.84312215572567 L 793 368.23640341096086 L 793 368.23640341096086 L 794 367.6347683217966 L 794 367.6347683217966 L 795 367.03809120327907 L 795 367.03809120327907 L 796 366.44625146556575 L 796 366.4462514655658 L 797 365.8591333293618 L 797 365.85913332936184 L 798 365.2766255614689 L 798 365.27662556146896 L 799 364.69862122873803 L 799 364.69862122873803 L 800 364.1250174688827 L 800 364.1250174688827 L 801 363.55571527676284 L 801 363.5557152767629 L 802 362.9906193048818 L 802 362.9906193048818 L 803 362.42963767695676 L 803 362.42963767695676 L 804 361.87268181353215 L 804 361.87268181353215 L 805 361.3196662686973 L 805 361.31966626869735 L 806 360.7705085770573 L 806 360.7705085770573 L 807 360.2251291101795 L 807 360.2251291101795 L 808 359.6834509418103 L 808 359.6834509418103 L 809 359.1453997212136 L 809 359.1453997212136 L 810 358.61090355404326 L 810 358.61090355404326 L 811 358.0798928902066 L 811 358.0798928902067 L 812 357.5523004182261 L 812 357.5523004182261 L 813 357.0280609656427 L 813 357.0280609656427 L 814 356.50711140504603 L 814 356.50711140504603 L 815 355.98939056534573 L 815 355.98939056534573 L 816 355.4748391479322 L 816 355.4748391479322 L 817 354.9633996474011 L 817 354.9633996474011 L 818 354.45501627654164 L 818 354.45501627654164 L 819 353.94963489531136 L 819 353.94963489531136 L 820 353.44720294354215 L 820 353.44720294354215 L 821 352.94766937713985 L 821 352.9476693771399 L 822 352.45098460755923 L 822 352.4509846075593 L 823 351.9571004443501 L 823 351.95710044435015 L 824 351.46597004058714 L 824 351.4659700405872 L 825 350.97754784100783 L 825 350.9775478410079 L 826 350.49178953269666 L 826 350.4917895326967 L 827 350.00865199816366 L 827 350.0086519981637 L 828 349.5280932706773 L 828 349.52809327067735 L 829 349.05007249172064 L 829 349.0500724917207 L 830 348.57454987044866 L 830 348.57454987044866 L 831 348.10148664503265 L 831 348.10148664503265 L 832 347.6308450457858 L 832 347.63084504578586 L 833 347.1625882599706 L 833 347.1625882599707 L 834 346.69668039819476 L 834 346.69668039819476 L 835 346.23308646230953 L 835 346.2330864623096 L 836 345.7717723147292 L 836 345.7717723147293 L 837 345.3127046490946 L 837 345.3127046490946 L 838 344.85585096221047 L 838 344.8558509622105 L 839 344.40117952718936 L 839 344.4011795271894 L 840 343.9486593677389 L 840 343.94865936773897 L 841 343.49826023353415 L 841 343.4982602335342 L 842 343.0499525766188 L 842 343.04995257661886 L 843 342.6037075287841 L 843 342.6037075287841 L 844 342.1594968798756 L 844 342.15949687987563 L 845 341.71729305698204 L 845 341.71729305698204 L 846 341.277069104463 L 846 341.27706910446307 L 847 340.83879866477434 L 847 340.8387986647744 L 848 340.4024559600522 L 848 340.4024559600522 L 849 339.96801577442005 L 849 339.9680157744201 L 850 339.5354534369845 L 850 339.53545343698454 L 851 339.10474480548606 L 851 339.1047448054861 L 852 338.67586625057567 L 852 338.6758662505757 L 853 338.24879464068755 L 853 338.2487946406876 L 854 337.82350732748057 L 854 337.8235073274806 L 855 337.39998213182275 L 855 337.39998213182275 L 856 336.9781973302938 L 856 336.9781973302939 L 857 336.55813164218364 L 857 336.55813164218364 L 858 336.1397642169626 L 858 336.1397642169626 L 859 335.7230746222052 L 859 335.7230746222053 L 860 335.308042831946 L 860 335.30804283194607 L 861 334.8946492154484 L 861 334.8946492154484 L 862 334.48287452637015 L 862 334.4828745263702 L 863 334.0726998923076 L 863 334.07269989230764 L 864 333.66410680470244 L 864 333.6641068047025 L 865 333.2570771090965 L 865 333.2570771090965 L 866 332.8515929957189 L 866 332.85159299571893 L 867 332.4476369903936 L 867 332.4476369903937 L 868 332.0451919457519 L 868 332.045191945752 L 869 331.64424103273916 L 869 331.64424103273916 L 870 331.244767732403 L 870 331.24476773240303 L 871 330.8467558279524 L 871 330.84675582795245 L 872 330.45018939707546 L 872 330.4501893970755 L 873 330.0550528045073 L 873 330.05505280450734 L 874 329.6613306948368 L 874 329.66133069483686 L 875 329.26900798554396 L 875 329.269007985544 L 876 328.87806986025794 L 876 328.878069860258 L 877 328.48850176222817 L 877 328.4885017622282 L 878 328.1002893879995 L 878 328.10028938799957 L 879 327.71341868128474 L 879 327.71341868128474 L 880 327.3278758270256 L 880 327.32787582702565 L 881 326.9436472456367 L 881 326.9436472456368 L 882 326.5607195874246 L 882 326.5607195874247 L 883 326.1790797271755 L 883 326.1790797271756 L 884 325.79871475890616 L 884 325.7987147589062 L 885 325.4196119907713 L 885 325.4196119907713 L 886 325.041758940122 L 886 325.04175894012207 L 887 324.66514332871037 L 887 324.6651433287104 L 888 324.2897530780337 L 888 324.28975307803375 L 889 323.91557630481464 L 889 323.91557630481475 L 890 323.54260131661226 L 890 323.5426013166123 L 891 323.1708166075585 L 891 323.1708166075585 L 892 322.80021085421663 L 892 322.80021085421674 L 893 322.43077291155765 L 893 322.4307729115577 L 894 322.0624918090491 L 894 322.0624918090492 L 895 321.69535674685426 L 895 321.6953567468544 L 896 321.3293570921367 L 896 321.3293570921368 L 897 320.9644823754671 L 897 320.9644823754672 L 898 320.6007222873293 L 898 320.60072228732935 L 899 320.23806667472087 L 899 320.2380666747209 L 900 319.87650553784727 L 900 319.87650553784727 L 901 319.51602902690405 L 901 319.5160290269041 L 902 319.1566274389464 L 902 319.15662743894643 L 903 318.79829121484147 L 903 318.79829121484147 L 904 318.44101093630195 L 904 318.441010936302 L 905 318.084777322998 L 905 318.084777322998 L 906 317.729581229744 L 906 317.7295812297441 L 907 317.37541364376 L 907 317.37541364376006 L 908 317.0222656820028 L 908 317.02226568200285 L 909 316.67012858856674 L 909 316.67012858856674 L 910 316.3189937321503 L 910 316.3189937321504 L 911 315.9688526035881 L 911 315.9688526035882 L 912 315.61969681344465 L 912 315.61969681344465 L 913 315.27151808966886 L 913 315.2715180896689 L 914 314.9243082753078 L 914 314.9243082753078 L 915 314.57805932627656 L 915 314.5780593262766 L 916 314.2327633091844 L 916 314.23276330918446 L 917 313.8884123992132 L 917 313.8884123992132 L 918 313.544998878049 L 918 313.54499887804906 L 919 313.2025151318634 L 919 313.20251513186344 L 920 312.86095364934386 L 920 312.86095364934386 L 921 312.5203070197717 L 921 312.52030701977174 L 922 312.1805679311461 L 922 312.18056793114613 L 923 311.8417291683528 L 923 311.84172916835286 L 924 311.5037836113762 L 924 311.5037836113763 L 925 311.16672423355396 L 925 311.166724233554 L 926 310.830544099872 L 926 310.8305440998721 L 927 310.4952363653 L 927 310.4952363653 L 928 310.1607942731649 L 928 310.16079427316504 L 929 309.827211153563 L 929 309.82721115356304 L 930 309.4944804218069 L 930 309.494480421807 L 931 309.16259557691 L 931 309.1625955769101 L 932 308.83155020010395 L 932 308.831550200104 L 933 308.50133795339025 L 933 308.5013379533903 L 934 308.1719525781246 L 934 308.17195257812466 L 935 307.843387893633 L 935 307.843387893633 L 936 307.5156377958581 L 936 307.51563779585814 L 937 307.1886962560367 L 937 307.18869625603674 L 938 306.8625573194054 L 938 306.8625573194055 L 939 306.5372151039355 L 939 306.53721510393564 L 940 306.21266379909514 L 940 306.21266379909525 L 941 305.8888976646383 L 941 305.8888976646384 L 942 305.5659110294206 L 942 305.5659110294207 L 943 305.2436982902401 L 943 305.2436982902401 L 944 304.92225391070303 L 944 304.92225391070315 L 945 304.60157242011434 L 945 304.6015724201144 L 946 304.28164841239084 L 946 304.28164841239095 L 947 303.96247654499825 L 947 303.96247654499825 L 948 303.64405153790995 L 948 303.64405153791006 L 949 303.32636817258833 L 949 303.3263681725884 L 950 303.0094212909864 L 950 303.00942129098644 L 951 302.693205794571 L 951 302.69320579457104 L 952 302.37771664336594 L 952 302.37771664336594 L 953 302.06294885501427 L 953 302.0629488550144 L 954 301.74889750386103 L 954 301.74889750386103 L 955 301.4355577200531 L 955 301.43555772005317 L 956 301.1229246886588 L 956 301.1229246886588 L 957 300.81099364880424 L 957 300.81099364880436 L 958 300.4997598928277 L 958 300.49975989282774 L 959 300.1892187654504 L 959 300.1892187654504 L 960 299.8793656629642 L 960 299.87936566296423 L 961 299.57019603243566 L 961 299.57019603243566 L 962 299.2617053709248 L 962 299.2617053709249 L 963 298.9538892247207 L 963 298.9538892247208 L 964 298.64674318859056 L 964 298.6467431885906 L 965 298.3402629050447 L 965 298.3402629050447 L 966 298.0344440636149 L 966 298.03444406361496 L 967 297.72928240014744 L 967 297.72928240014755 L 968 297.4247736961091 L 968 297.4247736961092 L 969 297.12091377790694 L 969 297.120913777907 L 970 296.81769851622073 L 970 296.8176985162208 L 971 296.5151238253483 L 971 296.5151238253484 L 972 296.21318566256355 L 972 296.21318566256355 L 973 295.91188002748544 L 973 295.9118800274855 L 974 295.61120296146055 L 974 295.6112029614606 L 975 295.31115054695556 L 975 295.3111505469556 L 976 295.0117189069621 L 976 295.0117189069622 L 977 294.7129042044121 L 977 294.7129042044122 L 978 294.4147026416043 L 978 294.4147026416043 L 979 294.1171104596408 L 979 294.11711045964086 L 980 293.82012393787454 L 980 293.82012393787465 L 981 293.52373939336667 L 981 293.52373939336667 L 982 293.22795318035304 L 982 293.2279531803531 L 983 292.9327616897218 L 983 292.9327616897219 L 984 292.6381613484991 L 984 292.6381613484991 L 985 292.34414861934454 L 985 292.3441486193446 L 986 292.0507200000559 L 986 292.0507200000559 L 987 291.757872023082 L 987 291.7578720230821 L 988 291.46560125504504 L 988 291.4656012550451 L 989 291.17390429627073 L 989 291.17390429627073 L 990 290.88277778032676 L 990 290.8827777803268 L 991 290.59221837356995 L 991 290.59221837357 L 992 290.3022227747004 L 992 290.30222277470045 L 993 290.0127877143243 L 993 290.0127877143243 L 994 289.7239099545234 L 994 289.7239099545234 L 995 289.4355862884328 L 995 289.4355862884329 L 996 289.1478135398256 L 996 289.14781353982573 L 997 288.8605885627044 L 997 288.8605885627045 L 998 288.5739082409001 L 998 288.5739082409002 L 999 288.2877694876777 L 999 288.2877694876778 L 1000 288.0021692453482 L 1000 288.0021692453483 L 1001 287.7171044848876 L 1001 287.71710448488767 L 1002 287.4325722055621 L 1002 287.4325722055621 L 1003 287.1485694345593 L 1003 287.14856943455936 L 1004 286.8650932266263 L 1004 286.86509322662636 L 1005 286.5821406637127 L 1005 286.58214066371283 L 1006 286.2997088546209 L 1006 286.29970885462103 L 1007 286.01779493466074 L 1007 286.01779493466086 L 1008 285.7363960653109 L 1008 285.73639606531094 L 1009 285.4555094338852 L 1009 285.45550943388525 L 1010 285.1751322532049 L 1010 285.175132253205 L 1011 284.8952617612757 L 1011 284.8952617612758 L 1012 284.6158952209705 L 1012 284.61589522097063 L 1013 284.3370299197171 L 1013 284.3370299197172 L 1014 284.0586631691908 L 1014 284.0586631691909 L 1015 283.78079230501197 L 1015 283.780792305012 L 1016 283.50341468644865 L 1016 283.50341468644876 L 1017 283.22652769612387 L 1017 283.2265276961239 L 1018 282.9501287397271 L 1018 282.9501287397271 L 1019 282.67421524573103 L 1019 282.67421524573115 L 1020 282.3987846651124 L 1020 282.39878466511243 L 1021 282.12383447107686 L 1021 282.123834471077 L 1022 281.8493621587892 L 1022 281.84936215878923 L 1023 281.57536524510624 L 1023 281.57536524510635 L 1024 281.30184126831574 L 1024 281.3018412683158 L 1025 281.0287877878775 L 1025 281.02878778787755 L 1026 280.7562023841696 L 1026 280.7562023841697 L 1027 280.4840826582385 L 1027 280.48408265823855 L 1028 280.2124262315523 L 1028 280.21242623155234 L 1029 279.94123074575845 L 1029 279.9412307457585 L 1030 279.6704938624448 L 1030 279.67049386244486 L 1031 279.40021326290434 L 1031 279.40021326290446 L 1032 279.1303866479036 L 1032 279.1303866479037 L 1033 278.86101173745425 L 1033 278.8610117374543 L 1034 278.59208627058854 L 1034 278.59208627058865 L 1035 278.3236080051378 L 1035 278.3236080051379 L 1036 278.05557471751445 L 1036 278.05557471751445 L 1037 277.78798420249666 L 1037 277.7879842024968 L 1038 277.5208342730175 L 1038 277.5208342730176 L 1039 277.25412275995575 L 1039 277.25412275995586 L 1040 276.98784751193057 L 1040 276.9878475119306 L 1041 276.72200639509896 L 1041 276.722006395099 L 1042 276.4565972929566 L 1042 276.45659729295664 L 1043 276.1916181061408 L 1043 276.19161810614094 L 1044 275.92706675223724 L 1044 275.92706675223724 L 1045 275.66294116558834 L 1045 275.66294116558845 L 1046 275.3992392971059 L 1046 275.39923929710596 L 1047 275.1359591140851 L 1047 275.13595911408515 L 1048 274.87309860002176 L 1048 274.8730986000219 L 1049 274.6106557544323 L 1049 274.6106557544324 L 1050 274.34862859267605 L 1050 274.34862859267616 L 1051 274.08701514578013 L 1051 274.08701514578024 L 1052 273.8258134602668 L 1052 273.8258134602668 L 1053 273.5650215979831 L 1053 273.5650215979832 L 1054 273.3046376359338 L 1054 273.3046376359339 L 1055 273.0446596661149 L 1055 273.04465966611497 L 1056 272.78508579535134 L 1056 272.7850857953514 L 1057 272.5259141451358 L 1057 272.52591414513586 L 1058 272.2671428514701 L 1058 272.2671428514702 L 1059 272.008770064709 L 1059 272.00877006470904 L 1060 271.75079394940553 L 1060 271.75079394940565 L 1061 271.49321268415946 L 1061 271.4932126841595 L 1062 271.23602446146674 L 1062 271.2360244614668 L 1063 270.9792274875717 L 1063 270.97922748757173 L 1064 270.7228199823212 L 1064 270.7228199823213 L 1065 270.46680017902065 L 1065 270.4668001790207 L 1066 270.21116632429175 L 1066 270.21116632429175 L 1067 269.95591667793246 L 1067 269.9559166779326 L 1068 269.7010495127792 L 1068 269.70104951277926 L 1069 269.4465631145699 L 1069 269.44656311457004 L 1070 269.19245578180994 L 1070 269.19245578181005 L 1071 268.93872582563915 L 1071 268.93872582563915 L 1072 268.6853715697008 L 1072 268.68537156970086 L 1073 268.4323913500127 L 1073 268.4323913500128 L 1074 268.1797835148395 L 1074 268.17978351483964 L 1075 267.9275464245669 L 1075 267.927546424567 L 1076 267.6756784515775 L 1076 267.67567845157754 L 1077 267.424177980128 L 1077 267.4241779801281 L 1078 267.17304340622877 L 1078 267.1730434062289 L 1079 266.9222731375242 L 1079 266.92227313752426 L 1080 266.6718655931749 L 1080 266.67186559317497 L 1081 266.4218192037414 L 1081 266.4218192037415 L 1082 266.1721324110697 L 1082 266.1721324110698 L 1083 265.9228036681775 L 1083 265.9228036681776 L 1084 265.67383143914265 L 1084 265.67383143914276 L 1085 265.42521419899305 L 1085 265.42521419899316 L 1086 265.17695043359697 L 1086 265.1769504335971 L 1087 264.9290386395561 L 1087 264.9290386395562 L 1088 264.6814773240991 L 1088 264.6814773240992 L 1089 264.43426500497645 L 1089 264.43426500497657 L 1090 264.1874002103576 L 1090 264.18740021035774 L 1091 263.94088147872804 L 1091 263.94088147872816 L 1092 263.6947073587887 L 1092 263.69470735878883 L 1093 263.4488764093562 L 1093 263.44887640935633 L 1094 263.2033871992644 L 1094 263.2033871992645 L 1095 262.95823830726727 L 1095 262.9582383072674 L 1096 262.7134283219426 L 1096 262.71342832194273 L 1097 262.4689558415978 L 1097 262.4689558415979 L 1098 262.22481947417543 L 1098 262.22481947417555 L 1099 261.9810178371615 L 1099 261.98101783716163 L 1100 261.7375495574938 L 1100 261.73754955749394 L 1101 261.49441327147156 L 1101 261.49441327147167 L 1102 261.2516076246664 L 1102 261.2516076246665 L 1103 261.0091312718346 L 1103 261.0091312718347 L 1104 260.76698287682956 L 1104 260.76698287682973 L 1105 260.5251611125167 L 1105 260.5251611125168 L 1106 260.2836646606876 L 1106 260.2836646606877 L 1107 260.04249221197733 L 1107 260.04249221197745 L 1108 259.80164246578045 L 1108 259.80164246578056 L 1109 259.56111413017 L 1109 259.5611141301701 L 1110 259.32090592181635 L 1110 259.32090592181646 L 1111 259.08101656590736 L 1111 259.0810165659075 L 1112 258.8414447960695 L 1112 258.8414447960696 L 1113 258.6021893542894 L 1113 258.6021893542895 L 1114 258.3632489908378 L 1114 258.3632489908379 L 1115 258.1246224641922 L 1115 258.1246224641923 L 1116 257.88630854096243 L 1116 257.88630854096255 L 1117 257.64830599581603 L 1117 257.64830599581614 L 1118 257.4106136114044 L 1118 257.41061361140453 L 1119 257.17323017829096 L 1119 257.1732301782911 L 1120 256.9361544948784 L 1120 256.9361544948785 L 1121 256.69938536733844 L 1121 256.69938536733855 L 1122 256.4629216095413 L 1122 256.4629216095414 L 1123 256.2267620429866 L 1123 256.2267620429867 L 1124 255.9909054967348 L 1124 255.9909054967349 L 1125 255.7553508073392 L 1125 255.7553508073393 L 1126 255.5200968187794 L 1126 255.5200968187795 L 1127 255.2851423823947 L 1127 255.2851423823948 L 1128 255.05048635681894 L 1128 255.05048635681905 L 1129 254.8161276079159 L 1129 254.816127607916 L 1130 254.58206500871492 L 1130 254.58206500871503 L 1131 254.34829743934813 L 1131 254.34829743934824 L 1132 254.1148237869876 L 1132 254.11482378698773 L 1133 253.88164294578382 L 1133 253.88164294578394 L 1134 253.64875381680432 L 1134 253.64875381680446 L 1135 253.41615530797344 L 1135 253.41615530797355 L 1136 253.18384633401266 L 1136 253.18384633401277 L 1137 252.95182581638107 L 1137 252.95182581638122 L 1138 252.72009268321756 L 1138 252.72009268321767 L 1139 252.48864586928258 L 1139 252.4886458692827 L 1140 252.25748431590122 L 1140 252.25748431590134 L 1141 252.02660697090673 L 1141 252.02660697090684 L 1142 251.7960127885845 L 1142 251.79601278858465 L 1143 251.565700729617 L 1143 251.5657007296171 L 1144 251.33566976102892 L 1144 251.33566976102904 L 1145 251.1059188561333 L 1145 251.1059188561334 L 1146 250.87644699447793 L 1146 250.87644699447804 L 1147 250.64725316179246 L 1147 250.64725316179258 L 1148 250.41833634993642 L 1148 250.41833634993654 L 1149 250.18969555684697 L 1149 250.18969555684708 L 1150 249.96132978648805 L 1150 249.9613297864882 L 1151 249.73323804879976 L 1151 249.73323804879988 L 1152 249.50541935964816 L 1152 249.50541935964827 L 1153 249.27787274077568 L 1153 249.2778727407758 L 1154 249.05059721975243 L 1154 249.05059721975258 L 1155 248.82359182992735 L 1155 248.82359182992747 L 1156 248.59685561038043 L 1156 248.59685561038054 L 1157 248.37038760587515 L 1157 248.37038760587527 L 1158 248.1441868668117 L 1158 248.14418686681182 L 1159 247.91825244918036 L 1159 247.9182524491805 L 1160 247.6925834145156 L 1160 247.69258341451575 L 1161 247.46717882985064 L 1161 247.46717882985078 L 1162 247.24203776767231 L 1162 247.24203776767243 L 1163 247.01715930587673 L 1163 247.01715930587685 L 1164 246.79254252772503 L 1164 246.79254252772515 L 1165 246.56818652179987 L 1165 246.56818652180004 L 1166 246.34409038196247 L 1166 246.3440903819626 L 1167 246.12025320730942 L 1167 246.12025320730953 L 1168 245.89667410213096 L 1168 245.89667410213107 L 1169 245.67335217586879 L 1169 245.67335217586893 L 1170 245.45028654307498 L 1170 245.4502865430751 L 1171 245.22747632337058 L 1171 245.2274763233707 L 1172 245.00492064140568 L 1172 245.0049206414058 L 1173 244.78261862681876 L 1173 244.78261862681887 L 1174 244.56056941419723 L 1174 244.56056941419735 L 1175 244.3387721430381 L 1175 244.33877214303823 L 1176 244.11722595770905 L 1176 244.1172259577092 L 1177 243.8959300074099 L 1177 243.89593000741004 L 1178 243.6748834461346 L 1178 243.67488344613471 L 1179 243.4540854326332 L 1179 243.45408543263332 L 1180 243.23353513037497 L 1180 243.2335351303751 L 1181 243.01323170751098 L 1181 243.0132317075111 L 1182 242.7931743368377 L 1182 242.79317433683784 L 1183 242.57336219576086 L 1183 242.57336219576098 L 1184 242.3537944662593 L 1184 242.35379446625942 L 1185 242.13447033484974 L 1185 242.13447033484985 L 1186 241.91538899255133 L 1186 241.9153889925515 L 1187 241.6965496348512 L 1187 241.69654963485132 L 1188 241.4779514616696 L 1188 241.4779514616697 L 1189 241.25959367732602 L 1189 241.25959367732614 L 1190 241.04147549050535 L 1190 241.04147549050552 L 1191 240.8235961142245 L 1191 240.8235961142246 L 1192 240.60595476579894 L 1192 240.60595476579905 L 1193 240.38855066681043 L 1193 240.38855066681054 L 1194 240.17138304307403 L 1194 240.17138304307414 L 1195 239.9544511246063 L 1195 239.9544511246064 L 1196 239.7377541455932 L 1196 239.7377541455933 L 1197 239.52129134435867 L 1197 239.5212913443588 L 1198 239.30506196333346 L 1198 239.30506196333357 L 1199 239.0890652490241 L 1199 239.0890652490242 L 1200 238.8733004519821 L 1200 238.8733004519822 L 1201 238.65776682677404 L 1201 238.65776682677415 L 1202 238.44246363195114 L 1202 238.44246363195126 L 1203 238.22739013001976 L 1203 238.22739013001987 L 1204 238.0125455874116 L 1204 238.01254558741172 L 1205 237.7979292744549 L 1205 237.79792927445502 L 1206 237.58354046534532 L 1206 237.58354046534544 L 1207 237.36937843811722 L 1207 237.36937843811734 L 1208 237.15544247461554 L 1208 237.15544247461565 L 1209 236.94173186046743 L 1209 236.94173186046754 L 1210 236.7282458850547 L 1210 236.7282458850548 L 1211 236.51498384148596 L 1211 236.51498384148607 L 1212 236.30194502656957 L 1212 236.30194502656968 L 1213 236.08912874078646 L 1213 236.0891287407866 L 1214 235.87653428826334 L 1214 235.87653428826346 L 1215 235.66416097674613 L 1215 235.66416097674627 L 1216 235.45200811757374 L 1216 235.4520081175739 L 1217 235.240075025652 L 1217 235.24007502565212 L 1218 235.0283610194277 L 1218 235.02836101942782 L 1219 234.81686542086328 L 1219 234.8168654208634 L 1220 234.60558755541126 L 1220 234.60558755541138 L 1221 234.3945267519893 L 1221 234.39452675198947 L 1222 234.18368234295534 L 1222 234.18368234295545 L 1223 233.97305366408258 L 1223 233.9730536640827 L 1224 233.76264005453578 L 1224 233.7626400545359 L 1225 233.5524408568464 L 1225 233.55244085684654 L 1226 233.34245541688898 L 1226 233.3424554168891 L 1227 233.13268308385727 L 1227 233.13268308385744 L 1228 232.92312321024085 L 1228 232.92312321024102 L 1229 232.71377515180157 L 1229 232.71377515180168 L 1230 232.50463826755055 L 1230 232.50463826755066 L 1231 232.2957119197255 L 1231 232.29571191972562 L 1232 232.08699547376764 L 1232 232.08699547376776 L 1233 231.87848829829946 L 1233 231.87848829829963 L 1234 231.67018976510246 L 1234 231.67018976510258 L 1235 231.4620992490949 L 1235 231.46209924909508 L 1236 231.2542161283101 L 1236 231.25421612831022 L 1237 231.04653978387455 L 1237 231.04653978387466 L 1238 230.8390695999866 L 1238 230.83906959998671 L 1239 230.63180496389506 L 1239 230.63180496389518 L 1240 230.42474526587813 L 1240 230.42474526587824 L 1241 230.21788989922237 L 1241 230.2178898992225 L 1242 230.01123826020216 L 1242 230.01123826020233 L 1243 229.804789748059 L 1243 229.8047897480591 L 1244 229.5985437649811 L 1244 229.5985437649812 L 1245 229.3924997160832 L 1245 229.39249971608334 L 1246 229.18665700938675 L 1246 229.18665700938686 L 1247 228.98101505579973 L 1247 228.9810150557999 L 1248 228.7755732690974 L 1248 228.77557326909752 L 1249 228.57033106590228 L 1249 228.5703310659024 L 1250 228.3652878656653 L 1250 228.36528786566544 L 1251 228.1604430906464 L 1251 228.1604430906465 L 1252 227.95579616589555 L 1252 227.9557961658957 L 1253 227.7513465192341 L 1253 227.7513465192342 L 1254 227.5470935812357 L 1254 227.54709358123583 L 1255 227.34303678520837 L 1255 227.34303678520848 L 1256 227.13917556717567 L 1256 227.13917556717578 L 1257 226.9355093658588 L 1257 226.93550936585893 L 1258 226.73203762265837 L 1258 226.7320376226585 L 1259 226.52875978163678 L 1259 226.52875978163695 L 1260 226.32567528950028 L 1260 226.3256752895004 L 1261 226.12278359558135 L 1261 226.12278359558147 L 1262 225.9200841518216 L 1262 225.92008415182173 L 1263 225.7175764127542 L 1263 225.7175764127543 L 1264 225.5152598354868 L 1264 225.51525983548692 L 1265 225.31313387968473 L 1265 225.31313387968484 L 1266 225.1111980075539 L 1266 225.111198007554 L 1267 224.9094516838243 L 1267 224.90945168382441 L 1268 224.7078943757334 L 1268 224.7078943757335 L 1269 224.50652555300977 L 1269 224.50652555300988 L 1270 224.30534468785663 L 1270 224.30534468785675 L 1271 224.10435125493592 L 1271 224.10435125493603 L 1272 223.90354473135227 L 1272 223.9035447313524 L 1273 223.70292459663696 L 1273 223.70292459663708 L 1274 223.50249033273232 L 1274 223.50249033273244 L 1275 223.30224142397617 L 1275 223.30224142397628 L 1276 223.10217735708616 L 1276 223.10217735708633 L 1277 222.9022976211447 L 1277 222.9022976211448 L 1278 222.70260170758334 L 1278 222.70260170758345 L 1279 222.50308911016808 L 1279 222.5030891101682 L 1280 222.3037593249841 L 1280 222.3037593249842 L 1281 222.10461185042112 L 1281 222.10461185042126 L 1282 221.9056461871586 L 1282 221.9056461871587 L 1283 221.70686183815099 L 1283 221.7068618381511 L 1284 221.50825830861348 L 1284 221.50825830861362 L 1285 221.30983510600745 L 1285 221.3098351060076 L 1286 221.11159174002637 L 1286 221.11159174002654 L 1287 220.91352772258156 L 1287 220.91352772258168 L 1288 220.71564256778814 L 1288 220.71564256778825 L 1289 220.51793579195117 L 1289 220.51793579195134 L 1290 220.32040691355206 L 1290 220.32040691355218 L 1291 220.12305545323443 L 1291 220.12305545323457 L 1292 219.92588093379095 L 1292 219.9258809337911 L 1293 219.7288828801497 L 1293 219.72888288014983 L 1294 219.53206081936082 L 1294 219.532060819361 L 1295 219.3354142805834 L 1295 219.33541428058356 L 1296 219.13894279507204 L 1296 219.13894279507218 L 1297 218.94264589616418 L 1297 218.9426458961643 L 1298 218.74652311926687 L 1298 218.74652311926698 L 1299 218.55057400184404 L 1299 218.55057400184415 L 1300 218.354798083404 L 1300 218.35479808340412 L 1301 218.15919490548634 L 1301 218.15919490548646 L 1302 217.96376401164989 L 1302 217.96376401165 L 1303 217.76850494745992 L 1303 217.76850494746003 L 1304 217.57341726047605 L 1304 217.57341726047616 L 1305 217.37850050023994 L 1305 217.3785005002401 L 1306 217.18375421826315 L 1306 217.1837542182633 L 1307 216.98917796801504 L 1307 216.98917796801516 L 1308 216.79477130491094 L 1308 216.7947713049111 L 1309 216.6005337863003 L 1309 216.60053378630042 L 1310 216.40646497145474 L 1310 216.40646497145485 L 1311 216.21256442155666 L 1311 216.21256442155678 L 1312 216.01883169968744 L 1312 216.01883169968758 L 1313 215.8252663708161 L 1313 215.82526637081622 L 1314 215.6318680017878 L 1314 215.63186800178792 L 1315 215.43863616131253 L 1315 215.4386361613127 L 1316 215.24557041995408 L 1316 215.2455704199542 L 1317 215.05267035011858 L 1317 215.05267035011872 L 1318 214.85993552604376 L 1318 214.85993552604387 L 1319 214.6673655237878 L 1319 214.6673655237879 L 1320 214.47495992121847 L 1320 214.4749599212186 L 1321 214.2827182980025 L 1321 214.2827182980026 L 1322 214.09064023559458 L 1322 214.0906402355947 L 1323 213.89872531722696 L 1323 213.89872531722708 L 1324 213.70697312789892 L 1324 213.70697312789903 L 1325 213.515383254366 L 1325 213.51538325436613 L 1326 213.32395528512995 L 1326 213.32395528513007 L 1327 213.1326888104283 L 1327 213.13268881042845 L 1328 212.94158342222406 L 1328 212.94158342222417 L 1329 212.75063871419562 L 1329 212.75063871419573 L 1330 212.55985428172661 L 1330 212.55985428172673 L 1331 212.3692297218961 L 1331 212.36922972189626 L 1332 212.1787646334684 L 1332 212.17876463346857 L 1333 211.98845861688346 L 1333 211.98845861688358 L 1334 211.79831127424677 L 1334 211.79831127424688 L 1335 211.60832220932005 L 1335 211.60832220932016 L 1336 211.41849102751118 L 1336 211.41849102751132 L 1337 211.22881733586516 L 1337 211.22881733586527 L 1338 211.03930074305416 L 1338 211.03930074305427 L 1339 210.84994085936822 L 1339 210.84994085936836 L 1340 210.66073729670612 L 1340 210.66073729670623 L 1341 210.47168966856583 L 1341 210.47168966856594 L 1342 210.2827975900354 L 1342 210.28279759003553 L 1343 210.09406067778386 L 1343 210.09406067778403 L 1344 209.9054785500521 L 1344 209.90547855005224 L 1345 209.71705082664386 L 1345 209.71705082664397 L 1346 209.52877712891672 L 1346 209.5287771289169 L 1347 209.34065707977342 L 1347 209.34065707977354 L 1348 209.15269030365286 L 1348 209.15269030365297 L 1349 208.96487642652136 L 1349 208.96487642652147 L 1350 208.77721507586418 L 1350 208.7772150758643 L 1351 208.58970588067655 L 1351 208.58970588067672 L 1352 208.40234847145553 L 1352 208.40234847145567 L 1353 208.21514248019122 L 1353 208.21514248019133 L 1354 208.02808754035826 L 1354 208.0280875403584 L 1355 207.8411832869078 L 1355 207.84118328690798 L 1356 207.654429356259 L 1356 207.6544293562591 L 1357 207.4678253862905 L 1357 207.46782538629068 L 1358 207.28137101633294 L 1358 207.28137101633305 L 1359 207.09506588715993 L 1359 207.0950658871601 L 1360 206.90890964098082 L 1360 206.90890964098094 L 1361 206.722901921432 L 1361 206.7229019214321 L 1362 206.5370423735694 L 1362 206.5370423735695 L 1363 206.35133064386036 L 1363 206.35133064386048 L 1364 206.1657663801759 L 1364 206.16576638017602 L 1365 205.98034923178287 L 1365 205.98034923178298 L 1366 205.79507884933616 L 1366 205.79507884933628 L 1367 205.6099548848712 L 1367 205.6099548848713 L 1368 205.42497699179606 L 1368 205.42497699179617 L 1369 205.2401448248842 L 1369 205.2401448248843 L 1370 205.05545804026673 L 1370 205.05545804026684 L 1371 204.87091629542502 L 1371 204.87091629542513 L 1372 204.68651924918325 L 1372 204.6865192491834 L 1373 204.50226656170113 L 1373 204.50226656170125 L 1374 204.31815789446648 L 1374 204.3181578944666 L 1375 204.13419291028802 L 1375 204.13419291028822 L 1376 203.95037127328845 L 1376 203.95037127328865 L 1377 203.7666926488966 L 1377 203.76669264889676 L 1378 203.58315670384107 L 1378 203.58315670384127 L 1379 203.39976310614284 L 1379 203.39976310614298 L 1380 203.21651152510802 L 1380 203.21651152510822 L 1381 203.0334016313214 L 1381 203.0334016313216 L 1382 202.85043309663936 L 1382 202.8504330966395 L 1383 202.66760559418267 L 1383 202.66760559418285 L 1384 202.48491879833026 L 1384 202.4849187983304 L 1385 202.30237238471184 L 1385 202.30237238471204 L 1386 202.11996603020174 L 1386 202.11996603020194 L 1387 201.93769941291188 L 1387 201.93769941291202 L 1388 201.75557221218529 L 1388 201.75557221218546 L 1389 201.57358410858936 L 1389 201.57358410858956 L 1390 201.39173478390967 L 1390 201.39173478390984 L 1391 201.21002392114306 L 1391 201.21002392114326 L 1392 201.0284512044914 L 1392 201.0284512044916 L 1393 200.84701631935528 L 1393 200.84701631935542 L 1394 200.66571895232744 L 1394 200.66571895232764 L 1395 200.4845587911866 L 1395 200.48455879118674 L 1396 200.3035355248911 L 1396 200.3035355248913 L 1397 200.1226488435728 L 1397 200.122648843573 L 1398 199.94189843853064 L 1398 199.9418984385308 L 1399 199.76128400222484 L 1399 199.76128400222498 L 1400 199.58080522827055 L 1400 199.5808052282707 L 1401 199.40046181143168 L 1401 199.40046181143188 L 1402 199.22025344761536 L 1402 199.22025344761556 L 1403 199.0401798338654 L 1403 199.04017983386558 L 1404 198.86024066835662 L 1404 198.86024066835682 L 1405 198.68043565038897 L 1405 198.68043565038923 L 1406 198.5007644803817 L 1406 198.5007644803819 L 1407 198.32122685986727 L 1407 198.32122685986747 L 1408 198.1418224914858 L 1408 198.141822491486 L 1409 197.96255107897943 L 1409 197.96255107897963 L 1410 197.78341232718626 L 1410 197.7834123271864 L 1411 197.6044059420349 L 1411 197.6044059420351 L 1412 197.42553163053893 L 1412 197.42553163053913 L 1413 197.24678910079112 L 1413 197.2467891007913 L 1414 197.06817806195784 L 1414 197.06817806195804 L 1415 196.8896982242738 L 1415 196.889698224274 L 1416 196.71134929903636 L 1416 196.71134929903656 L 1417 196.53313099860003 L 1417 196.53313099860023 L 1418 196.35504303637134 L 1418 196.35504303637154 L 1419 196.1770851268031 L 1419 196.1770851268033 L 1420 195.99925698538922 L 1420 195.99925698538942 L 1421 195.82155832865965 L 1421 195.82155832865985 L 1422 195.64398887417465 L 1422 195.64398887417485 L 1423 195.46654834051984 L 1423 195.46654834052003 L 1424 195.28923644730102 L 1424 195.28923644730116 L 1425 195.11205291513872 L 1425 195.11205291513892 L 1426 194.9349974656635 L 1426 194.93499746566377 L 1427 194.75806982151056 L 1427 194.75806982151076 L 1428 194.58126970631454 L 1428 194.58126970631474 L 1429 194.40459684470477 L 1429 194.40459684470497 L 1430 194.22805096230022 L 1430 194.22805096230041 L 1431 194.05163178570444 L 1431 194.05163178570461 L 1432 193.8753390425006 L 1432 193.87533904250083 L 1433 193.69917246124666 L 1433 193.6991724612468 L 1434 193.52313177147045 L 1434 193.52313177147064 L 1435 193.34721670366497 L 1435 193.3472167036651 L 1436 193.1714269892831 L 1436 193.1714269892833 L 1437 192.99576236073355 L 1437 192.9957623607338 L 1438 192.8202225513756 L 1438 192.82022255137582 L 1439 192.64480729551437 L 1439 192.64480729551457 L 1440 192.46951632839637 L 1440 192.4695163283965 L 1441 192.29434938620477 L 1441 192.29434938620497 L 1442 192.11930620605455 L 1442 192.11930620605477 L 1443 191.94438652598825 L 1443 191.94438652598845 L 1444 191.76959008497118 L 1444 191.76959008497136 L 1445 191.5949166228868 L 1445 191.59491662288704 L 1446 191.42036588053247 L 1446 191.42036588053267 L 1447 191.24593759961468 L 1447 191.24593759961488 L 1448 191.0716315227448 L 1448 191.07163152274504 L 1449 190.89744739343456 L 1449 190.89744739343476 L 1450 190.72338495609156 L 1450 190.72338495609176 L 1451 190.54944395601518 L 1451 190.54944395601535 L 1452 190.37562413939182 L 1452 190.37562413939207 L 1453 190.20192525329102 L 1453 190.2019252532912 L 1454 190.02834704566067 L 1454 190.02834704566087 L 1455 189.85488926532338 L 1455 189.85488926532358 L 1456 189.68155166197155 L 1456 189.68155166197172 L 1457 189.50833398616362 L 1457 189.50833398616388 L 1458 189.3352359893199 L 1458 189.33523598932007 L 1459 189.16225742371796 L 1459 189.1622574237181 L 1460 188.98939804248894 L 1460 188.98939804248909 L 1461 188.8166575996132 L 1461 188.8166575996134 L 1462 188.64403584991655 L 1462 188.64403584991672 L 1463 188.47153254906578 L 1463 188.47153254906598 L 1464 188.29914745356476 L 1464 188.29914745356496 L 1465 188.1268803207507 L 1465 188.1268803207509 L 1466 187.95473090878974 L 1466 187.9547309087899 L 1467 187.78269897667317 L 1467 187.78269897667337 L 1468 187.61078428421374 L 1468 187.61078428421393 L 1469 187.43898659204135 L 1469 187.43898659204154 L 1470 187.26730566159932 L 1470 187.2673056615995 L 1471 187.09574125514064 L 1471 187.09574125514084 L 1472 186.92429313572404 L 1472 186.92429313572424 L 1473 186.75296106721 L 1473 186.7529610672102 L 1474 186.58174481425735 L 1474 186.58174481425752 L 1475 186.41064414231906 L 1475 186.41064414231926 L 1476 186.23965881763885 L 1476 186.23965881763903 L 1477 186.06878860724706 L 1477 186.06878860724726 L 1478 185.89803327895763 L 1478 185.89803327895777 L 1479 185.7273926013636 L 1479 185.7273926013638 L 1480 185.55686634383397 L 1480 185.55686634383417 L 1481 185.38645427651002 L 1481 185.38645427651016 L 1482 185.21615617030142 L 1482 185.21615617030164 L 1483 185.04597179688307 L 1483 185.04597179688324 L 1484 184.87590092869098 L 1484 184.8759009286912 L 1485 184.70594333891933 L 1485 184.70594333891952 L 1486 184.53609880151646 L 1486 184.53609880151663 L 1487 184.36636709118144 L 1487 184.36636709118164 L 1488 184.196747983361 L 1488 184.19674798336118 L 1489 184.02724125424555 L 1489 184.02724125424567 L 1490 183.85784668076565 L 1490 183.85784668076593 L 1491 183.68856404058954 L 1491 183.6885640405897 L 1492 183.5193931121184 L 1492 183.51939311211856 L 1493 183.35033367448392 L 1493 183.35033367448415 L 1494 183.18138550754458 L 1494 183.18138550754486 L 1495 183.01254839188255 L 1495 183.01254839188277 L 1496 182.8438221088 L 1496 182.84382210880017 L 1497 182.67520644031583 L 1497 182.675206440316 L 1498 182.50670116916285 L 1498 182.50670116916302 L 1499 182.33830607878394 L 1499 182.33830607878417 L 1500 182.1700209533293 L 1500 182.17002095332953 L 1501 182.00184557765283 L 1501 182.00184557765294 L 1502 181.83377973730887 L 1502 181.8337797373091 L 1503 181.66582321854975 L 1503 181.66582321854992 L 1504 181.49797580832154 L 1504 181.4979758083217 L 1505 181.33023729426168 L 1505 181.33023729426185 L 1506 181.16260746469555 L 1506 181.16260746469578 L 1507 180.99508610863364 L 1507 180.9950861086338 L 1508 180.8276730157677 L 1508 180.8276730157679 L 1509 180.6603679764687 L 1509 180.66036797646893 L 1510 180.49317078178296 L 1510 180.49317078178314 L 1511 180.3260812234294 L 1511 180.32608122342958 L 1512 180.1590990937966 L 1512 180.15909909379684 L 1513 179.99222418593973 L 1513 179.99222418593996 L 1514 179.8254562935773 L 1514 179.82545629357753 L 1515 179.65879521108872 L 1515 179.6587952110889 L 1516 179.49224073351064 L 1516 179.4922407335108 L 1517 179.3257926565347 L 1517 179.32579265653493 L 1518 179.15945077650434 L 1518 179.1594507765045 L 1519 178.99321489041154 L 1519 178.9932148904117 L 1520 178.82708479589456 L 1520 178.82708479589473 L 1521 178.66106029123455 L 1521 178.66106029123472 L 1522 178.495141175353 L 1522 178.49514117535318 L 1523 178.32932724780875 L 1523 178.32932724780892 L 1524 178.16361830879532 L 1524 178.16361830879544 L 1525 177.99801415913777 L 1525 177.99801415913794 L 1526 177.8325146002902 L 1526 177.83251460029044 L 1527 177.66711943433313 L 1527 177.66711943433324 L 1528 177.50182846397018 L 1528 177.50182846397036 L 1529 177.33664149252576 L 1529 177.33664149252598 L 1530 177.17155832394246 L 1530 177.17155832394263 L 1531 177.00657876277774 L 1531 177.0065787627779 L 1532 176.84170261420178 L 1532 176.84170261420195 L 1533 176.67692968399467 L 1533 176.67692968399484 L 1534 176.51225977854352 L 1534 176.5122597785437 L 1535 176.3476927048402 L 1535 176.34769270484043 L 1536 176.18322827047814 L 1536 176.18322827047837 L 1537 176.01886628365037 L 1537 176.01886628365054 L 1538 175.85460655314643 L 1538 175.8546065531466 L 1539 175.6904488883498 L 1539 175.69044888835003 L 1540 175.5263930992357 L 1540 175.52639309923586 L 1541 175.36243899636804 L 1541 175.3624389963682 L 1542 175.19858639089722 L 1542 175.19858639089745 L 1543 175.03483509455742 L 1543 175.03483509455765 L 1544 174.87118491966413 L 1544 174.8711849196643 L 1545 174.70763567911155 L 1545 174.70763567911172 L 1546 174.54418718637027 L 1546 174.5441871863705 L 1547 174.38083925548483 L 1547 174.380839255485 L 1548 174.21759170107066 L 1548 174.21759170107083 L 1549 174.05444433831258 L 1549 174.0544443383128 L 1550 173.89139698296157 L 1550 173.89139698296168 L 1551 173.72844945133272 L 1551 173.72844945133295 L 1552 173.5656015603027 L 1552 173.56560156030287 L 1553 173.40285312730748 L 1553 173.40285312730765 L 1554 173.24020397033973 L 1554 173.24020397033985 L 1555 173.0776539079465 L 1555 173.07765390794674 L 1556 172.9152027592272 L 1556 172.91520275922738 L 1557 172.75285034383063 L 1557 172.75285034383086 L 1558 172.5905964819533 L 1558 172.59059648195347 L 1559 172.42844099433648 L 1559 172.4284409943367 L 1560 172.26638370226465 L 1560 172.26638370226482 L 1561 172.1044244275621 L 1561 172.10442442756238 L 1562 171.942562992592 L 1562 171.94256299259217 L 1563 171.7807992202529 L 1563 171.78079922025313 L 1564 171.6191329339773 L 1564 171.61913293397754 L 1565 171.45756395772895 L 1565 171.45756395772918 L 1566 171.29609211600086 L 1566 171.29609211600103 L 1567 171.13471723381286 L 1567 171.13471723381303 L 1568 170.9734391367096 L 1568 170.97343913670977 L 1569 170.81225765075817 L 1569 170.81225765075834 L 1570 170.651172602546 L 1570 170.65117260254624 L 1571 170.49018381917898 L 1571 170.49018381917915 L 1572 170.32929112827844 L 1572 170.32929112827867 L 1573 170.16849435798002 L 1573 170.1684943579802 L 1574 170.0077933369309 L 1574 170.00779333693106 L 1575 169.84718789428763 L 1575 169.8471878942878 L 1576 169.68667785971468 L 1576 169.68667785971485 L 1577 169.52626306338135 L 1577 169.52626306338158 L 1578 169.36594333596048 L 1578 169.3659433359607 L 1579 169.20571850862603" stroke-opacity="1" stroke-linecap="round" stroke-linejoin="round" stroke-miterlimit="10" stroke-width="6.5"/></g></g></svg>